<?xml version="1.0" encoding="UTF-8"?>
<svg xmlns="http://www.w3.org/2000/svg" viewBox="0 0 600 600">
  <defs>
    <style>
      .cls-1 {
        fill: #fff;
      }

      .cls-2, .cls-3, .cls-4, .cls-5, .cls-6, .cls-7, .cls-8 {
        fill: none;
      }

      .cls-2, .cls-4 {
        stroke-width: 12px;
      }

      .cls-2, .cls-4, .cls-5, .cls-6, .cls-7, .cls-8 {
        stroke-miterlimit: 10;
      }

      .cls-2, .cls-6, .cls-8 {
        stroke: #010101;
      }

      .cls-4 {
        stroke: #fff;
      }

      .cls-5, .cls-6 {
        stroke-width: 30px;
      }

      .cls-5, .cls-7 {
        stroke: #dde0e0;
      }

      .cls-9 {
        fill: #dde0e0;
      }

      .cls-7, .cls-8 {
        stroke-width: 20px;
      }

      .cls-10 {
        fill: #010101;
      }
    </style>
  </defs>
  <g id="Transparent_bg" data-name="Transparent bg">
    <rect class="cls-3" width="600" height="600"/>
  </g>
  <g id="bK_export" data-name="bK export">
    <path class="cls-1" d="m310.3,102.1c11.87,6.94,24.55,3.05,37.8-8.6,9.59,11.83,9.58,24.45,0,37.84-12.95-10.48-25.59-14.24-37.8-8.62h0c-5.62,12.2-1.85,24.85,8.62,37.8-13.4,9.58-26.01,9.59-37.84,0,11.65-13.26,15.54-25.93,8.6-37.8h.01c-12.21-5.62-24.85-1.85-37.8,8.62-9.58-13.4-9.59-26.01,0-37.84,13.26,11.65,25.93,15.54,37.8,8.6h.01c5.62-12.21,1.85-24.85-8.62-37.8,13.4-9.58,26.01-9.59,37.84,0-11.65,13.26-15.54,25.93-8.6,37.8h-.03Z"/>
    <path class="cls-9" d="m428.3,339.18l-16.47,55.3s-13.57,3.55-36.78,6.76h-.02c-10.44,1.45-22.83,2.83-36.82,3.78h-.02c-11.73.81-24.55,1.31-38.31,1.31s-25.49-.5-36.95-1.3h-.04c-13.51-.94-25.7-2.3-36.13-3.73h-.02c-23.62-3.23-38.11-6.82-38.11-6.82l-17.94-57.72s4.5,1.11,12.25,2.76c12.98,2.76,35.05,7.02,60.33,10.1,17.95,2.19,37.53,3.78,56.61,3.81h.57c19.68,0,39.1-1.29,56.62-3.09,25.35-2.62,46.75-6.3,59.28-8.71h.01c7.6-1.46,11.94-2.45,11.94-2.45Z"/>
    <path class="cls-1" d="m485.99,207.49c-32.7-49.06-137.15-49.18-173.43-47.66h-.01c-7.89.33-12.55.74-12.55.74,0,0-4.65-.41-12.52-.74-36.24-1.52-140.76-1.41-173.47,47.66-47.48,63.89,50.1,129.38,65.75,241.95.31,2.16.58,4.35.81,6.56.83,7.56,1.27,15.34,1.27,23.34h236.32c0-8.14.46-16.04,1.31-23.73.25-2.3.54-4.58.86-6.83,15.94-112.17,113.05-177.52,65.66-241.29Zm-12.17,57.54c-4.35,16.12-10.24,27.71-33.3,69.59-3.56,6.47-16.1,34.22-24.04,51.37h-.01c-12.53,2.18-33.93,5.51-59.28,7.88-17.52,1.63-36.94,2.79-56.62,2.79h-.57c-19.08-.03-38.66-1.47-56.61-3.45-25.28-2.79-47.35-6.64-60.33-9.13-8.44-17.23-21.03-43.23-24.46-49.46-23.07-41.88-28.96-53.48-33.3-69.59-4.13-15.34-6.45-24.45-2.7-35.81,5.61-17.02,20.74-26.78,26.55-30.52,14.1-9.09,27.74-11.8,38.7-13.84,14.43-2.68,41.2-5.25,68.94-6.7.01,0,.03,0,.04,0,14.67-.77,29.63-1.23,43.17-1.23h0c39.15,0,89.2,3.83,111.27,7.93,10.96,2.03,24.6,4.75,38.7,13.84,5.81,3.74,20.94,13.5,26.55,30.52,3.75,11.37,1.43,20.48-2.7,35.81Z"/>
    <path class="cls-7" d="m300,176.93c-13.54,0-28.5.46-43.17,1.23,0,0-.03,0-.04,0-27.74,1.46-54.51,4.02-68.94,6.7-10.96,2.03-24.6,4.75-38.7,13.84-5.81,3.74-20.94,13.5-26.55,30.52-3.75,11.37-1.43,20.47,2.7,35.81,4.34,16.12,10.23,27.71,33.3,69.59,3.43,6.23,16.02,32.23,24.46,49.46,3.67,7.47,6.56,13.29,7.59,15.14"/>
    <path class="cls-7" d="m410.15,399.22c.94-1.69,3.3-6.69,6.32-13.23h.01c7.94-17.15,20.48-44.9,24.04-51.37,23.06-41.88,28.95-53.48,33.3-69.59,4.13-15.34,6.45-24.45,2.7-35.81-5.61-17.02-20.74-26.78-26.55-30.52-14.1-9.09-27.74-11.8-38.7-13.84-22.07-4.1-72.12-7.94-111.27-7.94"/>
    <path class="cls-7" d="m300,174.82v2.1h0v229.94"/>
    <path class="cls-5" d="m244.19,397.78c-.26-1.54-.52-3.06-.8-4.57-17.21-93.74-73.06-126.24-73.06-172.73,0-29.41,48.72-39.21,86.46-42.33.01,0,.03,0,.04,0,22.83-1.9,41.64-1.35,43.17-1.23"/>
    <path class="cls-5" d="m356.36,398.58c16.2-97.27,73.86-130.06,73.86-177.29,0-47.23-125.6-43.88-129.67-43.57"/>
    <path class="cls-10" d="m428.3,346.31l-16.47,55.3s-13.57,3.55-36.78,6.76h-.02c-10.44,1.45-22.83,2.83-36.82,3.78h-.02c-11.73.81-24.55,1.31-38.31,1.31s-25.49-.5-36.95-1.3h-.04c-13.51-.94-25.7-2.3-36.13-3.73h-.02c-23.62-3.23-38.11-6.82-38.11-6.82l-17.94-57.72s4.5,1.11,12.25,2.76c12.98,2.76,35.05,7.02,60.33,10.1,17.95,2.19,37.53,3.78,56.61,3.81h.57c19.68,0,39.1-1.29,56.62-3.09,25.35-2.62,46.75-6.3,59.28-8.71h.01c7.6-1.46,11.94-2.45,11.94-2.45Z"/>
    <g>
      <g>
        <ellipse class="cls-1" cx="300.71" cy="494.13" rx="165.21" ry="48.76"/>
        <ellipse class="cls-4" cx="300.71" cy="494.13" rx="165.21" ry="48.76"/>
      </g>
      <g>
        <ellipse class="cls-10" cx="301.22" cy="486.47" rx="165.21" ry="48.76"/>
        <ellipse class="cls-2" cx="301.22" cy="486.47" rx="165.21" ry="48.76"/>
      </g>
    </g>
    <path class="cls-10" d="m310.3,108.4c11.87,6.94,24.55,3.05,37.8-8.6,9.59,11.83,9.58,24.45,0,37.84-12.95-10.48-25.59-14.24-37.8-8.62h0c-5.62,12.2-1.85,24.85,8.62,37.8-13.4,9.58-26.01,9.59-37.84,0,11.65-13.26,15.54-25.93,8.6-37.8h.01c-12.21-5.62-24.85-1.85-37.8,8.62-9.58-13.4-9.59-26.01,0-37.84,13.26,11.65,25.93,15.54,37.8,8.6h.01c5.62-12.21,1.85-24.85-8.62-37.8,13.4-9.58,26.01-9.59,37.84,0-11.65,13.26-15.54,25.93-8.6,37.8h-.03Z"/>
    <path class="cls-10" d="m485.99,214.62c-32.7-49.06-137.15-49.18-173.43-47.66h-.01c-7.89.33-12.55.74-12.55.74,0,0-4.65-.41-12.52-.74-36.24-1.52-140.76-1.41-173.47,47.66-47.48,63.89,50.1,129.38,65.75,241.95.31,2.16.58,4.35.81,6.56.83,7.56,1.27,15.34,1.27,23.34h236.32c0-8.14.46-16.04,1.31-23.73.25-2.3.54-4.58.86-6.83,15.94-112.17,113.05-177.52,65.66-241.29Zm-12.17,57.54c-4.35,16.12-10.24,27.71-33.3,69.59-3.56,6.47-16.1,34.22-24.04,51.37h-.01c-12.53,2.18-33.93,5.51-59.28,7.88-17.52,1.63-36.94,2.79-56.62,2.79h-.57c-19.08-.03-38.66-1.47-56.61-3.45-25.28-2.79-47.35-6.64-60.33-9.13-8.44-17.23-21.03-43.23-24.46-49.46-23.07-41.88-28.96-53.48-33.3-69.59-4.13-15.34-6.45-24.45-2.7-35.81,5.61-17.02,20.74-26.78,26.55-30.52,14.1-9.09,27.74-11.8,38.7-13.84,14.43-2.68,41.2-5.25,68.94-6.7.01,0,.03,0,.04,0,14.67-.77,29.63-1.23,43.17-1.23h0c39.15,0,89.2,3.83,111.27,7.93,10.96,2.03,24.6,4.75,38.7,13.84,5.81,3.74,20.94,13.5,26.55,30.52,3.75,11.37,1.43,20.48-2.7,35.81Z"/>
    <path class="cls-8" d="m300,184.06c-13.54,0-28.5.46-43.17,1.23,0,0-.03,0-.04,0-27.74,1.46-54.51,4.02-68.94,6.7-10.96,2.03-24.6,4.75-38.7,13.84-5.81,3.74-20.94,13.5-26.55,30.52-3.75,11.37-1.43,20.47,2.7,35.81,4.34,16.12,10.23,27.71,33.3,69.59,3.43,6.23,16.02,32.23,24.46,49.46,3.67,7.47,6.56,13.29,7.59,15.14"/>
    <path class="cls-8" d="m410.15,406.35c.94-1.69,3.3-6.69,6.32-13.23h.01c7.94-17.15,20.48-44.9,24.04-51.37,23.06-41.88,28.95-53.48,33.3-69.59,4.13-15.34,6.45-24.45,2.7-35.81-5.61-17.02-20.74-26.78-26.55-30.52-14.1-9.09-27.74-11.8-38.7-13.84-22.07-4.1-72.12-7.94-111.27-7.94"/>
    <path class="cls-6" d="m300,181.95v2.1h0v229.94"/>
    <path class="cls-6" d="m244.19,404.91c-.26-1.54-.52-3.06-.8-4.57-17.21-93.74-73.06-126.24-73.06-172.73,0-29.41,48.72-39.21,86.46-42.33.01,0,.03,0,.04,0,22.83-1.9,41.64-1.35,43.17-1.23"/>
    <path class="cls-6" d="m356.36,405.71c16.2-97.27,73.86-130.06,73.86-177.29,0-47.23-125.6-43.88-129.67-43.57"/>
    <path class="cls-1" d="m428.42,380.8l-16.47,55.3s-13.57,3.55-36.78,6.76h-.02c-10.44,1.45-22.83,2.83-36.82,3.78h-.02c-11.73.81-24.55,1.31-38.31,1.31s-25.49-.5-36.95-1.3h-.04c-13.51-.94-25.7-2.3-36.13-3.73h-.02c-23.62-3.23-38.11-6.82-38.11-6.82l-17.94-57.72s4.5,1.11,12.25,2.76c12.98,2.76,35.05,7.02,60.33,10.1,17.95,2.19,37.53,3.78,56.61,3.81h.57c19.68,0,39.1-1.29,56.62-3.09,25.35-2.62,46.75-6.3,59.28-8.71h.01c7.6-1.46,11.94-2.45,11.94-2.45Z"/>
  </g>
</svg>