<?xml version="1.0" encoding="UTF-8"?>
<svg xmlns="http://www.w3.org/2000/svg" viewBox="0 0 600 600">
  <defs>
    <style>
      .cls-1, .cls-2 {
        fill: #fff;
      }

      .cls-3, .cls-4, .cls-5 {
        fill: none;
      }

      .cls-3, .cls-5 {
        stroke-miterlimit: 10;
      }

      .cls-3, .cls-5, .cls-6, .cls-2 {
        stroke-width: 12px;
      }

      .cls-3, .cls-6, .cls-2 {
        stroke: #010101;
      }

      .cls-5, .cls-7 {
        stroke: #fff;
      }

      .cls-6, .cls-2, .cls-8, .cls-7 {
        stroke-linecap: round;
        stroke-linejoin: round;
      }

      .cls-6, .cls-9 {
        fill: #010101;
      }

      .cls-8 {
        stroke: #dee1e0;
      }

      .cls-8, .cls-7 {
        fill: #dee1e0;
        stroke-width: 6px;
      }
    </style>
  </defs>
  <g id="Transparent_bg" data-name="Transparent bg">
    <rect class="cls-4" width="600" height="600"/>
  </g>
  <g id="bN_export" data-name="bN export">
    <path class="cls-2" d="m413.09,495.37c-2.14-3.66-4.1-7.54-5.89-11.59-1.11-2.51-2.15-5.08-3.13-7.71-.46-1.25-3.63-8.82-7.82-18.8-1.58-3.77-3.31-7.88-5.1-12.12-9.18-21.78-19.85-47-19.85-47l34.59,14.57-21.75-54.77,32.8,14.72-25.63-58.66,28.37,12.54-23.32-55.5,26.53,16.78-23.88-56.08,24.76,18.52-24.65-50.02,21.5,15.15-25.88-47.93,18,12.83s-17.66-33.37-19.32-35.69c-2.08-2.91-6.94-8.21-9.5-10.78-1.56-1.56-3.21-3.04-4.91-4.44-5.1-4.2-10.76-7.72-16.55-10.91-4.34-2.39-17.3-6.13-18.34-11.75-3.08-16.68-14.43-20.74-20.06-21.73-1.57-.27-3.28.82-3.23,2.41.14,4.5-.86,14.25-9.71,26.72-.04.06-.14.14-.2.17-14.17,7.33-29.8,7.48-39.99,20.11-5.7,7.09-9.44,15.52-14.13,23.31-9.07,15.03-13.59,19.52-26.84,31.02-16.64,14.44-40.95,33.49-39.3,57.57,0,.04.02.12.03.16,5.66,16.18,17.58,15.03,27.52,11.95,11.6-3.6,22.26-9.56,33.54-13.97,11.55-4.52,23.55-5.75,35.67-7.94,15.03-2.72,42.54-9.91,48.04-27.1-6.55,20.45-16.2,42.33-28.18,60.14-15.83,23.53-37.1,42.68-54.53,64.94-33.23,42.43-50.5,100.46-58.38,153.03"/>
    <g>
      <g>
        <ellipse class="cls-1" cx="300.04" cy="500.15" rx="144" ry="42.5"/>
        <ellipse class="cls-5" cx="300.04" cy="500.15" rx="144" ry="42.5"/>
      </g>
      <g>
        <ellipse class="cls-9" cx="299.04" cy="491.15" rx="144" ry="42.5"/>
        <ellipse class="cls-3" cx="299.04" cy="491.15" rx="144" ry="42.5"/>
      </g>
    </g>
    <g>
      <path class="cls-4" d="m427.26,487.85c9.35,0,17,7.65,17,17s-7.65,17-17,17h-250c-9.35,0-17-7.65-17-17s9.77-15.91,17-17c1.61-.24,1.83,0,19.46,0h230.54Z"/>
      <path class="cls-4" d="m378.63,487.85h-181.83c7.88-52.57,22.73-104.65,55.96-147.08,17.43-22.26,38.7-41.41,54.53-64.94,11.98-17.81,21.63-39.69,28.18-60.14-5.5,17.19-33.01,24.38-48.04,27.1-12.12,2.19-24.12,3.42-35.67,7.94-11.28,4.41-21.94,10.37-33.54,13.97-9.94,3.08-21.86,4.23-27.52-11.95-.01-.04-.03-.12-.03-.16-1.65-24.08,22.66-43.13,39.3-57.57,13.25-11.5,17.77-15.99,26.84-31.02,4.69-7.79,8.43-16.22,14.13-23.31,10.19-12.63,25.82-12.78,39.99-20.11.06-.03.16-.11.2-.17,8.85-12.47,9.85-22.22,9.71-26.72-.05-1.59,1.66-2.68,3.23-2.41,5.63.99,16.98,5.05,20.06,21.73,1.04,5.62,14,9.36,18.34,11.75,7.73,4.25,15.2,9.09,21.46,15.35,17.43,17.48,23.12,43.48,24.4,68.13,2.38,45.41-7.42,90.44-13.92,135.45-6.69,46.27-12.79,102.11,11.72,144.05v.11h-27.5Zm-88.33-336.5c0-1.66-1.34-3-3-3s-3,1.34-3,3,1.34,3,3,3,3-1.34,3-3Z"/>
    </g>
    <path class="cls-6" d="m413.09,501.67c-2.14-3.66-4.1-7.54-5.89-11.59-1.11-2.51-2.15-5.08-3.13-7.71-.46-1.25-3.63-8.82-7.82-18.8-1.58-3.77-3.31-7.88-5.1-12.12-9.18-21.78-19.85-47-19.85-47l34.59,14.57-21.75-54.77,32.8,14.72-25.63-58.66,28.37,12.54-23.32-55.5,26.53,16.78-23.88-56.08,24.76,18.52-24.65-50.02,21.5,15.15-25.88-47.93,18,12.82s-17.66-33.37-19.32-35.69c-2.08-2.91-6.94-8.21-9.5-10.78-1.56-1.56-3.21-3.04-4.91-4.44-5.1-4.2-10.76-7.72-16.55-10.91-4.34-2.39-17.3-6.13-18.34-11.75-3.08-16.68-14.43-20.74-20.06-21.73-1.57-.27-3.28.82-3.23,2.41.14,4.5-.86,14.25-9.71,26.72-.04.06-.14.14-.2.17-14.17,7.33-29.8,7.48-39.99,20.11-5.7,7.09-9.44,15.52-14.13,23.31-9.07,15.03-13.59,19.52-26.84,31.02-16.64,14.44-40.95,33.49-39.3,57.57,0,.04.02.12.03.16,5.66,16.18,17.58,15.03,27.52,11.95,11.6-3.6,22.26-9.56,33.54-13.97,11.55-4.52,23.55-5.75,35.67-7.94,15.03-2.72,42.54-9.91,48.04-27.1-6.55,20.45-16.2,42.33-28.18,60.14-15.83,23.53-37.1,42.68-54.53,64.94-33.23,42.43-50.5,100.46-58.38,153.03"/>
    <circle class="cls-8" cx="287.3" cy="151.35" r="3"/>
    <g>
      <g>
        <ellipse class="cls-1" cx="300.74" cy="500.33" rx="144" ry="42.5"/>
        <ellipse class="cls-5" cx="300.74" cy="500.33" rx="144" ry="42.5"/>
      </g>
      <g>
        <ellipse class="cls-9" cx="299.74" cy="491.33" rx="144" ry="42.5"/>
        <ellipse class="cls-3" cx="299.74" cy="491.33" rx="144" ry="42.5"/>
      </g>
    </g>
    <g>
      <path class="cls-4" d="m427.96,488.03c9.35,0,17,7.65,17,17s-7.65,17-17,17h-250c-9.35,0-17-7.65-17-17s9.77-15.91,17-17c1.61-.24,1.83,0,19.46,0h230.54Z"/>
      <path class="cls-4" d="m379.33,488.03h-181.83c7.88-52.57,22.73-104.65,55.96-147.08,17.43-22.26,38.7-41.41,54.53-64.94,11.98-17.81,21.63-39.69,28.18-60.14-5.5,17.19-33.01,24.38-48.04,27.1-12.12,2.19-24.12,3.42-35.67,7.94-11.28,4.41-21.94,10.37-33.54,13.97-9.94,3.08-21.86,4.23-27.52-11.95-.01-.04-.03-.12-.03-.16-1.65-24.08,22.66-43.13,39.3-57.57,13.25-11.5,17.77-15.99,26.84-31.02,4.69-7.79,8.43-16.22,14.13-23.31,10.19-12.63,25.82-12.78,39.99-20.11.06-.03.16-.11.2-.17,8.85-12.47,9.85-22.22,9.71-26.72-.05-1.59,1.66-2.68,3.23-2.41,5.63.99,16.98,5.05,20.06,21.73,1.04,5.62,14,9.36,18.34,11.75,7.73,4.25,15.2,9.09,21.46,15.35,17.43,17.48,23.12,43.48,24.4,68.13,2.38,45.41-7.42,90.44-13.92,135.45-6.69,46.27-12.79,102.11,11.72,144.05v.11h-27.5Zm-88.33-336.5c0-1.66-1.34-3-3-3s-3,1.34-3,3,1.34,3,3,3,3-1.34,3-3Z"/>
    </g>
    <circle class="cls-7" cx="288" cy="151.53" r="3"/>
  </g>
</svg>