<?xml version="1.0" encoding="UTF-8"?>
<svg xmlns="http://www.w3.org/2000/svg" viewBox="0 0 600 600">
  <defs>
    <style>
      .cls-1 {
        fill: #fff;
      }

      .cls-2 {
        fill: #dde0e0;
        stroke: #dde0e0;
        stroke-linecap: round;
      }

      .cls-2, .cls-3, .cls-4 {
        stroke-miterlimit: 10;
        stroke-width: 12px;
      }

      .cls-3 {
        stroke: #010101;
      }

      .cls-3, .cls-5, .cls-4 {
        fill: none;
      }

      .cls-4 {
        stroke: #fff;
      }

      .cls-6 {
        fill: #010101;
      }
    </style>
  </defs>
  <g id="Transparent_bg" data-name="Transparent bg">
    <rect class="cls-5" width="600" height="600"/>
  </g>
  <g id="bP_export" data-name="bP export">
    <path class="cls-1" d="m384.67,487.81c-25.11-47.43-64.87-145.7-69.34-207.57h-30.66c-4.47,61.87-44.23,160.14-69.34,207.57"/>
    <g>
      <ellipse class="cls-1" cx="300" cy="268.98" rx="50.05" ry="5.63"/>
      <ellipse class="cls-4" cx="300" cy="268.98" rx="50.05" ry="5.63"/>
    </g>
    <g>
      <circle class="cls-1" cx="300" cy="205.71" r="50"/>
      <circle class="cls-4" cx="300" cy="205.71" r="50"/>
    </g>
    <g>
      <ellipse class="cls-1" cx="300" cy="508.43" rx="116.5" ry="34.38"/>
      <ellipse class="cls-4" cx="300" cy="508.43" rx="116.5" ry="34.38"/>
    </g>
    <g>
      <ellipse class="cls-6" cx="300" cy="498.41" rx="116.5" ry="34.38"/>
      <ellipse class="cls-3" cx="300" cy="498.41" rx="116.5" ry="34.38"/>
    </g>
    <line class="cls-2" x1="300.45" y1="228.9" x2="300.45" y2="182.9"/>
    <path class="cls-6" d="m384.67,498.6c-25.11-47.43-64.87-145.7-69.34-207.57h-30.66c-4.47,61.87-44.23,160.14-69.34,207.57"/>
    <g>
      <ellipse class="cls-6" cx="300" cy="279.77" rx="50.05" ry="5.63"/>
      <ellipse class="cls-3" cx="300" cy="279.77" rx="50.05" ry="5.63"/>
    </g>
    <g>
      <circle class="cls-6" cx="300" cy="215.59" r="50"/>
      <circle class="cls-3" cx="300" cy="215.59" r="50"/>
    </g>
  </g>
</svg>