<?xml version="1.0" encoding="UTF-8"?>
<svg xmlns="http://www.w3.org/2000/svg" viewBox="0 0 600 600">
  <defs>
    <style>
      .cls-1, .cls-2 {
        fill: #fff;
      }

      .cls-3, .cls-4, .cls-5, .cls-6, .cls-2 {
        stroke-miterlimit: 10;
      }

      .cls-3, .cls-4, .cls-6 {
        stroke: #010101;
      }

      .cls-3, .cls-7, .cls-5 {
        fill: none;
      }

      .cls-3, .cls-5 {
        stroke-width: 12px;
      }

      .cls-4 {
        fill: #dde0e0;
      }

      .cls-4, .cls-6, .cls-2 {
        stroke-width: 6px;
      }

      .cls-5, .cls-2 {
        stroke: #fff;
      }

      .cls-6, .cls-8 {
        fill: #010101;
      }
    </style>
  </defs>
  <g id="Transparent_bg" data-name="Transparent bg">
    <rect class="cls-7" width="600" height="600"/>
  </g>
  <g id="bQ_export" data-name="bQ export">
    <path class="cls-1" d="m300.66,350.88c63.26,0,112.77,7.18,119.54,14.98,3.92-94.94,24.76-179.11,65.98-255.62l.23-.23-95.5,171.97,2.13-195.68-52.08,206.22-40.5-218.44h-.57s-40.5,218.44-40.5,218.44l-52.08-206.22,2.13,195.68L113.93,110.02l.23.23c41.22,76.51,61.92,159.53,65.84,254.47,6.77-7.8,56.42-13.84,119.68-13.84"/>
    <path class="cls-1" d="m114.66,94.65c-8.28,0-15,6.72-15,15s6.72,15,15,15c2.35,0,4.58-.54,6.55-1.5,5-2.43,8.45-7.57,8.45-13.5,0-8.28-6.72-15-15-15Z"/>
    <circle class="cls-4" cx="300.08" cy="72.11" r="15"/>
    <path class="cls-8" d="m114.5,101.24c-8.28,0-15,6.72-15,15s6.72,15,15,15c2.35,0,4.58-.54,6.55-1.5,5-2.43,8.45-7.57,8.45-13.5,0-8.28-6.72-15-15-15Z"/>
    <circle class="cls-6" cx="299.92" cy="78.7" r="15"/>
    <g>
      <g>
        <ellipse class="cls-1" cx="299.67" cy="494.19" rx="165" ry="48.7"/>
        <ellipse class="cls-5" cx="299.67" cy="494.19" rx="165" ry="48.7"/>
      </g>
      <g>
        <ellipse class="cls-8" cx="300.17" cy="486.54" rx="165" ry="48.7"/>
        <ellipse class="cls-3" cx="300.17" cy="486.54" rx="165" ry="48.7"/>
      </g>
    </g>
    <path class="cls-8" d="m420.03,371.27h.01c-.71,12.33-1.23,24.93-1.61,37.87h-.2c0-8.51-53.56-15.39-118.75-15.39s-111.21,5.92-118.02,13.56c-.39-12.94-.93-25.54-1.66-37.87,6.77-7.8,56.42-13.84,119.68-13.84,66.43,0,120.55,7.01,120.55,15.67Z"/>
    <path class="cls-8" d="m418.21,409.17h.2c-.7,23.58-.94,48.25-1.02,74.37v3h-234.87v-3c-.09-26.8-.34-52.07-1.08-76.19,6.81-7.64,56.02-13.56,118.02-13.56,65.19,0,118.75,6.88,118.75,15.38Z"/>
    <path class="cls-1" d="m207.37,70.84c-8.28,0-15,6.72-15,15s6.72,15,15,15c2.35,0,4.58-.54,6.55-1.5,5-2.43,8.45-7.57,8.45-13.5,0-8.28-6.72-15-15-15Z"/>
    <path class="cls-8" d="m207.21,77.43c-8.28,0-15,6.72-15,15s6.72,15,15,15c2.35,0,4.58-.54,6.55-1.5,5-2.43,8.45-7.57,8.45-13.5,0-8.28-6.72-15-15-15Z"/>
    <path class="cls-1" d="m485.34,94.65c8.28,0,15,6.72,15,15s-6.72,15-15,15c-2.35,0-4.57-.54-6.55-1.5-5-2.43-8.45-7.57-8.45-13.5,0-8.28,6.72-15,15-15Z"/>
    <circle class="cls-2" cx="299.92" cy="72.11" r="15"/>
    <path class="cls-8" d="m485.5,101.24c8.28,0,15,6.72,15,15s-6.72,15-15,15c-2.35,0-4.57-.54-6.55-1.5-5-2.43-8.45-7.57-8.45-13.5,0-8.28,6.72-15,15-15Z"/>
    <circle class="cls-6" cx="300.08" cy="78.7" r="15"/>
    <path class="cls-1" d="m392.63,70.84c8.28,0,15,6.72,15,15,0,8.28-6.72,15-15,15-2.35,0-4.57-.54-6.55-1.5-5-2.43-8.45-7.57-8.45-13.5,0-8.28,6.72-15,15-15Z"/>
    <path class="cls-8" d="m392.79,77.43c8.28,0,15,6.72,15,15s-6.72,15-15,15c-2.35,0-4.57-.54-6.55-1.5-5-2.43-8.45-7.57-8.45-13.5,0-8.28,6.72-15,15-15Z"/>
    <path class="cls-8" d="m300.49,356.28c63.26,0,112.77,7.18,119.54,14.98,3.92-94.94,24.76-179.11,65.98-255.62l.23-.23-95.5,171.97,2.13-195.68-52.08,206.22-40.5-218.44h-.57s-40.5,218.44-40.5,218.44l-52.08-206.22,2.13,195.68L113.76,115.42l.23.23c41.22,76.51,61.92,159.53,65.84,254.47,6.77-7.8,56.42-13.84,119.68-13.84"/>
    <path class="cls-1" d="m411.59,357.12l-3,57.93s-9.65.92-32.87,4.13h-.02c-10.44,1.45-22.83,2.83-36.82,3.78h-.02c-11.73.81-24.55,1.31-38.31,1.31s-25.49-.5-36.95-1.3h-.04c-13.51-.94-25.7-2.3-36.13-3.73h-.02c-23.62-3.23-38.11-6.82-38.11-6.82l-2.42-57.72s31.77,9.78,57.06,12.86c17.95,2.19,37.53,3.78,56.61,3.81h.57c19.68,0,39.1-1.29,56.62-3.09,25.35-2.62,53.84-11.16,53.84-11.16Z"/>
  </g>
</svg>