<?xml version="1.0" encoding="utf-8"?>
<!-- Generator: Adobe Illustrator 27.3.1, SVG Export Plug-In . SVG Version: 6.00 Build 0)  -->
<svg version="1.1" id="Layer_11" xmlns="http://www.w3.org/2000/svg" xmlns:xlink="http://www.w3.org/1999/xlink" x="0px" y="0px"
	 viewBox="0 0 4800 4800" style="enable-background:new 0 0 4800 4800;" xml:space="preserve">
<style type="text/css">
	.st0{fill:#EF4136;}
</style>
<rect x="1200" y="3600" class="st0" width="600" height="600"/>
<rect x="2400" y="3600" class="st0" width="600" height="600"/>
<rect x="3600" y="3600" class="st0" width="600" height="600"/>
<rect y="3600" class="st0" width="600" height="600"/>
<rect x="1800" y="4200" class="st0" width="600" height="600"/>
<rect x="600" y="4200" class="st0" width="600" height="600"/>
<rect x="3000" y="4200" class="st0" width="600" height="600"/>
<rect x="4200" y="4200" class="st0" width="600" height="600"/>
<rect x="1800" y="3600" width="600" height="600"/>
<rect x="600" y="3600" width="600" height="600"/>
<rect x="3000" y="3600" width="600" height="600"/>
<rect y="4200" width="600" height="600"/>
<rect x="1200" y="4200" width="600" height="600"/>
<rect x="2400" y="4200" width="600" height="600"/>
<rect x="4200" y="3600" width="600" height="600"/>
<rect x="3600" y="4200" width="600" height="600"/>
<rect x="1200" y="1200" class="st0" width="600" height="600"/>
<rect x="2400" y="1200" class="st0" width="600" height="600"/>
<rect x="3600" y="1200" class="st0" width="600" height="600"/>
<rect y="1200" class="st0" width="600" height="600"/>
<rect x="1800" y="1800" class="st0" width="600" height="600"/>
<rect x="600" y="1800" class="st0" width="600" height="600"/>
<rect x="3000" y="1800" class="st0" width="600" height="600"/>
<rect x="4200" y="1800" class="st0" width="600" height="600"/>
<rect x="1800" y="1200" width="600" height="600"/>
<rect x="600" y="1200" width="600" height="600"/>
<rect x="3000" y="1200" width="600" height="600"/>
<rect y="1800" width="600" height="600"/>
<rect x="1200" y="1800" width="600" height="600"/>
<rect x="2400" y="1800" width="600" height="600"/>
<rect x="4200" y="1200" width="600" height="600"/>
<rect x="3600" y="1800" width="600" height="600"/>
<rect x="1200" y="2400" class="st0" width="600" height="600"/>
<rect x="2400" y="2400" class="st0" width="600" height="600"/>
<rect x="3600" y="2400" class="st0" width="600" height="600"/>
<rect y="2400" class="st0" width="600" height="600"/>
<rect x="1800" y="3000" class="st0" width="600" height="600"/>
<rect x="600" y="3000" class="st0" width="600" height="600"/>
<rect x="3000" y="3000" class="st0" width="600" height="600"/>
<rect x="4200" y="3000" class="st0" width="600" height="600"/>
<rect x="1800" y="2400" width="600" height="600"/>
<rect x="600" y="2400" width="600" height="600"/>
<rect x="3000" y="2400" width="600" height="600"/>
<rect y="3000" width="600" height="600"/>
<rect x="1200" y="3000" width="600" height="600"/>
<rect x="2400" y="3000" width="600" height="600"/>
<rect x="4200" y="2400" width="600" height="600"/>
<rect x="3600" y="3000" width="600" height="600"/>
<rect x="1200" class="st0" width="600" height="600"/>
<rect x="2400" class="st0" width="600" height="600"/>
<rect x="3600" class="st0" width="600" height="600"/>
<rect class="st0" width="600" height="600"/>
<rect x="1800" y="600" class="st0" width="600" height="600"/>
<rect x="600" y="600" class="st0" width="600" height="600"/>
<rect x="3000" y="600" class="st0" width="600" height="600"/>
<rect x="4200" y="600" class="st0" width="600" height="600"/>
<rect x="1800" width="600" height="600"/>
<rect x="600" width="600" height="600"/>
<rect x="3000" width="600" height="600"/>
<rect y="600" width="600" height="600"/>
<rect x="1200" y="600" width="600" height="600"/>
<rect x="2400" y="600" width="600" height="600"/>
<rect x="4200" width="600" height="600"/>
<rect x="3600" y="600" width="600" height="600"/>
</svg>
