<?xml version="1.0" encoding="UTF-8"?><svg id="Layer_11" xmlns="http://www.w3.org/2000/svg" viewBox="0 0 4800 4800"><defs><style>.cls-1{fill:#fff;}.cls-2{fill:#ef4136;}</style></defs><rect class="cls-1" x="600" y="600" width="600" height="600"/><rect class="cls-1" x="1800" y="600" width="600" height="600"/><rect class="cls-1" x="3000" y="600" width="600" height="600"/><rect class="cls-1" x="1200" y="1200" width="600" height="600"/><rect class="cls-1" x="2400" y="1200" width="600" height="600"/><rect class="cls-1" x="600" y="1800" width="600" height="600"/><rect class="cls-1" x="1800" y="1800" width="600" height="600"/><rect class="cls-1" x="3000" y="1800" width="600" height="600"/><rect class="cls-1" x="1200" y="2400" width="600" height="600"/><rect class="cls-1" x="2400" y="2400" width="600" height="600"/><rect class="cls-1" x="3600" y="2400" width="600" height="600"/><rect class="cls-1" x="3600" y="1200" width="600" height="600"/><rect class="cls-1" x="600" y="3000" width="600" height="600"/><rect class="cls-1" x="1800" y="3000" width="600" height="600"/><rect class="cls-1" x="3000" y="3000" width="600" height="600"/><rect class="cls-1" x="1200" y="3600" width="600" height="600"/><rect class="cls-1" x="2400" y="3600" width="600" height="600"/><rect class="cls-1" x="3600" y="3600" width="600" height="600"/><rect class="cls-1" x="0" y="2400" width="600" height="600"/><rect class="cls-1" x="0" y="1200" width="600" height="600"/><rect class="cls-1" x="0" y="3600" width="600" height="600"/><rect class="cls-1" x="1200" width="600" height="600" transform="translate(1800 -1200) rotate(90)"/><rect class="cls-1" x="2400" width="600" height="600" transform="translate(3000 -2400) rotate(90)"/><rect class="cls-1" x="0" width="600" height="600" transform="translate(600 0) rotate(90)"/><rect class="cls-1" x="1800" y="4200" width="600" height="600" transform="translate(-2400 6600) rotate(-90)"/><rect class="cls-1" x="600" y="4200" width="600" height="600" transform="translate(-3600 5400) rotate(-90)"/><rect class="cls-1" x="3000" y="4200" width="600" height="600" transform="translate(-1200 7800) rotate(-90)"/><rect class="cls-1" x="4200" y="1800" width="600" height="600"/><rect class="cls-1" x="4200" y="600" width="600" height="600"/><rect class="cls-1" x="4200" y="3000" width="600" height="600"/><rect class="cls-1" x="3600" width="600" height="600"/><rect class="cls-1" x="4200" y="4200" width="600" height="600"/><rect class="cls-2" x="1200" y="600" width="600" height="600"/><rect class="cls-2" x="2400" y="600" width="600" height="600"/><rect class="cls-2" x="600" y="1200" width="600" height="600"/><rect class="cls-2" x="1800" y="1200" width="600" height="600"/><rect class="cls-2" x="3000" y="1200" width="600" height="600"/><rect class="cls-2" x="1200" y="1800" width="600" height="600"/><rect class="cls-2" x="2400" y="1800" width="600" height="600"/><rect class="cls-2" x="1800" y="2400" width="600" height="600"/><rect class="cls-2" x="600" y="2400" width="600" height="600"/><rect class="cls-2" x="3000" y="2400" width="600" height="600"/><rect class="cls-2" x="3600" y="600" width="600" height="600"/><rect class="cls-2" x="3600" y="1800" width="600" height="600"/><rect class="cls-2" x="1200" y="3000" width="600" height="600"/><rect class="cls-2" x="2400" y="3000" width="600" height="600"/><rect class="cls-2" x="3600" y="3000" width="600" height="600"/><rect class="cls-2" x="1800" y="3600" width="600" height="600"/><rect class="cls-2" x="600" y="3600" width="600" height="600"/><rect class="cls-2" x="3000" y="3600" width="600" height="600"/><rect class="cls-2" x="0" y="600" width="600" height="600"/><rect class="cls-2" x="0" y="1800" width="600" height="600"/><rect class="cls-2" x="0" y="3000" width="600" height="600"/><rect class="cls-2" x="3000" y="0" width="600" height="600" transform="translate(3600 -3000) rotate(90)"/><rect class="cls-2" x="1800" width="600" height="600" transform="translate(2400 -1800) rotate(90)"/><rect class="cls-2" x="600" y="0" width="600" height="600" transform="translate(1200 -600) rotate(90)"/><rect class="cls-2" x="0" y="4200" width="600" height="600" transform="translate(-4200 4800) rotate(-90)"/><rect class="cls-2" x="1200" y="4200" width="600" height="600" transform="translate(-3000 6000) rotate(-90)"/><rect class="cls-2" x="2400" y="4200" width="600" height="600" transform="translate(-1800 7200) rotate(-90)"/><rect class="cls-2" x="4200" width="600" height="600"/><rect class="cls-2" x="4200" y="1200" width="600" height="600"/><rect class="cls-2" x="4200" y="2400" width="600" height="600"/><rect class="cls-2" x="4200" y="3600" width="600" height="600"/><rect class="cls-2" x="3600" y="4200" width="600" height="600"/></svg>