<?xml version="1.0" encoding="UTF-8"?>
<svg xmlns="http://www.w3.org/2000/svg" viewBox="0 0 600 600">
  <defs>
    <style>
      .cls-1, .cls-2, .cls-3 {
        fill: #fff;
      }

      .cls-4, .cls-5, .cls-6, .cls-7, .cls-2, .cls-3 {
        stroke-miterlimit: 10;
      }

      .cls-4, .cls-5, .cls-6, .cls-2 {
        stroke-width: 12px;
      }

      .cls-4, .cls-6, .cls-7, .cls-2, .cls-3 {
        stroke: #fff;
      }

      .cls-4, .cls-7, .cls-8 {
        fill: #231f20;
      }

      .cls-5 {
        stroke: #010101;
      }

      .cls-5, .cls-9, .cls-6 {
        fill: none;
      }

      .cls-7, .cls-3 {
        stroke-width: 6px;
      }

      .cls-10 {
        fill: #010101;
      }
    </style>
  </defs>
  <g id="Transparent_bg" data-name="Transparent bg">
    <rect class="cls-9" width="600" height="600"/>
  </g>
  <g id="wB_export" data-name="wB export">
    <path class="cls-4" d="m300,115.52c42.44,52.79,82.96,113.53,101.16,179.44,16.65,60.3,15.41,127.12-12.68,183.01v.13c-29.17,0-58.33,0-87.5,0h-1.96c-29.17,0-58.34,0-87.5,0v-.13c-28.09-55.89-29.33-122.71-12.68-183.01,18.2-65.91,59.05-126.98,101.49-179.77"/>
    <circle class="cls-7" cx="300" cy="102.91" r="15"/>
    <path class="cls-2" d="m300,121.33c42.44,52.79,82.96,113.53,101.16,179.44,16.65,60.3,15.41,127.12-12.68,183.01v.13c-29.17,0-58.33,0-87.5,0h-1.96c-29.17,0-58.34,0-87.5,0v-.13c-28.09-55.89-29.33-122.71-12.68-183.01,18.2-65.91,59.05-126.98,101.49-179.77"/>
    <circle class="cls-3" cx="300" cy="108.71" r="15"/>
    <path class="cls-8" d="m309.32,339.24c10.73,6.28,22.2,2.76,34.18-7.77,8.67,10.7,8.66,22.1,0,34.22-11.71-9.47-23.14-12.88-34.18-7.8h0c-5.08,11.04-1.68,22.47,7.8,34.18-12.11,8.66-23.52,8.67-34.22,0,10.53-11.99,14.05-23.45,7.77-34.18h.01c-11.04-5.08-22.47-1.68-34.18,7.8-8.66-12.11-8.67-23.52,0-34.22,11.99,10.53,23.45,14.05,34.18,7.77h.01c5.08-11.04,1.68-22.47-7.8-34.18,12.11-8.66,23.52-8.67,34.22,0-10.53,11.99-14.05,23.45-7.77,34.18"/>
    <g>
      <g>
        <ellipse class="cls-10" cx="300" cy="500.39" rx="144" ry="42.5"/>
        <ellipse class="cls-5" cx="300" cy="500.39" rx="144" ry="42.5"/>
      </g>
      <g>
        <ellipse class="cls-1" cx="300" cy="494.99" rx="144" ry="42.5"/>
        <ellipse class="cls-6" cx="300" cy="494.99" rx="144" ry="42.5"/>
      </g>
    </g>
  </g>
</svg>