<?xml version="1.0" encoding="UTF-8"?><svg id="Layer_2" xmlns="http://www.w3.org/2000/svg" viewBox="0 0 600 600"><defs><style>.cls-1{stroke:#000;}.cls-1,.cls-2{stroke-linecap:round;stroke-width:12px;}.cls-1,.cls-2,.cls-3,.cls-4{fill:none;}.cls-2{stroke:#fff;stroke-linejoin:round;}.cls-3{stroke:#ee4136;stroke-width:24px;}.cls-5{fill:#ee4136;}</style></defs><g id="wN"><path d="m425.0013206,499.932869c9.35,0,17,7.65,17,17s-7.65,17-17,17h-250c-9.35,0-17-7.65-17-17,0-9,9.77-15.91,17-17,1.61-.24,1.83-.01,19.46,0h230.54Z"/><path d="m376.3713206,499.932869h-181.83c7.88-52.57,22.73-104.65,55.96-147.08,17.43-22.26,38.7-41.41,54.53-64.94,11.98-17.81,29.52-59.38,28.18-60.14s-33.01,24.38-48.04,27.1c-12.12,2.19-24.12,3.42-35.67,7.94-11.28,4.41-21.94,10.37-33.54,13.97-9.94,3.08-21.86,4.23-27.52-11.95-.01-.04-.03-.12-.03-.16-1.65-24.08,22.66-43.13,39.3-57.57,13.25-11.5,17.77-15.99,26.84-31.02,4.69-7.79,8.43-16.22,14.13-23.31,10.19-12.63,25.82-12.78,39.99-20.11.06-.03.16-.11.2-.17,8.85-12.47,9.85-22.22,9.71-26.72-.05-1.59,1.66-2.68,3.23-2.41,5.63.99,16.98,5.05,20.06,21.73,1.04,5.62,14,9.36,18.34,11.75,7.73,4.25,15.2,9.09,21.46,15.35,17.43,17.48,23.12,43.48,24.4,68.13,2.38,45.41-7.42,90.44-13.92,135.45-6.69,46.27-12.79,102.11,11.72,144.05v.11h-27.5Zm-88.33-336.5c0-1.66-1.34-3-3-3s-3,1.34-3,3,1.34,3,3,3,3-1.34,3-3Z"/><path class="cls-2" d="m403.8713206,499.932869h21.13c9.35,0,17,7.65,17,17s-7.65,17-17,17h-250c-9.35,0-17-7.65-17-17,0-9,9.77-15.91,17-17,1.61-.24,1.83-.01,19.46,0h209.41Z"/><path class="cls-2" d="m403.8713206,499.822869c-24.51-41.94-18.41-97.78-11.72-144.05,6.5-45.01,16.3-90.04,13.92-135.45-1.28-24.65-6.97-50.65-24.4-68.13-6.26-6.26-13.73-11.1-21.46-15.35-4.34-2.39-17.3-6.13-18.34-11.75-3.08-16.68-14.43-20.74-20.06-21.73-1.57-.27-3.28.82-3.23,2.41.14,4.5-.86,14.25-9.71,26.72-.04.06-.14.14-.2.17-14.17,7.33-29.8,7.48-39.99,20.11-5.7,7.09-9.44,15.52-14.13,23.31-9.07,15.03-13.59,19.52-26.84,31.02-16.64,14.44-40.95,33.49-39.3,57.57,0,.04.02.12.03.16,5.66,16.18,17.58,15.03,27.52,11.95,11.6-3.6,22.26-9.56,33.54-13.97,11.55-4.52,23.55-5.75,35.67-7.94,15.03-2.72,46.7-27.86,48.04-27.1s-16.2,42.33-28.18,60.14c-15.83,23.53-37.1,42.68-54.53,64.94-33.23,42.43-48.08,94.51-55.96,147.08"/><path class="cls-2" d="m382.7913206,236.432869c-2.9,43.29-10.24,86.1-16.56,128.76-6.48,43.7-10.39,93.96,10.14,134.74"/><circle class="cls-2" cx="285.0413206" cy="163.432869" r="3"/><path class="cls-5" d="m425.0013206,499.932869c9.35,0,17,7.65,17,17s-7.65,17-17,17h-250c-9.35,0-17-7.65-17-17,0-9,9.77-15.91,17-17,1.61-.24,1.83-.01,19.46,0h230.54Z"/><path class="cls-5" d="m376.3713206,499.932869h-181.83c7.88-52.57,22.73-104.65,55.96-147.08,17.43-22.26,38.7-41.41,54.53-64.94,11.98-17.81,29.52-59.38,28.18-60.14s-33.01,24.38-48.04,27.1c-12.12,2.19-24.12,3.42-35.67,7.94-11.28,4.41-21.94,10.37-33.54,13.97-9.94,3.08-21.86,4.23-27.52-11.95-.01-.04-.03-.12-.03-.16-1.65-24.08,22.66-43.13,39.3-57.57,13.25-11.5,17.77-15.99,26.84-31.02,4.69-7.79,8.43-16.22,14.13-23.31,10.19-12.63,25.82-12.78,39.99-20.11.06-.03.16-.11.2-.17,8.85-12.47,9.85-22.22,9.71-26.72-.05-1.59,1.66-2.68,3.23-2.41,5.63.99,16.98,5.05,20.06,21.73,1.04,5.62,14,9.36,18.34,11.75,7.73,4.25,15.2,9.09,21.46,15.35,17.43,17.48,23.12,43.48,24.4,68.13,2.38,45.41-7.42,90.44-13.92,135.45-6.69,46.27-12.79,102.11,11.72,144.05v.11h-27.5Zm-88.33-336.5c0-1.66-1.34-3-3-3s-3,1.34-3,3,1.34,3,3,3,3-1.34,3-3Z"/><path class="cls-5" d="m403.8713206,499.932869h21.13c9.35,0,17,7.65,17,17s-7.65,17-17,17h-250c-9.35,0-17-7.65-17-17,0-9,9.77-15.91,17-17,1.61-.24,1.83-.01,19.46,0h209.41Z"/><path class="cls-5" d="m403.8713206,499.822869c-24.51-41.94-18.41-97.78-11.72-144.05,6.5-45.01,16.3-90.04,13.92-135.45-1.28-24.65-6.97-50.65-24.4-68.13-6.26-6.26-13.73-11.1-21.46-15.35-4.34-2.39-17.3-6.13-18.34-11.75-3.08-16.68-14.43-20.74-20.06-21.73-1.57-.27-3.28.82-3.23,2.41.14,4.5-.86,14.25-9.71,26.72-.04.06-.14.14-.2.17-14.17,7.33-29.8,7.48-39.99,20.11-5.7,7.09-9.44,15.52-14.13,23.31-9.07,15.03-13.59,19.52-26.84,31.02-16.64,14.44-40.95,33.49-39.3,57.57,0,.04.02.12.03.16,5.66,16.18,17.58,15.03,27.52,11.95,11.6-3.6,22.26-9.56,33.54-13.97,11.55-4.52,23.55-5.75,35.67-7.94,15.03-2.72,46.7-27.86,48.04-27.1s-16.2,42.33-28.18,60.14c-15.83,23.53-37.1,42.68-54.53,64.94-33.23,42.43-48.08,94.51-55.96,147.08"/><path class="cls-5" d="m382.7913206,236.432869c-2.9,43.29-10.24,86.1-16.56,128.76-6.48,43.7-10.39,93.96,10.14,134.74"/><circle class="cls-5" cx="285.0413206" cy="163.432869" r="3"/><path class="cls-3" d="m425.0013206,499.932869c9.35,0,17,7.65,17,17s-7.65,17-17,17h-250c-9.35,0-17-7.65-17-17,0-9,9.77-15.91,17-17,1.61-.24,1.83-.01,19.46,0h230.54Z"/><path class="cls-3" d="m376.3713206,499.932869h-181.83c7.88-52.57,22.73-104.65,55.96-147.08,17.43-22.26,38.7-41.41,54.53-64.94,11.98-17.81,29.52-59.38,28.18-60.14s-33.01,24.38-48.04,27.1c-12.12,2.19-24.12,3.42-35.67,7.94-11.28,4.41-21.94,10.37-33.54,13.97-9.94,3.08-21.86,4.23-27.52-11.95-.01-.04-.03-.12-.03-.16-1.65-24.08,22.66-43.13,39.3-57.57,13.25-11.5,17.77-15.99,26.84-31.02,4.69-7.79,8.43-16.22,14.13-23.31,10.19-12.63,25.82-12.78,39.99-20.11.06-.03.16-.11.2-.17,8.85-12.47,9.85-22.22,9.71-26.72-.05-1.59,1.66-2.68,3.23-2.41,5.63.99,16.98,5.05,20.06,21.73,1.04,5.62,14,9.36,18.34,11.75,7.73,4.25,15.2,9.09,21.46,15.35,17.43,17.48,23.12,43.48,24.4,68.13,2.38,45.41-7.42,90.44-13.92,135.45-6.69,46.27-12.79,102.11,11.72,144.05v.11h-27.5Zm-88.33-336.5c0-1.66-1.34-3-3-3s-3,1.34-3,3,1.34,3,3,3,3-1.34,3-3Z"/><path class="cls-3" d="m403.8713206,499.932869h21.13c9.35,0,17,7.65,17,17s-7.65,17-17,17h-250c-9.35,0-17-7.65-17-17,0-9,9.77-15.91,17-17,1.61-.24,1.83-.01,19.46,0h209.41Z"/><path class="cls-3" d="m403.8713206,499.822869c-24.51-41.94-18.41-97.78-11.72-144.05,6.5-45.01,16.3-90.04,13.92-135.45-1.28-24.65-6.97-50.65-24.4-68.13-6.26-6.26-13.73-11.1-21.46-15.35-4.34-2.39-17.3-6.13-18.34-11.75-3.08-16.68-14.43-20.74-20.06-21.73-1.57-.27-3.28.82-3.23,2.41.14,4.5-.86,14.25-9.71,26.72-.04.06-.14.14-.2.17-14.17,7.33-29.8,7.48-39.99,20.11-5.7,7.09-9.44,15.52-14.13,23.31-9.07,15.03-13.59,19.52-26.84,31.02-16.64,14.44-40.95,33.49-39.3,57.57,0,.04.02.12.03.16,5.66,16.18,17.58,15.03,27.52,11.95,11.6-3.6,22.26-9.56,33.54-13.97,11.55-4.52,23.55-5.75,35.67-7.94,15.03-2.72,46.7-27.86,48.04-27.1s-16.2,42.33-28.18,60.14c-15.83,23.53-37.1,42.68-54.53,64.94-33.23,42.43-48.08,94.51-55.96,147.08"/><path class="cls-3" d="m382.7913206,236.432869c-2.9,43.29-10.24,86.1-16.56,128.76-6.48,43.7-10.39,93.96,10.14,134.74"/><circle class="cls-3" cx="285.0413206" cy="163.432869" r="3"/><path class="cls-1" d="m425.0013206,499.932869c9.35,0,17,7.65,17,17s-7.65,17-17,17h-250c-9.35,0-17-7.65-17-17,0-9,9.77-15.91,17-17,1.61-.24,1.83-.01,19.46,0h230.54Z"/><path class="cls-1" d="m376.3713206,499.932869h-181.83c7.88-52.57,22.73-104.65,55.96-147.08,17.43-22.26,38.7-41.41,54.53-64.94,11.98-17.81,29.52-59.38,28.18-60.14s-33.01,24.38-48.04,27.1c-12.12,2.19-24.12,3.42-35.67,7.94-11.28,4.41-21.94,10.37-33.54,13.97-9.94,3.08-21.86,4.23-27.52-11.95-.01-.04-.03-.12-.03-.16-1.65-24.08,22.66-43.13,39.3-57.57,13.25-11.5,17.77-15.99,26.84-31.02,4.69-7.79,8.43-16.22,14.13-23.31,10.19-12.63,25.82-12.78,39.99-20.11.06-.03.16-.11.2-.17,8.85-12.47,9.85-22.22,9.71-26.72-.05-1.59,1.66-2.68,3.23-2.41,5.63.99,16.98,5.05,20.06,21.73,1.04,5.62,14,9.36,18.34,11.75,7.73,4.25,15.2,9.09,21.46,15.35,17.43,17.48,23.12,43.48,24.4,68.13,2.38,45.41-7.42,90.44-13.92,135.45-6.69,46.27-12.79,102.11,11.72,144.05v.11h-27.5Zm-88.33-336.5c0-1.66-1.34-3-3-3s-3,1.34-3,3,1.34,3,3,3,3-1.34,3-3Z"/><path class="cls-1" d="m403.8713206,499.932869h21.13c9.35,0,17,7.65,17,17s-7.65,17-17,17h-250c-9.35,0-17-7.65-17-17,0-9,9.77-15.91,17-17,1.61-.24,1.83-.01,19.46,0h209.41Z"/><path class="cls-1" d="m403.8713206,499.822869c-24.51-41.94-18.41-97.78-11.72-144.05,6.5-45.01,16.3-90.04,13.92-135.45-1.28-24.65-6.97-50.65-24.4-68.13-6.26-6.26-13.73-11.1-21.46-15.35-4.34-2.39-17.3-6.13-18.34-11.75-3.08-16.68-14.43-20.74-20.06-21.73-1.57-.27-3.28.82-3.23,2.41.14,4.5-.86,14.25-9.71,26.72-.04.06-.14.14-.2.17-14.17,7.33-29.8,7.48-39.99,20.11-5.7,7.09-9.44,15.52-14.13,23.31-9.07,15.03-13.59,19.52-26.84,31.02-16.64,14.44-40.95,33.49-39.3,57.57,0,.04.02.12.03.16,5.66,16.18,17.58,15.03,27.52,11.95,11.6-3.6,22.26-9.56,33.54-13.97,11.55-4.52,23.55-5.75,35.67-7.94,15.03-2.72,46.7-27.86,48.04-27.1s-16.2,42.33-28.18,60.14c-15.83,23.53-37.1,42.68-54.53,64.94-33.23,42.43-48.08,94.51-55.96,147.08"/><path class="cls-1" d="m382.7913206,236.432869c-2.9,43.29-10.24,86.1-16.56,128.76-6.48,43.7-10.39,93.96,10.14,134.74"/><circle class="cls-1" cx="285.0413206" cy="163.432869" r="3"/><rect class="cls-4" width="600" height="600"/></g></svg>