<?xml version="1.0" encoding="utf-8"?>
<!-- Generator: Adobe Illustrator 19.0.0, SVG Export Plug-In . SVG Version: 6.00 Build 0)  -->
<svg version="1.1" xmlns="http://www.w3.org/2000/svg" xmlns:xlink="http://www.w3.org/1999/xlink" x="0px" y="0px"
	 viewBox="0 0 600 600" style="enable-background:new 0 0 600 600;" xml:space="preserve">
<style type="text/css">
	.st0{display:none;}
	.st1{display:inline;}
	.st2{fill:#7F7F7F;}
	.st3{fill:#040303;}
	.st4{fill:#7E3044;}
	.st5{fill:#2E0F1F;}
	.st6{fill:#2D0F1F;}
	.st7{fill:#2E1020;}
	.st8{fill:#080909;}
	.st9{fill:#060808;}
	.st10{fill:#FFFFFF;}
	.st11{fill:#8FCEBB;}
	.st12{fill:#E3FCF6;}
	.st13{fill:#FEFEFE;}
	.st14{fill:#8FCDBA;}
	.st15{fill:#E2FBF5;}
	.st16{fill:#8FCDBB;}
	.st17{fill:#90CEBB;}
	.st18{fill:#8ED0BC;}
	.st19{fill:#A4DACA;}
</style>
<g id="Guideline" class="st0">
</g>
<g id="bK" class="st0">
	<g id="XMLID_3_" class="st1">
		<g id="XMLID_94_">
			<path id="XMLID_118_" class="st2" d="M325.5,46c-0.2,0.3-0.2,0.6,0.1,0.9c-16.4,0-32.8-0.1-49.2-0.1c0.1-0.3,0.1-0.6,0.1-0.8
				C292.9,46,309.2,46,325.5,46z"/>
			<path id="XMLID_115_" class="st3" d="M276.4,46.9c16.4,0,32.8,0.1,49.2,0.1c6.9,1.6,9.3,4.6,9.4,12.5c0.1,6.2,0,12.3,0,18.5
				c0,1.8,0,3.7,0,6.1c6.9,0,13.7,0,20.4,0c13.3,0,16.2,2.9,16.2,16c0,12.8,0,25.7,0,38.5c0,9.5-3.9,13.4-13.3,13.5
				c-7.3,0-14.7,0-22,0.1c-0.1,0-0.3,0.1-0.7,0.3c0,3.1,0,6.3,0,9.3c7,3.8,14.3,7.2,20.9,11.5c6.6,4.4,12.6,9.8,18.8,14.7
				c3.9-2.4,8.2-5.6,12.9-7.9c9.8-4.7,20.1-5.3,30.6-2c2.1,0.6,4.6,0.6,6.7,0.2c33.1-6.6,62.6,1.1,87.5,23.7
				c17.7,16.2,23.8,37.4,20.7,60.8c-4.3,32.9-20.4,60.1-42.6,84c-10.4,11.2-20.5,22.7-28,36.3c-8,14.6-12.2,30.1-11.9,46.8
				c0.2,15.8,0.1,31.6,0.1,47.3c6.7,0.9,13.1,1.4,19.4,2.8c17.5,3.9,29,22.6,25.4,40.1c-3.5,17-13.7,26.8-30.6,30
				c-1.3,0-2.7-0.1-4-0.1c-106.9,0-213.7,0-320.6,0c-1.5,0-3,0.1-4.5,0.1c-11.2-1.8-20.3-6.9-26.6-16.7
				c-12.6-19.6-2.6-47.9,20.8-53.5c5.9-1.4,12.1-1.8,18.6-2.7c0-0.1,0.2-0.8,0.2-1.6c0-17,0-34,0.1-51c0.1-19.1-6.9-35.9-17.7-51
				c-8.4-11.7-18.3-22.4-27.7-33.4c-18-21-30.5-44.5-36.1-71.8c-5.7-28.4,4.3-60.7,35-78.2c23-13.1,47.3-18.1,73.5-11.7
				c1.4,0.3,3.1,0.5,4.4,0c16.6-5.7,31.1-1.6,44.5,9.6c11.6-12,25.2-20.9,41-26.5c0-2.9,0-5.7,0-9.1c-5.8,0-11.6,0-17.3,0
				c-2.7,0-5.3,0.2-8-0.1c-7.4-0.8-10.6-4.3-10.8-11.7c-0.1-5.2,0-10.3,0-15.5c0-9.2,0-18.3,0-27.5c0-9.7,3.9-13.5,13.7-13.5
				c7.3,0,14.6,0,22.6,0c0-7-0.1-13.7,0-20.5c0-2.6,0.2-5.3,0.6-7.9C268,50.5,271,47.4,276.4,46.9z M276.4,167.6
				c-9.6,4.9-19.4,8.6-27.8,14.3c-8.4,5.7-15.5,13.3-23.7,20.5c-1.3-1.4-2.9-3.5-4.8-5.4c-10.6-10.2-22.8-13.7-37.1-8.8
				c-2.2,0.8-4.9,0.5-7.3,0.2c-5.4-0.6-10.8-2-16.2-2.4c-18.8-1.2-36.2,3.7-52.3,13.4c-18,10.9-28.5,26.7-30.6,47.6
				c-1.3,12.6,1.8,24.7,5.7,36.7c7.4,22.9,21.5,41.4,37.2,59c8.2,9.2,16,18.7,22.8,28.9c10.9,16.3,17.3,34.3,17.2,54.3
				c-0.2,19-0.1,38-0.1,57c0,1.6-0.2,3.2-0.3,4.5c-8.3,0.5-15.9,0.7-23.5,1.4c-10.5,1-22.8,11.6-21.3,28.5
				c1.1,12.5,13.8,22.6,24.6,22.6c107.8-0.1,215.6-0.1,323.5-0.1c1.8,0,3.6-0.3,5.4-0.7c11.8-3,18.8-13.9,18.8-27.3
				c0-10.9-11.9-22.3-20.8-23c-6.3-0.5-12.6-0.6-18.9-0.9c-1.8-0.1-3.5-0.2-5.4-0.2c-0.1-1.9-0.2-3.2-0.2-4.5c0-18.7,0-37.3-0.1-56
				c-0.1-15.4,3.7-29.9,10.4-43.7c7.8-16.2,19.2-29.9,31.4-42.9c14.3-15.1,26.2-31.9,33.6-51.5c5.7-15,9.6-30.3,6.9-46.7
				c-2.5-15.4-9.8-27.9-22-37.3c-22.3-17.3-47.6-22.8-75.2-16.9c-3.6,0.8-6.8,0.8-10.2-0.4c-10.1-3.6-19.7-2.2-28.4,4
				c-4.7,3.3-9,7.3-12.9,10.5c-7.4-6.6-14.3-14-22.4-19.6c-8.2-5.7-17.7-9.6-26.7-14.4c0-8.3,0-17.2,0-26.5c12,0,23.6,0,35.3,0
				c0-16.1,0-31.8,0-48c-12.3,0-24.2,0-36.7,0c0-12.6,0-24.6,0-36.6c-16.2,0-31.8,0-48,0c0,12.4,0,24.5,0,37.1c-12.3,0-24,0-35.6,0
				c0,16.2,0,31.8,0,48c12.1,0,23.8,0,35.6,0C276.4,151.5,276.4,160,276.4,167.6z"/>
			<path id="XMLID_104_" class="st4" d="M276.4,167.6c0-7.7,0-16.1,0-25.2c-11.8,0-23.5,0-35.6,0c0-16.2,0-31.8,0-48
				c11.6,0,23.3,0,35.6,0c0-12.7,0-24.7,0-37.1c16.2,0,31.8,0,48,0c0,12,0,24,0,36.6c12.5,0,24.4,0,36.7,0c0,16.2,0,31.9,0,48
				c-11.7,0-23.3,0-35.3,0c0,9.3,0,18.2,0,26.5c9,4.8,18.4,8.7,26.7,14.4c8.1,5.6,15,13,22.4,19.6c3.9-3.2,8.2-7.2,12.9-10.5
				c8.7-6.1,18.3-7.6,28.4-4c3.4,1.2,6.6,1.2,10.2,0.4c27.6-5.9,52.9-0.4,75.2,16.9c12.2,9.4,19.4,22,22,37.3
				c2.7,16.4-1.2,31.7-6.9,46.7c-7.4,19.6-19.3,36.4-33.6,51.5c-12.3,13-23.6,26.7-31.4,42.9c-6.7,13.8-10.5,28.3-10.4,43.7
				c0.1,18.7,0.1,37.3,0.1,56c0,1.3,0.1,2.6,0.2,4.5c1.9,0.1,3.6,0.2,5.4,0.2c6.3,0.3,12.6,0.5,18.9,0.9c8.9,0.6,20.8,12.1,20.8,23
				c0,13.4-7.1,24.3-18.8,27.3c-1.7,0.5-3.6,0.7-5.4,0.7c-107.8,0-215.6,0-323.5,0.1c-10.8,0-23.5-10.1-24.6-22.6
				c-1.5-17,10.8-27.5,21.3-28.5c7.6-0.7,15.2-0.9,23.5-1.4c0.1-1.3,0.3-2.9,0.3-4.5c0-19,0-38,0.1-57c0.2-20-6.3-38-17.2-54.3
				c-6.8-10.2-14.6-19.8-22.8-28.9c-15.7-17.6-29.8-36.2-37.2-59c-3.9-11.9-7-24-5.7-36.7c2.1-21,12.6-36.7,30.6-47.6
				c16.1-9.8,33.4-14.6,52.3-13.4c5.4,0.3,10.8,1.7,16.2,2.4c2.4,0.3,5.1,0.5,7.3-0.2c14.3-4.9,26.5-1.4,37.1,8.8
				c1.9,1.8,3.6,3.9,4.8,5.4c8.2-7.2,15.3-14.8,23.7-20.5C257.1,176.2,266.8,172.5,276.4,167.6z M425.4,432.5
				c-83.6,0-166.5,0-249.5,0c0,18.7,0,36.9,0,55.5c2.5,0.3,4.8,0.9,7.1,0.9c78.4,0,156.9,0,235.3,0c2.4,0,4.8-0.7,7.1-1.1
				C425.4,469,425.4,450.9,425.4,432.5z M244.2,375.5c16.5,0,32.6,0,49,0c0-47.6,0-94.8,0-142.5c-1.9,0-3.5,0-5.1,0
				c-9.8,0-19.7,0.3-29.5-0.1c-7.2-0.3-14.5-1.4-21.6-2.7c-13.6-2.4-25.7-8.4-37.5-15.5c-5.6-3.4-11.4-6.8-17.9-7.8
				c-5.5,4.5-10.8,9-11.7,16c-0.7,5.4-0.8,11,0,16.4c2.8,18,12.2,32.7,23.7,46.3c7.9,9.4,15.7,18.9,23,28.7
				c12.5,16.7,19.4,36.1,25.8,55.7C243,371.9,243.6,373.7,244.2,375.5z M356.7,375.6c0.6-1.5,1.3-2.9,1.8-4.5
				c8.9-32.3,25.5-60.4,48.2-84.8c6.6-7.1,12.3-14.8,16.8-23.4c4.7-9.1,7.2-18.7,8.3-28.9c1.3-12.1-2.6-21.6-13.8-27.5
				c-5.3,2.7-11.5,5.1-17.1,8.6c-19.2,12-40.1,17.8-62.7,17.8c-7.8,0-15.7,0-23.5,0c-1.6,0-3.2,0.2-4.9,0.3c0,47.7,0,94.9,0,142.4
				C325.5,375.6,340.9,375.6,356.7,375.6z M437.2,375.7c0.5-0.5,1.1-0.9,1.5-1.4c0.7-1,1.2-2,1.8-3c6.7-12.5,15-23.9,24.7-34.2
				c11.7-12.3,22.8-25.1,30.8-40.2c7.4-14,12.9-28.7,12.7-45c-0.2-12.3-4.4-22.8-13-31.3c-9.9-9.7-22.2-14.8-35.6-17.7
				c-7-1.5-14-0.8-21.4-0.9c2.3,4.4,4.5,7.9,6,11.7c5.7,14.3,2.7,28.4-1.7,42.3c-5,15.8-14.6,28.9-25.2,41.4
				c-5.7,6.7-11.5,13.3-16.9,20.2c-9,11.5-15.3,24.5-20.8,37.9c-2.6,6.4-4.4,13.1-6.7,20.1C394.8,375.7,415.8,375.7,437.2,375.7z
				 M227.4,375.7c-0.1-1.4-0.1-2.6-0.4-3.6c-4.8-15.6-11.3-30.4-19.9-44.4c-8-12.9-18.2-24-27.9-35.6
				c-13.2-15.7-22.2-33.1-24.9-53.8c-1.6-12.3,0.1-23.4,7-33.6c0.4-0.6,0.7-1.3,1.1-2.2c-0.8-0.3-1.3-0.5-1.7-0.5
				c-16.4-1.3-31.6,2.4-45.6,11.2c-17.3,10.9-25,26.9-22.3,47c2.1,16.1,8.5,30.8,17.1,44.7c8.6,14,20.5,25.2,30.9,37.7
				c7.4,9,14.5,18.1,19.9,28.5c0.9,1.8,2.3,3.5,3.1,4.6C185.5,375.7,206.2,375.7,227.4,375.7z M471.3,510.8
				c-3.4-5.5-7.9-6.9-13.8-6.9c-105,0.1-209.9,0.1-314.9,0c-4.9,0-8.8,1.1-11.7,5.6c-0.4,1.6-0.8,3.5-1.1,4.8
				c1,6.7,4.6,9.7,10.5,10.1c2.1,0.1,4.3,0.6,6.4,0.6c29.7,0,59.3,0,89,0c74,0,148,0,221.9,0C467.8,524.9,472.1,520.5,471.3,510.8z
				 M175.8,416.7c83.3,0,166.2,0,249.6,0c1.8-8.3,3.6-16.6,5.4-25.1c-87.2,0-173.6,0-260.6,0C172.1,400.3,174,408.4,175.8,416.7z
				 M309.2,109.9c0-12.8,0-24.9,0-37.3c-5.7,0-10.9,0-16.7,0c0,12.6,0,24.9,0,37.7c-12.4,0-24.1,0-35.6,0c0,5.9,0,11.1,0,16.8
				c12.3,0,24.2,0,36.7,0c0,11.9,0,23.3,0,34.6c5.6,0,10.5,0,16.1,0c0-12,0-23.7,0-35.8c12.2,0,23.8,0,35.5,0c0-5.5,0-10.5,0-15.9
				C333.2,109.9,321.6,109.9,309.2,109.9z M362.3,214.2c-14.3-19.3-32.7-30.1-55.7-32c-30.9-2.6-56.3,12.9-67.5,32.2
				c17.9,4.6,36,1.9,54.6,2.7c0-10.4,0-20.1,0-29.8c5.2,0,9.8,0,15.1,0c0,10,0,19.7,0,29.9C326.7,216.1,344.2,219.1,362.3,214.2z"/>
			<path id="XMLID_103_" class="st5" d="M425.4,432.5c0,18.5,0,36.6,0,55.3c-2.4,0.4-4.7,1.1-7.1,1.1c-78.4,0.1-156.9,0.1-235.3,0
				c-2.3,0-4.5-0.6-7.1-0.9c0-18.6,0-36.8,0-55.5C258.8,432.5,341.8,432.5,425.4,432.5z"/>
			<path id="XMLID_102_" class="st6" d="M244.2,375.5c-0.6-1.8-1.1-3.6-1.7-5.5c-6.4-19.6-13.3-39-25.8-55.7
				c-7.3-9.8-15.1-19.3-23-28.7c-11.5-13.6-20.9-28.3-23.7-46.3c-0.8-5.4-0.8-11,0-16.4c0.9-7,6.1-11.5,11.7-16
				c6.6,1,12.3,4.4,17.9,7.8c11.7,7.1,23.9,13,37.5,15.5c7.1,1.3,14.4,2.3,21.6,2.7c9.8,0.5,19.6,0.1,29.5,0.1c1.6,0,3.3,0,5.1,0
				c0,47.7,0,94.9,0,142.5C276.7,375.5,260.7,375.5,244.2,375.5z"/>
			<path id="XMLID_101_" class="st6" d="M356.7,375.6c-15.8,0-31.2,0-46.9,0c0-47.5,0-94.7,0-142.4c1.7-0.1,3.3-0.2,4.9-0.3
				c7.8,0,15.7,0,23.5,0c22.6,0,43.5-5.8,62.7-17.8c5.6-3.5,11.7-6,17.1-8.6c11.2,5.9,15.2,15.4,13.8,27.5
				c-1.1,10.2-3.7,19.8-8.3,28.9c-4.4,8.6-10.2,16.3-16.8,23.4c-22.8,24.5-39.3,52.5-48.2,84.8C358.1,372.7,357.3,374.2,356.7,375.6
				z"/>
			<path id="XMLID_100_" class="st6" d="M437.2,375.7c-21.4,0-42.3,0-64,0c2.3-7,4.1-13.7,6.7-20.1c5.5-13.4,11.8-26.4,20.8-37.9
				c5.4-6.9,11.2-13.6,16.9-20.2c10.6-12.4,20.2-25.6,25.2-41.4c4.4-13.8,7.4-28,1.7-42.3c-1.5-3.8-3.7-7.3-6-11.7
				c7.4,0.1,14.4-0.6,21.4,0.9c13.4,2.9,25.7,7.9,35.6,17.7c8.6,8.5,12.9,19,13,31.3c0.2,16.3-5.2,31-12.7,45
				c-8,15.1-19.1,27.9-30.8,40.2c-9.7,10.2-18,21.7-24.7,34.2c-0.5,1-1.1,2.1-1.8,3C438.3,374.8,437.7,375.2,437.2,375.7z"/>
			<path id="XMLID_99_" class="st6" d="M227.4,375.7c-21.2,0-41.9,0-63.7,0c-0.8-1.2-2.2-2.8-3.1-4.6c-5.4-10.4-12.4-19.5-19.9-28.5
				c-10.4-12.5-22.3-23.7-30.9-37.7c-8.5-13.9-15-28.6-17.1-44.7c-2.6-20.1,5-36,22.3-47c13.9-8.8,29.1-12.5,45.6-11.2
				c0.5,0,0.9,0.3,1.7,0.5c-0.4,0.8-0.7,1.5-1.1,2.2c-7,10.3-8.6,21.4-7,33.6c2.7,20.7,11.7,38.1,24.9,53.8
				c9.7,11.5,19.9,22.6,27.9,35.6c8.6,13.9,15.1,28.8,19.9,44.4C227.3,373.1,227.3,374.3,227.4,375.7z"/>
			<path id="XMLID_98_" class="st7" d="M471.3,510.8c0.8,9.7-3.5,14.1-13.7,14.1c-74,0-148,0-221.9,0c-29.7,0-59.3,0-89,0
				c-2.1,0-4.3-0.4-6.4-0.6c-5.9-0.4-9.5-3.4-10.5-10.1c0.3-1.2,0.7-3.1,1.1-4.8c2.9-4.5,6.8-5.6,11.7-5.6
				c105,0.1,209.9,0.1,314.9,0C463.4,503.9,467.9,505.3,471.3,510.8z"/>
			<path id="XMLID_97_" class="st8" d="M175.8,416.7c-1.8-8.2-3.7-16.4-5.6-25.1c87,0,173.4,0,260.6,0c-1.8,8.5-3.6,16.8-5.4,25.1
				C342,416.7,259.1,416.7,175.8,416.7z"/>
			<path id="XMLID_96_" class="st9" d="M309.2,109.9c12.4,0,24,0,36,0c0,5.4,0,10.5,0,15.9c-11.7,0-23.3,0-35.5,0
				c0,12.1,0,23.8,0,35.8c-5.6,0-10.5,0-16.1,0c0-11.3,0-22.7,0-34.6c-12.5,0-24.4,0-36.7,0c0-5.8,0-11,0-16.8c11.6,0,23.3,0,35.6,0
				c0-12.8,0-25,0-37.7c5.8,0,11,0,16.7,0C309.2,85,309.2,97.1,309.2,109.9z"/>
			<path id="XMLID_95_" class="st5" d="M362.3,214.2c-18.1,4.9-35.6,1.9-53.6,3c0-10.2,0-19.9,0-29.9c-5.2,0-9.8,0-15.1,0
				c0,9.7,0,19.4,0,29.8c-18.6-0.8-36.7,1.9-54.6-2.7c11.2-19.3,36.6-34.7,67.5-32.2C329.6,184.1,348,194.9,362.3,214.2z"/>
		</g>
	</g>
</g>
<g id="wK" class="st0">
	<g id="XMLID_4_" class="st1">
		<g id="XMLID_5_">
			<path id="XMLID_55_" class="st10" d="M276.4,46.9c16.4,0,32.8,0.1,49.2,0.1c6.9,1.6,9.3,4.6,9.4,12.5c0.1,6.2,0,12.3,0,18.5
				c0,1.8,0,3.7,0,6.1c6.9,0,13.7,0,20.4,0c13.3,0,16.2,2.9,16.2,16c0,12.8,0,25.7,0,38.5c0,9.5-3.9,13.4-13.3,13.5
				c-7.3,0-14.7,0-22,0.1c-0.1,0-0.3,0.1-0.7,0.3c0,3.1,0,6.3,0,9.3c7,3.8,14.3,7.2,20.9,11.5c6.6,4.4,12.6,9.8,18.8,14.7
				c3.9-2.4,8.2-5.6,12.9-7.9c9.8-4.7,20.1-5.3,30.6-2c2.1,0.6,4.6,0.6,6.7,0.2c33.1-6.6,62.6,1.1,87.5,23.7
				c17.7,16.2,23.8,37.4,20.7,60.8c-4.3,32.9-20.4,60.1-42.6,84c-10.4,11.2-20.5,22.7-28,36.3c-8,14.6-12.2,30.1-11.9,46.8
				c0.2,15.8,0.1,31.6,0.1,47.3c6.7,0.9,13.1,1.4,19.4,2.8c17.5,3.9,29,22.6,25.4,40.1c-3.5,17-13.7,26.8-30.6,30
				c-1.3,0-2.7-0.1-4-0.1c-106.9,0-213.7,0-320.6,0c-1.5,0-3,0.1-4.5,0.1c-11.2-1.8-20.3-6.9-26.6-16.7
				c-12.6-19.6-2.6-47.9,20.8-53.5c5.9-1.4,12.1-1.8,18.6-2.7c0-0.1,0.2-0.8,0.2-1.6c0-17,0-34,0.1-51c0.1-19.1-6.9-35.9-17.7-51
				c-8.4-11.7-18.3-22.4-27.7-33.4c-18-21-30.5-44.5-36.1-71.8c-5.7-28.4,4.3-60.7,35-78.2c23-13.1,47.3-18.1,73.5-11.7
				c1.4,0.3,3.1,0.5,4.4,0c16.6-5.7,31.1-1.6,44.5,9.6c11.6-12,25.2-20.9,41-26.5c0-2.9,0-5.7,0-9.1c-5.8,0-11.6,0-17.3,0
				c-2.7,0-5.3,0.2-8-0.1c-7.4-0.8-10.6-4.3-10.8-11.7c-0.1-5.2,0-10.3,0-15.5c0-9.2,0-18.3,0-27.5c0-9.7,3.9-13.5,13.7-13.5
				c7.3,0,14.6,0,22.6,0c0-7-0.1-13.7,0-20.5c0-2.6,0.2-5.3,0.6-7.9C268,50.5,271,47.4,276.4,46.9z M276.4,167.6
				c-9.6,4.9-19.4,8.6-27.8,14.3c-8.4,5.7-15.5,13.3-23.7,20.5c-1.3-1.4-2.9-3.5-4.8-5.4c-10.6-10.2-22.8-13.7-37.1-8.8
				c-2.2,0.8-4.9,0.5-7.3,0.2c-5.4-0.6-10.8-2-16.2-2.4c-18.8-1.2-36.2,3.7-52.3,13.4c-18,10.9-28.5,26.7-30.6,47.6
				c-1.3,12.6,1.8,24.7,5.7,36.7c7.4,22.9,21.5,41.4,37.2,59c8.2,9.2,16,18.7,22.8,28.9c10.9,16.3,17.3,34.3,17.2,54.3
				c-0.2,19-0.1,38-0.1,57c0,1.6-0.2,3.2-0.3,4.5c-8.3,0.5-15.9,0.7-23.5,1.4c-10.5,1-22.8,11.6-21.3,28.5
				c1.1,12.5,13.8,22.6,24.6,22.6c107.8-0.1,215.6-0.1,323.5-0.1c1.8,0,3.6-0.3,5.4-0.7c11.8-3,18.8-13.9,18.8-27.3
				c0-10.9-11.9-22.3-20.8-23c-6.3-0.5-12.6-0.6-18.9-0.9c-1.8-0.1-3.5-0.2-5.4-0.2c-0.1-1.9-0.2-3.2-0.2-4.5c0-18.7,0-37.3-0.1-56
				c-0.1-15.4,3.7-29.9,10.4-43.7c7.8-16.2,19.2-29.9,31.4-42.9c14.3-15.1,26.2-31.9,33.6-51.5c5.7-15,9.6-30.3,6.9-46.7
				c-2.5-15.4-9.8-27.9-22-37.3c-22.3-17.3-47.6-22.8-75.2-16.9c-3.6,0.8-6.8,0.8-10.2-0.4c-10.1-3.6-19.7-2.2-28.4,4
				c-4.7,3.3-9,7.3-12.9,10.5c-7.4-6.6-14.3-14-22.4-19.6c-8.2-5.7-17.7-9.6-26.7-14.4c0-8.3,0-17.2,0-26.5c12,0,23.6,0,35.3,0
				c0-16.1,0-31.8,0-48c-12.3,0-24.2,0-36.7,0c0-12.6,0-24.6,0-36.6c-16.2,0-31.8,0-48,0c0,12.4,0,24.5,0,37.1c-12.3,0-24,0-35.6,0
				c0,16.2,0,31.8,0,48c12.1,0,23.8,0,35.6,0C276.4,151.5,276.4,160,276.4,167.6z"/>
			<path id="XMLID_15_" class="st11" d="M276.4,167.6c0-7.7,0-16.1,0-25.2c-11.8,0-23.5,0-35.6,0c0-16.2,0-31.8,0-48
				c11.6,0,23.3,0,35.6,0c0-12.7,0-24.7,0-37.1c16.2,0,31.8,0,48,0c0,12,0,24,0,36.6c12.5,0,24.4,0,36.7,0c0,16.2,0,31.9,0,48
				c-11.7,0-23.3,0-35.3,0c0,9.3,0,18.2,0,26.5c9,4.8,18.4,8.7,26.7,14.4c8.1,5.6,15,13,22.4,19.6c3.9-3.2,8.2-7.2,12.9-10.5
				c8.7-6.1,18.3-7.6,28.4-4c3.4,1.2,6.6,1.2,10.2,0.4c27.6-5.9,52.9-0.4,75.2,16.9c12.2,9.4,19.4,22,22,37.3
				c2.7,16.4-1.2,31.7-6.9,46.7c-7.4,19.6-19.3,36.4-33.6,51.5c-12.3,13-23.6,26.7-31.4,42.9c-6.7,13.8-10.5,28.3-10.4,43.7
				c0.1,18.7,0.1,37.3,0.1,56c0,1.3,0.1,2.6,0.2,4.5c1.9,0.1,3.6,0.2,5.4,0.2c6.3,0.3,12.6,0.5,18.9,0.9c8.9,0.6,20.8,12.1,20.8,23
				c0,13.4-7.1,24.3-18.8,27.3c-1.7,0.5-3.6,0.7-5.4,0.7c-107.8,0-215.6,0-323.5,0.1c-10.8,0-23.5-10.1-24.6-22.6
				c-1.5-17,10.8-27.5,21.3-28.5c7.6-0.7,15.2-0.9,23.5-1.4c0.1-1.3,0.3-2.9,0.3-4.5c0-19,0-38,0.1-57c0.2-20-6.3-38-17.2-54.3
				c-6.8-10.2-14.6-19.8-22.8-28.9c-15.7-17.6-29.8-36.2-37.2-59c-3.9-11.9-7-24-5.7-36.7c2.1-21,12.6-36.7,30.6-47.6
				c16.1-9.8,33.4-14.6,52.3-13.4c5.4,0.3,10.8,1.7,16.2,2.4c2.4,0.3,5.1,0.5,7.3-0.2c14.3-4.9,26.5-1.4,37.1,8.8
				c1.9,1.8,3.6,3.9,4.8,5.4c8.2-7.2,15.3-14.8,23.7-20.5C257.1,176.2,266.8,172.5,276.4,167.6z M425.4,432.5
				c-83.6,0-166.5,0-249.5,0c0,18.7,0,36.9,0,55.5c2.5,0.3,4.8,0.9,7.1,0.9c78.4,0,156.9,0,235.3,0c2.4,0,4.8-0.7,7.1-1.1
				C425.4,469,425.4,450.9,425.4,432.5z M244.2,375.5c16.5,0,32.6,0,49,0c0-47.6,0-94.8,0-142.5c-1.9,0-3.5,0-5.1,0
				c-9.8,0-19.7,0.3-29.5-0.1c-7.2-0.3-14.5-1.4-21.6-2.7c-13.6-2.4-25.7-8.4-37.5-15.5c-5.6-3.4-11.4-6.8-17.9-7.8
				c-5.5,4.5-10.8,9-11.7,16c-0.7,5.4-0.8,11,0,16.4c2.8,18,12.2,32.7,23.7,46.3c7.9,9.4,15.7,18.9,23,28.7
				c12.5,16.7,19.4,36.1,25.8,55.7C243,371.9,243.6,373.7,244.2,375.5z M356.7,375.6c0.6-1.5,1.3-2.9,1.8-4.5
				c8.9-32.3,25.5-60.4,48.2-84.8c6.6-7.1,12.3-14.8,16.8-23.4c4.7-9.1,7.2-18.7,8.3-28.9c1.3-12.1-2.6-21.6-13.8-27.5
				c-5.3,2.7-11.5,5.1-17.1,8.6c-19.2,12-40.1,17.8-62.7,17.8c-7.8,0-15.7,0-23.5,0c-1.6,0-3.2,0.2-4.9,0.3c0,47.7,0,94.9,0,142.4
				C325.5,375.6,340.9,375.6,356.7,375.6z M437.2,375.7c0.5-0.5,1.1-0.9,1.5-1.4c0.7-1,1.2-2,1.8-3c6.7-12.5,15-23.9,24.7-34.2
				c11.7-12.3,22.8-25.1,30.8-40.2c7.4-14,12.9-28.7,12.7-45c-0.2-12.3-4.4-22.8-13-31.3c-9.9-9.7-22.2-14.8-35.6-17.7
				c-7-1.5-14-0.8-21.4-0.9c2.3,4.4,4.5,7.9,6,11.7c5.7,14.3,2.7,28.4-1.7,42.3c-5,15.8-14.6,28.9-25.2,41.4
				c-5.7,6.7-11.5,13.3-16.9,20.2c-9,11.5-15.3,24.5-20.8,37.9c-2.6,6.4-4.4,13.1-6.7,20.1C394.8,375.7,415.8,375.7,437.2,375.7z
				 M227.4,375.7c-0.1-1.4-0.1-2.6-0.4-3.6c-4.8-15.6-11.3-30.4-19.9-44.4c-8-12.9-18.2-24-27.9-35.6
				c-13.2-15.7-22.2-33.1-24.9-53.8c-1.6-12.3,0.1-23.4,7-33.6c0.4-0.6,0.7-1.3,1.1-2.2c-0.8-0.3-1.3-0.5-1.7-0.5
				c-16.4-1.3-31.6,2.4-45.6,11.2c-17.3,10.9-25,26.9-22.3,47c2.1,16.1,8.5,30.8,17.1,44.7c8.6,14,20.5,25.2,30.9,37.7
				c7.4,9,14.5,18.1,19.9,28.5c0.9,1.8,2.3,3.5,3.1,4.6C185.5,375.7,206.2,375.7,227.4,375.7z M471.3,510.8
				c-3.4-5.5-7.9-6.9-13.8-6.9c-105,0.1-209.9,0.1-314.9,0c-4.9,0-8.8,1.1-11.7,5.6c-0.4,1.6-0.8,3.5-1.1,4.8
				c1,6.7,4.6,9.7,10.5,10.1c2.1,0.1,4.3,0.6,6.4,0.6c29.7,0,59.3,0,89,0c74,0,148,0,221.9,0C467.8,524.9,472.1,520.5,471.3,510.8z
				 M175.8,416.7c83.3,0,166.2,0,249.6,0c1.8-8.3,3.6-16.6,5.4-25.1c-87.2,0-173.6,0-260.6,0C172.1,400.3,174,408.4,175.8,416.7z
				 M309.2,109.9c0-12.8,0-24.9,0-37.3c-5.7,0-10.9,0-16.7,0c0,12.6,0,24.9,0,37.7c-12.4,0-24.1,0-35.6,0c0,5.9,0,11.1,0,16.8
				c12.3,0,24.2,0,36.7,0c0,11.9,0,23.3,0,34.6c5.6,0,10.5,0,16.1,0c0-12,0-23.7,0-35.8c12.2,0,23.8,0,35.5,0c0-5.5,0-10.5,0-15.9
				C333.2,109.9,321.6,109.9,309.2,109.9z M362.3,214.2c-14.3-19.3-32.7-30.1-55.7-32c-30.9-2.6-56.3,12.9-67.5,32.2
				c17.9,4.6,36,1.9,54.6,2.7c0-10.4,0-20.1,0-29.8c5.2,0,9.8,0,15.1,0c0,10,0,19.7,0,29.9C326.7,216.1,344.2,219.1,362.3,214.2z"/>
			<path id="XMLID_14_" class="st12" d="M425.4,432.5c0,18.5,0,36.6,0,55.3c-2.4,0.4-4.7,1.1-7.1,1.1c-78.4,0.1-156.9,0.1-235.3,0
				c-2.3,0-4.5-0.6-7.1-0.9c0-18.6,0-36.8,0-55.5C258.8,432.5,341.8,432.5,425.4,432.5z"/>
			<path id="XMLID_13_" class="st12" d="M244.2,375.5c-0.6-1.8-1.1-3.6-1.7-5.5c-6.4-19.6-13.3-39-25.8-55.7
				c-7.3-9.8-15.1-19.3-23-28.7c-11.5-13.6-20.9-28.3-23.7-46.3c-0.8-5.4-0.8-11,0-16.4c0.9-7,6.1-11.5,11.7-16
				c6.6,1,12.3,4.4,17.9,7.8c11.7,7.1,23.9,13,37.5,15.5c7.1,1.3,14.4,2.3,21.6,2.7c9.8,0.5,19.6,0.1,29.5,0.1c1.6,0,3.3,0,5.1,0
				c0,47.7,0,94.9,0,142.5C276.7,375.5,260.7,375.5,244.2,375.5z"/>
			<path id="XMLID_12_" class="st12" d="M356.7,375.6c-15.8,0-31.2,0-46.9,0c0-47.5,0-94.7,0-142.4c1.7-0.1,3.3-0.2,4.9-0.3
				c7.8,0,15.7,0,23.5,0c22.6,0,43.5-5.8,62.7-17.8c5.6-3.5,11.7-6,17.1-8.6c11.2,5.9,15.2,15.4,13.8,27.5
				c-1.1,10.2-3.7,19.8-8.3,28.9c-4.4,8.6-10.2,16.3-16.8,23.4c-22.8,24.5-39.3,52.5-48.2,84.8C358.1,372.7,357.3,374.2,356.7,375.6
				z"/>
			<path id="XMLID_11_" class="st12" d="M437.2,375.7c-21.4,0-42.3,0-64,0c2.3-7,4.1-13.7,6.7-20.1c5.5-13.4,11.8-26.4,20.8-37.9
				c5.4-6.9,11.2-13.6,16.9-20.2c10.6-12.4,20.2-25.6,25.2-41.4c4.4-13.8,7.4-28,1.7-42.3c-1.5-3.8-3.7-7.3-6-11.7
				c7.4,0.1,14.4-0.6,21.4,0.9c13.4,2.9,25.7,7.9,35.6,17.7c8.6,8.5,12.9,19,13,31.3c0.2,16.3-5.2,31-12.7,45
				c-8,15.1-19.1,27.9-30.8,40.2c-9.7,10.2-18,21.7-24.7,34.2c-0.5,1-1.1,2.1-1.8,3C438.3,374.8,437.7,375.2,437.2,375.7z"/>
			<path id="XMLID_10_" class="st12" d="M227.4,375.7c-21.2,0-41.9,0-63.7,0c-0.8-1.2-2.2-2.8-3.1-4.6
				c-5.4-10.4-12.4-19.5-19.9-28.5c-10.4-12.5-22.3-23.7-30.9-37.7c-8.5-13.9-15-28.6-17.1-44.7c-2.6-20.1,5-36,22.3-47
				c13.9-8.8,29.1-12.5,45.6-11.2c0.5,0,0.9,0.3,1.7,0.5c-0.4,0.8-0.7,1.5-1.1,2.2c-7,10.3-8.6,21.4-7,33.6
				c2.7,20.7,11.7,38.1,24.9,53.8c9.7,11.5,19.9,22.6,27.9,35.6c8.6,13.9,15.1,28.8,19.9,44.4C227.3,373.1,227.3,374.3,227.4,375.7z
				"/>
			<path id="XMLID_9_" class="st12" d="M471.3,510.8c0.8,9.7-3.5,14.1-13.7,14.1c-74,0-148,0-221.9,0c-29.7,0-59.3,0-89,0
				c-2.1,0-4.3-0.4-6.4-0.6c-5.9-0.4-9.5-3.4-10.5-10.1c0.3-1.2,0.7-3.1,1.1-4.8c2.9-4.5,6.8-5.6,11.7-5.6
				c105,0.1,209.9,0.1,314.9,0C463.4,503.9,467.9,505.3,471.3,510.8z"/>
			<path id="XMLID_8_" class="st10" d="M175.8,416.7c-1.8-8.2-3.7-16.4-5.6-25.1c87,0,173.4,0,260.6,0c-1.8,8.5-3.6,16.8-5.4,25.1
				C342,416.7,259.1,416.7,175.8,416.7z"/>
			<path id="XMLID_7_" class="st10" d="M309.2,109.9c12.4,0,24,0,36,0c0,5.4,0,10.5,0,15.9c-11.7,0-23.3,0-35.5,0
				c0,12.1,0,23.8,0,35.8c-5.6,0-10.5,0-16.1,0c0-11.3,0-22.7,0-34.6c-12.5,0-24.4,0-36.7,0c0-5.8,0-11,0-16.8c11.6,0,23.3,0,35.6,0
				c0-12.8,0-25,0-37.7c5.8,0,11,0,16.7,0C309.2,85,309.2,97.1,309.2,109.9z"/>
			<path id="XMLID_6_" class="st12" d="M362.3,214.2c-18.1,4.9-35.6,1.9-53.6,3c0-10.2,0-19.9,0-29.9c-5.2,0-9.8,0-15.1,0
				c0,9.7,0,19.4,0,29.8c-18.6-0.8-36.7,1.9-54.6-2.7c11.2-19.3,36.6-34.7,67.5-32.2C329.6,184.1,348,194.9,362.3,214.2z"/>
		</g>
	</g>
</g>
<g id="bQ" class="st0">
	<g id="XMLID_59_" class="st1">
		<g id="XMLID_159_">
			<path id="XMLID_223_" d="M560.9,100.6c-5.5-27-35.1-33.3-54-21.8c-15,9.2-19.4,28-12.8,45.5c0.7,1.8,0.4,4.6-0.6,6.1
				c-3.9,5.7-8.1,11.3-12.6,16.6c-18.2,21.3-36.4,42.6-54.9,63.6c-7,8-7.6,7.8-16.2,1.2c-20.7-15.7-43.6-26.5-69-32.1
				c-3.5-0.8-5.4-2.5-6.2-6.1c-4.4-19.4-8.7-38.7-13.4-58c-0.8-3.5-0.3-5.5,2.5-7.6c14.7-11.5,15.4-35.7,5.8-48.4
				c-7.6-10-17.6-14.4-30.3-14c-11.8,0.3-20.8,5.1-27.7,14.2c-9.5,12.7-8.8,36.8,6.3,48.8c1.4,1.1,2.6,3.5,2.5,5.3
				c-0.3,4.6-1.2,9.2-2.3,13.7c-3.8,15.8-7.8,31.5-11.6,47.3c-0.8,3.3-3,4.3-5.9,5c-27.1,6.4-51.7,18-73.1,35.9
				c-4.2,3.5-6.1,2.6-9.2-0.7c-10.7-11.8-21.9-23.2-32.1-35.4c-13.8-16.3-26.8-33.3-40.1-50c-0.8-1-1.1-3.2-0.5-4.3
				c2.6-5.8,3.1-11.7,3.2-18c0.2-22.1-19.8-38.1-44.3-32.8c-14.1,3-26.1,17.5-26.1,34.6c0.1,16.5,11.8,30.8,23.7,33.2
				c7.3,1.4,9.9,6.2,12.2,11.8c0.7,1.7,1.4,3.4,2.1,5.1c8.5,20.8,17.6,41.3,25.2,62.3c7.4,20.4,13.9,41.2,19.4,62.2
				c6.1,23.2,11.3,46.7,15.6,70.3c3.7,20.3,6,40.9,8.2,61.4c1.9,17.9,3,36,3.9,54c0.5,9.5,0.1,9.6-9.4,9.5
				c-9.6-0.2-17.6,2.8-24.8,9.5c-8.9,8.3-11.1,17.9-10.9,29.4c0.4,17.2,15.8,32.5,33,32.5h164c54.5,0,109,0.3,163.5,0.4
				c13.9,0,24.2-6.9,29.8-18.2c9.7-19.4,3.4-44.3-20.8-52.1c-4.3-1.4-9.2-1.2-13.8-1.3c-6.6-0.2-6.9,0-6.6-6.9
				c0.8-13.7,1.6-27.4,3-41.1c2-20.2,3.9-40.5,7.1-60.5c3.7-22.8,7.7-45.7,13.5-68.1c7.4-28.4,15.9-56.5,25.5-84.3
				c7.9-23,18.1-45.3,27.2-67.9c1.6-4,4.1-6,8.3-7.4C558,135.9,564.6,118.9,560.9,100.6z M551.2,114.7
				c-1.7,11.8-10.8,18.1-26.2,19.4C471.9,246,444.4,364,442,488.7c7.1,0,13.2,0.4,19.3-0.1c14.3-1.2,26.6,12,26.4,26.1
				c-0.2,12-8.9,23.5-19,25.3c-1.8,0.3-3.6,0.7-5.4,0.7c-108.6,0-217.3,0-325.9,0c-13,0-23.4-11.1-24.1-24.1
				c-0.8-14.7,8.3-25.2,19.5-27.3c6-1.1,12.3-0.4,18.4-0.5c2.1,0,4.3,0,7.1,0c0-10.6,0.2-20.9-0.1-31.1c-0.2-7.1-1-14.2-1.8-21.2
				c-2.2-21-4.4-42-6.9-62.9c-3.7-30.2-10.4-59.8-18-89.1c-8.8-34-19.8-67.2-33.2-99.6c-6.5-15.8-13.9-31.2-20.8-46.8
				c-1.3-3-2.9-4.2-6.3-4.2c-12.6,0-22.3-10.6-22.9-23.4c-0.7-14,7.7-23.2,18.4-26.2c8.9-2.5,21.6,1.4,26.4,7.9
				c6.8,9.2,7.7,22,1.6,30.8c-2.4,3.5-2.8,5.6,0.2,9.2c14.4,17.5,27.8,35.7,42.5,52.9c13.3,15.5,27.8,29.9,41.6,44.9
				c2.9,3.2,5,2.8,7.8,0.1c17.6-17.3,38.8-28.6,62-36.4c6.2-2.1,12.7-3.5,19.2-4.9c3.3-0.8,5.4-2.2,6.5-5.8
				c7-22.7,12.7-45.8,16.1-69.3c0.2-1.6,1.2-3.4,0.8-4.8c-0.5-2-1.4-4.7-2.9-5.4c-14.6-7-17.1-27.8-7.2-39.9c5.5-6.7,18.8-10,28-6.7
				c9.8,3.4,16,12.2,16.3,22.1c0.4,11-3.5,19.2-13.3,24.7c-1.5,0.8-2.8,3.8-2.5,5.6c4.1,24.7,9.3,49.3,17,73.2
				c1.2,3.8,3.2,5.7,7,6.3c22.7,3.9,43.3,13.1,62.3,26c7.8,5.3,14.9,11.5,22.4,17.4c33.3-31.4,62.5-66.9,89.8-104
				c-9-16.3-9.1-28.2-0.2-37.4c7.1-7.4,21-9.3,30.5-4.3C550.2,92.5,552.9,102.9,551.2,114.7z"/>
			<path id="XMLID_170_" class="st4" d="M538.6,86.4c-9.5-5-23.4-3.1-30.5,4.3c-8.9,9.2-8.9,21,0.2,37.4
				c-27.3,37.1-56.5,72.7-89.8,104c-7.6-5.9-14.7-12.1-22.4-17.4c-19-12.8-39.6-22-62.3-26c-3.8-0.7-5.8-2.5-7-6.3
				c-7.7-23.9-12.9-48.4-17-73.2c-0.3-1.7,1.1-4.7,2.5-5.6c9.8-5.5,13.7-13.7,13.3-24.7c-0.4-9.9-6.5-18.7-16.3-22.1
				c-9.2-3.2-22.5,0-28,6.7c-9.9,12.1-7.4,32.9,7.2,39.9c1.5,0.7,2.5,3.5,2.9,5.4c0.4,1.5-0.6,3.2-0.8,4.8
				c-3.4,23.6-9.1,46.6-16.1,69.3c-1.1,3.5-3.1,5-6.5,5.8c-6.4,1.5-12.9,2.8-19.2,4.9c-23.2,7.8-44.4,19.1-62,36.4
				c-2.8,2.7-4.8,3-7.8-0.1c-13.8-15.1-28.3-29.5-41.6-44.9c-14.7-17.2-28.2-35.4-42.5-52.9c-3-3.6-2.6-5.7-0.2-9.2
				c6.1-8.8,5.2-21.5-1.6-30.8c-4.8-6.5-17.5-10.3-26.4-7.9c-10.7,3-19,12.1-18.4,26.2c0.6,12.7,10.3,23.3,22.9,23.4
				c3.4,0,5,1.3,6.3,4.2c6.9,15.6,14.3,31,20.8,46.8c13.3,32.4,24.3,65.7,33.2,99.6c7.6,29.4,14.3,59,18,89.1
				c2.6,20.9,4.7,41.9,6.9,62.9c0.8,7.1,1.6,14.1,1.8,21.2c0.3,10.2,0.1,20.5,0.1,31.1c-2.8,0-4.9,0-7.1,0
				c-6.2,0.1-12.5-0.6-18.4,0.5c-11.1,2.1-20.3,12.6-19.5,27.3c0.7,13,11.1,24.1,24.1,24.1c108.6,0,217.3,0,325.9,0
				c1.8,0,3.6-0.3,5.4-0.7c10.1-1.8,18.9-13.3,19-25.3c0.2-14.1-12.1-27.3-26.4-26.1c-6.1,0.5-12.2,0.1-19.3,0.1
				C444.4,364,471.9,246,525,134.1c15.4-1.3,24.5-7.6,26.2-19.4C552.9,102.9,550.2,92.5,538.6,86.4z M73.4,116.8
				c-3.3-0.1-7.8-4.5-7.9-7.8c-0.1-3.5,4.6-8.2,8.1-8.2c3.6,0.1,8.1,4.9,7.9,8.3C81.2,112.5,76.7,116.8,73.4,116.8z M403.8,243.3
				c-6.6,4.8-12.4,9.5-20.3,10.6c-7.7,1.1-13.1-3.6-18.3-7.4c-12.9-9.7-19.9-23.7-27.3-38.8C363.3,214.3,384.7,226.1,403.8,243.3z
				 M300.3,72.8c3.5-0.1,8.2,4.6,8.1,8.1c-0.1,3.4-4.5,7.8-7.9,7.9c-3.5,0.1-8.2-4.6-8.1-8.1C292.5,77.3,297,72.9,300.3,72.8z
				 M263.5,207.8c-6.9,14.4-13.7,28.1-25.7,37.8c-11.8,9.6-19,14.3-35.4,2.7c-1.8-1.3-3.8-2.4-6.2-3.8
				C216,227.2,237,213.4,263.5,207.8z M455.6,504.8c3.1,0,6.3,0.3,9.3,1.1c4.2,1.1,6.2,4.7,6.3,8.7c0.1,4-2.1,7.5-6,8.9
				c-2.4,0.9-5.2,1.2-7.8,1.2c-52.3,0.1-104.6,0-156.9,0c-52.3,0-104.6,0-156.9,0c-8.4,0-14.2-4.2-14-10.1c0.2-6.1,5.6-9.9,14.2-9.9
				C247.7,504.7,351.6,504.7,455.6,504.8z M425.5,488H176c-0.2-1-0.5-1.9-0.6-3c-0.4-13.1-0.5-26.1-1.1-39.2
				c-0.5-9.7-1.7-19.3-2.3-29.1c-0.1-1.3,1.2-3.5,2.2-3.8c18.1-4.9,36.2-10.2,54.6-14c14.5-3,29.3-4.9,44-5.9
				c14.8-1,29.8-0.6,44.7-0.3c9.9,0.2,19.8,1.1,29.7,2c21.1,1.9,41.7,6.1,62,11.9c5.6,1.6,11,3.7,16.6,4.9c3.1,0.7,3.7,2.3,3.5,4.9
				c-0.7,9.6-1.5,19.1-2,28.7c-0.7,12.2-1.3,24.2-2,36.4C425.4,483.6,425.5,486,425.5,488z M170,395.9c-0.9-5.9-1.8-11.2-2.5-16.6
				c-0.5-3.1,0.4-5,3.9-6.3c23.3-8.3,47.2-13.9,71.5-18c11.5-2,23.3-2.3,35-3.2c7.3-0.5,14.5-0.9,21.8-1c22.9-0.2,45.6,1.2,68,6
				c20.8,4.5,41.3,10.1,62,15.1c3.2,0.8,4.2,2.6,3.7,5.7c-0.9,5.5-1.7,11-2.6,17.1C343.6,368.4,256.8,368.3,170,395.9z M481.5,192.8
				c-19.7,53-34.7,107.2-44,163c-12.8-3.6-24.6-7.5-36.6-10.1c-16.1-3.5-32.4-6.2-48.6-8.9c-23.7-4-47.7-3.8-71.5-2.8
				c-30.2,1.3-60,6.2-89.1,14.6c-7.9,2.3-15.8,4.7-23.7,7.2c-2.8,0.9-3.9,0.7-4.6-2.7c-5.8-27.5-11-55.3-18.3-82.5
				c-7-26-16.3-51.3-24.7-76.9c-0.2-0.5-0.4-1-0.5-1.5c0.3,0.4,0.6,0.7,0.9,1.1c1.1,1.2,2.3,2.3,3.3,3.4v0c1,1.1,2.4,2.3,3.5,3.4
				c2.3,2.3,4.6,4.6,6.7,7c18.7,20.7,37.1,41.7,61,56.8c19.6,12.5,37.2,9.2,53.9-5.7c17.6-15.6,28-36,36.1-57.5
				c5.7-15.1,9.6-30.9,14.3-46.3c0.1-0.4,0.5-0.8,1.2-1.8c2.3,8.1,4.5,15.7,6.7,23.2c7.3,25.3,17.2,49.5,33.6,70.2
				c8.8,11.1,19.3,20.6,34,23.7c10.6,2.3,20.2-0.5,29-5.8c20.5-12.5,36.9-29.7,52.8-47.3c8.2-9.1,16.5-18,25.5-27.9
				C481.9,191.1,481.8,192,481.5,192.8z M526.3,116.8c-3.6-0.1-8.1-5-7.9-8.4c0.3-3.4,4.9-7.7,8.1-7.6c3.4,0.1,7.8,4.5,7.9,7.9
				C534.5,112.2,529.8,116.9,526.3,116.8z"/>
			<path id="XMLID_169_" class="st6" d="M120.9,193.4c4.5,4.6,9.1,9.1,13.4,13.9c18.7,20.7,37.1,41.7,60.9,56.8
				c19.6,12.5,37.2,9.2,53.9-5.7c17.6-15.6,28-36,36.1-57.5c5.7-15.1,9.6-30.9,14.3-46.3c0.1-0.4,0.5-0.8,1.2-1.8
				c2.3,8.1,4.5,15.6,6.7,23.2c7.3,25.3,17.2,49.5,33.6,70.2c8.8,11.1,19.3,20.6,34,23.7c10.6,2.3,20.2-0.5,29-5.8
				c20.5-12.5,36.9-29.7,52.8-47.3c8.2-9.1,16.5-18,25.5-27.9c-0.4,2-0.5,2.9-0.8,3.7c-19.7,53-34.7,107.2-44,163
				c-12.8-3.6-24.6-7.5-36.6-10.1c-16.1-3.5-32.4-6.2-48.6-8.9c-23.7-4-47.7-3.8-71.5-2.8c-30.2,1.3-60,6.2-89.1,14.7
				c-7.9,2.3-15.8,4.7-23.7,7.2c-2.8,0.9-3.9,0.7-4.6-2.6c-5.9-27.5-11-55.3-18.3-82.5c-7-26-16.3-51.3-24.7-76.9
				C120.5,193.7,120.7,193.6,120.9,193.4z"/>
			<path id="XMLID_168_" class="st6" d="M425.5,488.6c-83.6,0-166.4,0-249.4,0c-0.2-1.2-0.5-2.2-0.6-3.3
				c-0.4-13.1-0.5-26.2-1.1-39.3c-0.5-9.7-1.7-19.4-2.3-29.1c-0.1-1.3,1.2-3.6,2.2-3.8c18.1-4.9,36.2-10.2,54.6-14.1
				c14.5-3,29.3-4.9,44.1-5.9c14.8-1,29.8-0.6,44.7-0.3c9.9,0.2,19.8,1.1,29.7,2c21.1,1.9,41.7,6.1,62.1,11.9
				c5.6,1.6,11,3.7,16.6,4.9c3.1,0.7,3.7,2.3,3.5,4.9c-0.7,9.6-1.4,19.1-2,28.7c-0.7,12.2-1.3,24.5-2,36.7
				C425.4,483.9,425.5,486,425.5,488.6z"/>
			<path id="XMLID_167_" class="st6" d="M300.5,524.7c-52.3,0-104.6,0-156.9,0c-8.4,0-14.2-4.2-14-10.1c0.2-6.2,5.6-9.9,14.2-9.9
				c104,0,207.9,0,311.9,0c3.1,0,6.3,0.3,9.3,1.1c4.2,1.2,6.2,4.7,6.3,8.7c0.1,4-2.1,7.5-6,9c-2.4,0.9-5.2,1.2-7.8,1.2
				C405.1,524.7,352.8,524.7,300.5,524.7z"/>
			<path id="XMLID_166_" d="M430.8,394.7c-87.2-26.3-174-26.4-260.8,1.2c-0.9-5.9-1.8-11.2-2.6-16.6c-0.4-3.1,0.4-5,3.9-6.2
				c23.3-8.3,47.2-13.9,71.5-18c11.5-2,23.3-2.3,35-3.2c7.3-0.5,14.6-0.9,21.8-1c22.9-0.2,45.7,1.2,68,6c20.8,4.5,41.3,10.1,62,15.1
				c3.2,0.8,4.2,2.6,3.7,5.7C432.5,383.1,431.7,388.7,430.8,394.7z"/>
			<path id="XMLID_165_" class="st6" d="M263.5,207.8c-6.9,14.4-13.7,28.1-25.7,37.8c-11.8,9.6-19,14.3-35.4,2.7
				c-1.8-1.3-3.8-2.4-6.2-3.8C216,227.2,237,213.4,263.5,207.8z"/>
			<path id="XMLID_164_" class="st6" d="M403.8,243.3c-6.6,4.8-12.4,9.5-20.3,10.6c-7.7,1.1-13.1-3.6-18.3-7.4
				c-12.9-9.7-19.9-23.7-27.3-38.8C363.3,214.3,384.7,226.1,403.8,243.3z"/>
			<path id="XMLID_163_" d="M300.3,72.8c3.5-0.1,8.2,4.6,8.1,8.1c-0.1,3.4-4.5,7.8-7.9,7.9c-3.5,0.1-8.2-4.6-8.1-8.1
				C292.5,77.3,297,72.9,300.3,72.8z"/>
			<path id="XMLID_162_" d="M73.4,116.8c-3.3-0.1-7.8-4.5-7.9-7.8c-0.1-3.5,4.6-8.2,8.1-8.2c3.6,0.1,8.1,4.9,7.9,8.3
				C81.2,112.5,76.7,116.8,73.4,116.8z"/>
			<path id="XMLID_161_" d="M526.5,100.8c3.3,0.1,7.8,4.5,7.9,7.9c0.1,3.5-4.6,8.2-8.1,8.1c-3.6-0.1-8.1-5-7.9-8.4
				C518.7,105,523.3,100.7,526.5,100.8z"/>
			<path id="XMLID_160_" class="st13" d="M120.4,193.8c-0.2-0.5-0.4-1-0.6-1.5c0.4,0.4,0.7,0.7,1.1,1.1
				C120.7,193.6,120.5,193.7,120.4,193.8z"/>
		</g>
	</g>
</g>
<g id="wQ" class="st0">
	<g id="XMLID_58_" class="st1">
		<g id="XMLID_205_">
			<path id="XMLID_227_" class="st10" d="M561,100.5c-5.5-27-35.1-33.3-54-21.8c-15,9.2-19.4,28-12.8,45.5c0.7,1.8,0.4,4.6-0.6,6.1
				c-3.9,5.7-8.1,11.3-12.6,16.6c-18.2,21.3-36.4,42.6-54.9,63.6c-7,8-7.6,7.8-16.2,1.2c-20.7-15.7-43.6-26.5-69-32.1
				c-3.5-0.8-5.4-2.5-6.2-6.1c-4.4-19.4-8.7-38.7-13.4-58c-0.8-3.5-0.3-5.5,2.5-7.6c14.7-11.5,15.4-35.7,5.8-48.4
				c-7.6-10-17.6-14.4-30.3-14c-11.8,0.3-20.8,5.1-27.7,14.2c-9.5,12.7-8.8,36.8,6.3,48.8c1.4,1.1,2.6,3.5,2.5,5.3
				c-0.3,4.6-1.2,9.2-2.3,13.7c-3.8,15.8-7.8,31.5-11.6,47.3c-0.8,3.3-3,4.3-5.9,5c-27.1,6.4-51.7,18-73.1,35.9
				c-4.2,3.5-6.1,2.6-9.2-0.7c-10.7-11.8-21.9-23.2-32.1-35.4c-13.8-16.3-26.8-33.3-40.1-50c-0.8-1-1.1-3.2-0.5-4.3
				c2.6-5.8,3.1-11.7,3.2-18c0.2-22.1-19.8-38.1-44.3-32.8c-14.1,3-26.1,17.5-26.1,34.6c0.1,16.5,11.8,30.8,23.7,33.2
				c7.3,1.4,9.9,6.2,12.2,11.8c0.7,1.7,1.4,3.4,2.1,5.1c8.5,20.8,17.6,41.3,25.2,62.3c7.4,20.4,13.9,41.2,19.4,62.2
				c6.1,23.2,11.3,46.7,15.6,70.3c3.7,20.3,6,40.9,8.2,61.4c1.9,17.9,3,36,3.9,54c0.5,9.5,0.1,9.6-9.4,9.5
				c-9.6-0.2-17.6,2.8-24.8,9.5c-8.9,8.3-11.1,17.9-10.9,29.4c0.4,17.2,15.8,32.5,33,32.5h164c54.5,0,109,0.3,163.5,0.4
				c13.9,0,24.2-7,29.8-18.3c9.7-19.4,3.4-44.3-20.8-52.1c-4.3-1.4-9.2-1.2-13.8-1.3c-6.6-0.2-6.9,0-6.6-6.9
				c0.8-13.7,1.6-27.4,3-41.1c2-20.2,3.9-40.5,7.1-60.5c3.7-22.8,7.7-45.7,13.5-68.1c7.4-28.4,15.9-56.5,25.5-84.3
				c7.9-23,18.1-45.3,27.2-67.9c1.6-4,4.1-6,8.3-7.4C558,135.8,564.7,118.8,561,100.5z M551.2,114.6c-1.7,11.8-10.8,18.1-26.2,19.4
				C472,246,444.4,363.9,442.1,488.7c7.1,0,13.2,0.4,19.3-0.1c14.3-1.2,26.6,12,26.4,26.1c-0.2,12-8.9,23.5-19,25.3
				c-1.8,0.3-3.6,0.7-5.4,0.7c-108.6,0-217.3,0-325.9,0c-13,0-23.4-11.1-24.1-24.1c-0.8-14.7,8.3-25.2,19.5-27.3
				c6-1.1,12.3-0.4,18.4-0.5c2.1,0,4.3,0,7.1,0c0-10.6,0.2-20.9-0.1-31.1c-0.2-7.1-1-14.2-1.8-21.2c-2.2-21-4.4-42-6.9-62.9
				c-3.7-30.2-10.4-59.8-18-89.1c-8.8-34-19.8-67.2-33.2-99.6c-6.5-15.8-13.9-31.2-20.8-46.8c-1.3-3-2.9-4.2-6.3-4.2
				c-12.6,0-22.3-10.6-22.9-23.4c-0.7-14,7.7-23.2,18.4-26.2c8.9-2.5,21.6,1.4,26.4,7.9c6.8,9.2,7.7,22,1.6,30.8
				c-2.4,3.5-2.8,5.6,0.2,9.2c14.4,17.5,27.8,35.7,42.5,52.9c13.3,15.5,27.8,29.9,41.6,44.9c2.9,3.2,5,2.8,7.8,0.1
				c17.6-17.3,38.8-28.6,62-36.4c6.2-2.1,12.7-3.5,19.2-4.9c3.3-0.8,5.4-2.2,6.5-5.8c7-22.7,12.7-45.8,16.1-69.3
				c0.2-1.6,1.2-3.4,0.8-4.8c-0.5-2-1.4-4.7-2.9-5.4c-14.6-7-17.1-27.8-7.2-39.9c5.5-6.7,18.8-10,28-6.7c9.8,3.4,16,12.2,16.3,22.1
				c0.4,11-3.5,19.2-13.3,24.7c-1.5,0.8-2.8,3.8-2.5,5.6c4.1,24.7,9.3,49.3,17,73.2c1.2,3.8,3.2,5.7,7,6.3
				c22.7,3.9,43.3,13.1,62.3,26c7.8,5.3,14.9,11.5,22.4,17.4c33.3-31.4,62.5-66.9,89.8-104c-9-16.3-9.1-28.2-0.2-37.4
				c7.2-7.4,21-9.3,30.5-4.3C550.3,92.4,553,102.8,551.2,114.6z"/>
			<path id="XMLID_216_" class="st14" d="M538.6,86.3c-9.5-5-23.4-3.1-30.5,4.3c-8.9,9.2-8.9,21,0.2,37.4
				c-27.3,37.1-56.5,72.7-89.8,104c-7.6-5.9-14.7-12.1-22.4-17.4c-19-12.8-39.6-22-62.3-26c-3.8-0.7-5.8-2.5-7-6.3
				c-7.7-23.9-12.9-48.4-17-73.2c-0.3-1.7,1.1-4.7,2.5-5.6c9.8-5.5,13.7-13.7,13.3-24.7c-0.4-9.9-6.5-18.7-16.3-22.1
				c-9.2-3.2-22.5,0-28,6.7c-9.9,12.1-7.4,32.9,7.2,39.9c1.5,0.7,2.5,3.5,2.9,5.4c0.4,1.5-0.6,3.2-0.8,4.8
				c-3.4,23.6-9.1,46.6-16.1,69.3c-1.1,3.5-3.1,5-6.5,5.8c-6.4,1.5-12.9,2.8-19.2,4.9c-23.2,7.8-44.4,19.1-62,36.4
				c-2.8,2.7-4.8,3-7.8-0.1c-13.8-15.1-28.3-29.5-41.6-44.9c-14.7-17.2-28.2-35.4-42.5-52.9c-3-3.6-2.6-5.7-0.2-9.2
				c6.1-8.8,5.2-21.5-1.6-30.8c-4.8-6.5-17.5-10.3-26.4-7.9c-10.7,3-19,12.1-18.4,26.2c0.6,12.7,10.3,23.3,22.9,23.4
				c3.4,0,5,1.3,6.3,4.2c6.9,15.6,14.3,31,20.8,46.8c13.3,32.4,24.3,65.7,33.2,99.6c7.6,29.4,14.3,59,18,89.1
				c2.6,20.9,4.7,41.9,6.9,62.9c0.8,7.1,1.6,14.1,1.8,21.2c0.3,10.2,0.1,20.5,0.1,31.1c-2.8,0-4.9,0-7.1,0
				c-6.2,0.1-12.5-0.6-18.4,0.5c-11.1,2.1-20.3,12.6-19.5,27.3c0.7,13,11.1,24.1,24.1,24.1c108.6,0,217.3,0,325.9,0
				c1.8,0,3.6-0.3,5.4-0.7c10.1-1.8,18.9-13.3,19-25.3c0.2-14.1-12.1-27.3-26.4-26.1c-6.1,0.5-12.2,0.1-19.3,0.1
				C444.4,363.9,472,246,525,134c15.4-1.3,24.5-7.6,26.2-19.4C553,102.8,550.3,92.4,538.6,86.3z M73.4,116.7
				c-3.3-0.1-7.8-4.5-7.9-7.8c-0.1-3.5,4.6-8.2,8.1-8.2c3.6,0.1,8.1,4.9,7.9,8.3C81.3,112.4,76.7,116.8,73.4,116.7z M403.8,243.2
				c-6.6,4.8-12.4,9.5-20.3,10.6c-7.7,1.1-13.1-3.6-18.3-7.4c-12.9-9.7-19.9-23.7-27.3-38.8C363.4,214.3,384.8,226,403.8,243.2z
				 M300.4,72.7c3.5-0.1,8.2,4.6,8.1,8.1c-0.1,3.4-4.5,7.8-7.9,7.9c-3.5,0.1-8.2-4.6-8.1-8.1C292.6,77.2,297,72.8,300.4,72.7z
				 M263.5,207.7c-6.9,14.4-13.7,28.1-25.7,37.8c-11.8,9.6-19,14.3-35.4,2.7c-1.8-1.3-3.8-2.4-6.2-3.8
				C216.1,227.2,237,213.4,263.5,207.7z M455.6,504.7c3.1,0,6.3,0.3,9.3,1.1c4.2,1.1,6.2,4.7,6.3,8.7c0.1,4-2.1,7.5-6,8.9
				c-2.4,0.9-5.2,1.2-7.8,1.2c-52.3,0.1-104.6,0-156.9,0c-52.3,0-104.6,0-156.9,0c-8.4,0-14.2-4.2-14-10.1c0.2-6.1,5.6-9.9,14.2-9.9
				C247.7,504.6,351.7,504.6,455.6,504.7z M425.5,488H176.1c-0.2-1-0.5-2-0.6-3.1c-0.4-13.1-0.5-26.1-1.1-39.2
				c-0.5-9.7-1.7-19.4-2.3-29.1c-0.1-1.3,1.2-3.5,2.2-3.8c18.1-4.9,36.2-10.2,54.6-14c14.5-3,29.3-4.9,44-5.9
				c14.8-1,29.8-0.6,44.7-0.3c9.9,0.2,19.8,1.1,29.7,2c21.1,1.9,41.7,6.1,62,11.9c5.6,1.6,11,3.7,16.6,4.9c3.1,0.7,3.7,2.3,3.5,4.9
				c-0.7,9.6-1.5,19.1-2,28.7c-0.7,12.2-1.3,24.2-2,36.4C425.4,483.5,425.5,486,425.5,488z M170.1,395.8c-0.9-5.9-1.8-11.2-2.5-16.6
				c-0.5-3.1,0.4-5,3.9-6.3c23.3-8.3,47.2-13.9,71.5-18c11.5-2,23.3-2.3,35-3.2c7.3-0.5,14.5-0.9,21.8-1c22.9-0.2,45.6,1.2,68,6
				c20.8,4.5,41.3,10.1,62,15.1c3.2,0.8,4.2,2.6,3.7,5.7c-0.9,5.5-1.7,11-2.6,17.1C343.7,368.3,256.8,368.2,170.1,395.8z
				 M481.6,192.7c-19.7,53-34.7,107.2-44,163c-12.8-3.6-24.6-7.5-36.6-10.1c-16.1-3.5-32.4-6.2-48.6-8.9c-23.7-4-47.7-3.8-71.5-2.8
				c-30.2,1.3-60,6.2-89.1,14.6c-7.9,2.3-15.8,4.7-23.7,7.2c-2.8,0.9-3.9,0.7-4.6-2.7c-5.8-27.5-11-55.3-18.3-82.5
				c-7-26-16.3-51.3-24.7-76.9c-0.2-0.5-0.4-1-0.5-1.5c0.3,0.4,0.6,0.7,0.9,1.1c1.1,1.2,2.2,2.3,3.2,3.4v0c1,1.1,2.4,2.3,3.6,3.4
				c2.3,2.3,4.6,4.6,6.7,7c18.7,20.7,37.1,41.7,61,56.8c19.6,12.5,37.2,9.2,53.9-5.7c17.6-15.6,28-36,36.1-57.5
				c5.7-15.1,9.6-30.9,14.3-46.3c0.1-0.4,0.5-0.8,1.2-1.8c2.3,8.1,4.5,15.7,6.7,23.2c7.3,25.3,17.2,49.5,33.6,70.2
				c8.8,11.1,19.3,20.6,34,23.7c10.6,2.3,20.2-0.5,29-5.8c20.5-12.5,36.9-29.7,52.8-47.3c8.2-9.1,16.5-18,25.5-27.9
				C482,191,481.9,191.9,481.6,192.7z M526.3,116.7c-3.6-0.1-8.1-5-7.9-8.4c0.3-3.4,4.9-7.7,8.1-7.6c3.4,0.1,7.8,4.5,7.9,7.9
				C534.5,112.1,529.8,116.8,526.3,116.7z"/>
			<path id="XMLID_215_" class="st15" d="M120.9,193.4c4.5,4.6,9.1,9.1,13.4,13.9c18.7,20.7,37.1,41.7,60.9,56.8
				c19.6,12.5,37.2,9.2,53.9-5.7c17.6-15.6,28-36,36.1-57.5c5.7-15.1,9.6-30.9,14.3-46.3c0.1-0.4,0.5-0.8,1.2-1.8
				c2.3,8.1,4.5,15.6,6.7,23.2c7.3,25.3,17.2,49.5,33.6,70.2c8.8,11.1,19.3,20.6,34,23.7c10.6,2.3,20.2-0.5,29-5.8
				c20.5-12.5,36.9-29.7,52.8-47.3c8.2-9.1,16.5-18,25.5-27.9c-0.4,2-0.5,2.9-0.8,3.7c-19.7,53-34.7,107.2-44,163
				c-12.8-3.6-24.6-7.5-36.6-10.1c-16.1-3.5-32.4-6.2-48.6-8.9c-23.7-4-47.7-3.8-71.5-2.8c-30.2,1.3-60,6.2-89.1,14.7
				c-7.9,2.3-15.8,4.7-23.7,7.2c-2.8,0.9-3.9,0.7-4.6-2.6c-5.9-27.5-11-55.3-18.3-82.5c-7-26-16.3-51.3-24.7-76.9
				C120.6,193.6,120.8,193.5,120.9,193.4z"/>
			<path id="XMLID_214_" class="st15" d="M425.5,488.6c-83.6,0-166.4,0-249.4,0c-0.2-1.2-0.5-2.2-0.6-3.3
				c-0.4-13.1-0.5-26.2-1.1-39.3c-0.5-9.7-1.7-19.4-2.3-29.1c-0.1-1.3,1.2-3.6,2.2-3.8c18.1-4.9,36.2-10.2,54.6-14.1
				c14.5-3,29.3-4.9,44.1-5.9c14.8-1,29.8-0.6,44.7-0.3c9.9,0.2,19.8,1.1,29.7,2c21.1,1.9,41.7,6.1,62.1,11.9
				c5.6,1.6,11,3.7,16.6,4.9c3.1,0.7,3.7,2.3,3.5,4.9c-0.7,9.6-1.4,19.1-2,28.7c-0.7,12.2-1.3,24.5-2,36.7
				C425.4,483.8,425.5,486,425.5,488.6z"/>
			<path id="XMLID_213_" class="st15" d="M300.5,524.7c-52.3,0-104.6,0-156.9,0c-8.4,0-14.2-4.2-14-10.1c0.2-6.2,5.6-9.9,14.2-9.9
				c104,0,207.9,0,311.9,0c3.1,0,6.3,0.3,9.3,1.1c4.2,1.2,6.2,4.7,6.3,8.7c0.1,4-2.1,7.5-6,9c-2.4,0.9-5.2,1.2-7.8,1.2
				C405.2,524.7,352.8,524.7,300.5,524.7z"/>
			<path id="XMLID_212_" class="st10" d="M430.9,394.6c-87.2-26.3-174-26.4-260.8,1.2c-0.9-5.9-1.8-11.2-2.6-16.6
				c-0.4-3.1,0.4-5,3.9-6.2c23.3-8.3,47.2-13.9,71.5-18c11.5-2,23.3-2.3,35-3.2c7.3-0.5,14.6-0.9,21.8-1c22.9-0.2,45.7,1.2,68,6
				c20.8,4.5,41.3,10.1,62,15.1c3.2,0.8,4.2,2.6,3.7,5.7C432.6,383.1,431.8,388.6,430.9,394.6z"/>
			<path id="XMLID_211_" class="st15" d="M263.5,207.7c-6.9,14.4-13.7,28.1-25.7,37.8c-11.8,9.6-19,14.3-35.4,2.7
				c-1.8-1.3-3.8-2.4-6.2-3.8C216.1,227.2,237,213.3,263.5,207.7z"/>
			<path id="XMLID_210_" class="st15" d="M403.8,243.2c-6.6,4.8-12.4,9.5-20.3,10.6c-7.7,1.1-13.1-3.6-18.3-7.4
				c-12.9-9.7-19.9-23.7-27.3-38.8C363.4,214.3,384.7,226,403.8,243.2z"/>
			<path id="XMLID_209_" class="st13" d="M300.4,72.7c3.5-0.1,8.2,4.6,8.1,8.1c-0.1,3.4-4.5,7.8-7.9,7.9c-3.5,0.1-8.2-4.6-8.1-8.1
				C292.6,77.2,297,72.8,300.4,72.7z"/>
			<path id="XMLID_208_" class="st13" d="M73.4,116.7c-3.3-0.1-7.8-4.5-7.9-7.8c-0.1-3.5,4.6-8.2,8.1-8.2c3.6,0.1,8.1,4.9,7.9,8.3
				C81.3,112.4,76.7,116.8,73.4,116.7z"/>
			<path id="XMLID_207_" class="st13" d="M526.6,100.7c3.3,0.1,7.8,4.5,7.9,7.9c0.1,3.5-4.6,8.2-8.1,8.1c-3.6-0.1-8.1-5-7.9-8.4
				C518.7,104.9,523.3,100.6,526.6,100.7z"/>
			<path id="XMLID_206_" class="st13" d="M120.4,193.8c-0.2-0.5-0.4-1-0.6-1.5c0.4,0.4,0.7,0.7,1.1,1.1
				C120.8,193.5,120.6,193.6,120.4,193.8z"/>
		</g>
	</g>
</g>
<g id="bB" class="st0">
	<g id="XMLID_18_" class="st1">
		<g id="XMLID_19_">
			<path id="XMLID_29_" d="M436.6,478c-9.5,0.6-19.1,0.1-29.2,0.1c0.7-2.1,1.2-3.5,1.7-4.9c3.9-11.5,8.6-22.8,11.5-34.5
				c3.6-15.1,6.8-30.4,8.3-45.8c1.2-12.1,0.3-24.6-0.9-36.8c-1.2-13.5-3.1-26.9-5.9-40.2c-3.4-16.2-7.7-32.2-12.4-48.1
				c-2.2-7.5-2.6-16.6-12.4-19.8c2.7-5.5,2-10.5-0.5-15.6c-8.9-18.2-17-36.8-26.7-54.7c-7.6-14.1-16.8-27.4-25.7-40.8
				c-6.8-10.2-14.1-19.9-21.3-29.9c0.5-0.7,0.9-1.3,1.3-1.7c9.8-9.2,11.7-21.3,9.1-33.2c-5-22.1-23.3-30.7-43.4-26.3
				c-27.4,6-33.1,37.9-19.4,56c3.4,4.5,2.7,6.7-0.2,10.4c-18.5,23.5-34.9,48.5-48.9,74.9c-19.1,35.8-34.3,73.1-42.9,112.8
				c-4.4,20.2-8.6,40.5-10.4,61c-2.7,30,1.4,59.6,11.2,88.3c3.2,9.4,6.5,18.8,10,28.9c-9.8,0-19,0.7-28.1-0.2
				c-15-1.3-31.3,11.6-34,24.7c-1.2,5.6-1.5,11.5-1.3,17.3c0.4,14.3,16.6,30.2,30.9,30.2c94.3,0.1,188.6,0.1,282.9-0.2
				c5.7,0,12-3,16.8-6.4c10.4-7.4,14.3-18,14.5-31.1C471.7,495,454.3,476.9,436.6,478z M461.4,515c-0.4,13.3-12.1,25.3-25.3,25.2
				c-91.6-0.3-183.3-0.3-274.9,0c-12.5,0-25.9-11.2-25.3-27.2c0.4-13.1,12.1-25.5,25.4-25.1c14.6,0.5,29.3,0.1,43.8,0.1
				c-5.6-14.9-11.8-29.1-16.1-43.8c-4.3-15-7.5-30.4-9.7-45.9c-3.5-24.8-0.1-49.4,4.5-73.9c4.1-22.1,9.8-43.8,17.2-65
				c9.7-27.8,22.1-54.2,36.7-79.8c14.9-26.1,31.9-50.6,50.9-73.8c0.3-0.3,0.3-0.9,0.6-1.9c-8.8-4.5-14.6-11.2-15.2-21.8
				c-0.4-7.9,1.5-14.9,7.1-20.5c9.3-9.4,27.9-9,36.6,0.5c6.3,6.8,7.7,15.1,6.2,23.7c-1.5,8.9-7.5,14.9-16,18.5
				c7.4,9.8,14.9,18.8,21.3,28.5c11.5,17.2,23.1,34.4,33.2,52.3c9.4,16.7,16.8,34.6,25.3,51.8c1.7,3.4,0.9,5.3-1.5,7.7
				c-20,19.8-39.9,39.8-59.8,59.7c-1.3,1.3-2.7,2.5-3.4,3.1c3,4,5.8,7.7,8.7,11.6c21.5-21.3,41.6-41.8,62.1-61.9
				c0.6,0.3,1.2,0.5,1.9,0.8c1.4,3.9,3.2,7.8,4.2,11.8c5.5,22.4,11.4,44.7,16,67.3c3.8,18.6,4.8,37.6,3.1,56.5
				c-2.6,29.3-10.7,57.4-23.1,84.2c-1.5,3.1-2.8,6.4-4.4,10.1c1.5,0.1,2.8,0.3,4,0.3c13.5,0,27,0.5,40.5-0.1
				C448.6,487.5,461.9,499.3,461.4,515z"/>
			<path id="XMLID_23_" class="st4" d="M435.9,488c-13.5,0.6-27,0.1-40.5,0.1c-1.2,0-2.4-0.2-4-0.3c1.6-3.7,2.9-6.9,4.4-10.1
				c12.3-26.8,20.4-54.8,23.1-84.2c1.7-18.8,0.6-37.9-3.1-56.5c-4.6-22.6-10.5-44.9-16-67.3c-1-4-2.8-7.9-4.2-11.8
				c-0.6-0.3-1.2-0.5-1.9-0.8c-20.5,20.1-40.6,40.6-62.1,61.9c-2.9-3.9-5.7-7.5-8.7-11.6c0.7-0.7,2.2-1.8,3.4-3.1
				c19.9-19.9,39.8-39.8,59.8-59.7c2.4-2.4,3.3-4.2,1.5-7.7c-8.6-17.2-15.9-35-25.3-51.8c-10.1-18-21.7-35.2-33.2-52.3
				c-6.5-9.7-14-18.7-21.3-28.5c8.5-3.6,14.4-9.6,16-18.5c1.5-8.6,0.1-16.9-6.2-23.7c-8.7-9.5-27.3-9.8-36.6-0.5
				c-5.5,5.6-7.5,12.5-7.1,20.5c0.6,10.6,6.4,17.2,15.2,21.8c-0.3,1-0.3,1.6-0.6,1.9c-19.1,23.2-36,47.7-50.9,73.8
				c-14.6,25.5-27.1,52-36.7,79.8c-7.4,21.2-13.1,42.9-17.2,65c-4.6,24.5-8,49.1-4.5,73.9c2.2,15.5,5.4,30.9,9.7,45.9
				c4.3,14.7,10.5,28.8,16.1,43.8c-14.5,0-29.2,0.4-43.8-0.1c-13.4-0.5-25,12-25.4,25.1c-0.5,16,12.9,27.2,25.3,27.2
				c91.6-0.3,183.3-0.3,274.9,0c13.2,0,24.9-12,25.3-25.2C461.9,499.3,448.6,487.5,435.9,488z M299,72.1c3.6,0,8.1,4.4,8.1,8
				c0,3.7-4.2,8-7.9,8.1c-4.3,0.1-7.9-3.3-8.2-7.7C290.8,76.2,294.7,72.2,299,72.1z M201,422.4c-4.8-14.2-7-28.9-6.5-43.6
				c0.5-16.1,3.1-32.1,5.5-48.1c1.5-10,3.6-19.9,6.4-29.7c3.4-12.2,7.5-24.2,11.8-36.1c4.7-13.1,9.2-26.3,15.2-38.8
				c8.8-18,18-35.9,28.6-52.9c10.5-16.9,22.7-32.6,34.2-48.9c0.6-0.9,1.6-1.5,2.8-2.6c28.1,35.4,51.3,73.3,69.5,114.6
				c-24,24-48,48-72.1,72.1c10.1,9.3,19.2,17.8,28.3,26.2c9.7,9,7,10.2,17.4-0.1c13.7-13.7,27.3-27.3,41-41c1.2-1.2,2.4-2.3,4.3-4
				c1.1,3.8,2.3,6.9,3,10.1c3.4,16.9,7.3,33.8,9.9,50.9c1.8,11.7,2.9,23.9,1.9,35.6c-1.4,15.3-4.6,30.6-8.2,45.6
				c-4.4,18-11.8,35-20.1,51.6c-1.4,2.8-3,3.7-6.1,3.7c-46.2-0.1-92.3-0.1-138.4,0c-3.2,0-4.6-0.9-5.8-3.8
				c-2.9-6.8-6.8-13.2-9.2-20.1C209.2,449.9,205.6,436,201,422.4z M438.8,522.9c-2.6,0.9-5.5,1.2-8.3,1.2c-44.1,0.1-88.3,0-132.4,0
				c-44.3,0-88.6,0.1-132.9-0.1c-3.3,0-7.4-1.3-9.9-3.4c-5.7-4.8-3.2-13.5,4.1-15.5c2.2-0.6,4.5-1,6.8-1c87.9,0,175.8,0,263.8,0
				c2.9,0,6,0.2,8.8,1.2c3.5,1.2,5.4,3.9,5.4,8C444.4,517.9,443.1,521.4,438.8,522.9z"/>
			<path id="XMLID_22_" class="st6" d="M296.2,308.7c10.1,9.3,19.2,17.8,28.3,26.2c9.7,9.1,7,10.2,17.4-0.1
				c13.7-13.7,27.3-27.3,41-41c1.2-1.2,2.4-2.3,4.3-4c1.1,3.8,2.3,6.9,2.9,10.1c3.4,16.9,7.3,33.8,9.9,50.9
				c1.7,11.7,2.9,23.9,1.9,35.6c-1.4,15.3-4.6,30.6-8.2,45.6c-4.3,18-11.8,35-20.1,51.6c-1.4,2.8-3,3.7-6.1,3.7
				c-46.1-0.1-92.3-0.1-138.4,0c-3.2,0-4.6-0.9-5.8-3.8c-2.9-6.8-6.8-13.2-9.2-20.1c-4.7-13.5-8.3-27.4-12.9-41
				c-4.8-14.2-7-28.9-6.5-43.6c0.5-16.1,3.1-32.1,5.5-48.1c1.5-10,3.6-19.9,6.4-29.6c3.4-12.2,7.5-24.2,11.8-36.1
				c4.7-13.1,9.1-26.3,15.2-38.8c8.8-18,18-35.9,28.6-52.9c10.5-16.9,22.7-32.6,34.2-48.9c0.6-0.9,1.6-1.5,2.8-2.6
				c28.1,35.4,51.3,73.3,69.5,114.6C344.3,260.6,320.4,284.5,296.2,308.7z"/>
			<path id="XMLID_21_" class="st6" d="M298.1,524.1c-44.3,0-88.6,0.1-132.9-0.1c-3.3,0-7.4-1.3-9.9-3.4c-5.6-4.8-3.1-13.5,4.1-15.5
				c2.2-0.6,4.5-1,6.8-1c87.9,0,175.8-0.1,263.8,0c2.9,0,6,0.2,8.8,1.2c3.5,1.2,5.3,3.9,5.4,8c0.1,4.5-1.2,8-5.5,9.5
				c-2.6,0.9-5.5,1.2-8.3,1.2C386.4,524.1,342.3,524.1,298.1,524.1z"/>
			<path id="XMLID_20_" class="st6" d="M299.3,88.2c-4.3,0.1-7.9-3.3-8.2-7.7c-0.3-4.3,3.6-8.4,7.9-8.4c3.6,0,8.1,4.4,8.1,8
				C307.2,83.8,303,88.1,299.3,88.2z"/>
		</g>
	</g>
</g>
<g id="wB" class="st0">
	<g id="XMLID_229_" class="st1">
		<g id="XMLID_280_">
			<path id="XMLID_289_" class="st10" d="M436.8,478c-9.5,0.6-19.1,0.1-29.2,0.1c0.7-2.1,1.2-3.5,1.7-4.9
				c3.9-11.5,8.6-22.8,11.5-34.5c3.6-15.1,6.8-30.4,8.3-45.8c1.2-12.1,0.3-24.6-0.9-36.8c-1.2-13.5-3.1-26.9-5.9-40.2
				c-3.4-16.2-7.7-32.2-12.4-48.1c-2.2-7.5-2.6-16.6-12.4-19.8c2.7-5.5,2-10.5-0.5-15.6c-8.9-18.2-17-36.8-26.7-54.7
				c-7.6-14.1-16.8-27.4-25.7-40.8c-6.8-10.2-14.1-19.9-21.3-29.9c0.5-0.7,0.9-1.3,1.3-1.7c9.8-9.2,11.7-21.3,9.1-33.2
				c-5-22.1-23.3-30.7-43.4-26.2c-27.4,6-33.1,37.9-19.4,56c3.4,4.5,2.7,6.7-0.2,10.4c-18.5,23.5-34.9,48.5-48.9,74.9
				c-19.1,35.8-34.3,73.1-42.9,112.8c-4.4,20.2-8.6,40.5-10.4,61c-2.7,30,1.4,59.6,11.2,88.3c3.2,9.4,6.5,18.8,10,28.9
				c-9.8,0-19,0.7-28.1-0.2c-15-1.3-31.3,11.6-34,24.7c-1.2,5.6-1.5,11.5-1.3,17.3c0.4,14.3,16.6,30.2,30.9,30.2
				c94.3,0.1,188.6,0.1,282.9-0.2c5.7,0,12-3,16.8-6.4c10.4-7.4,14.3-18,14.5-31.1C471.9,495,454.5,476.9,436.8,478z M461.6,515
				c-0.4,13.3-12.1,25.3-25.3,25.2c-91.6-0.3-183.3-0.3-274.9,0c-12.5,0-25.9-11.2-25.3-27.2c0.4-13.1,12.1-25.5,25.4-25.1
				c14.6,0.5,29.3,0.1,43.8,0.1c-5.6-14.9-11.8-29.1-16.1-43.8c-4.3-15-7.5-30.4-9.7-45.9c-3.5-24.8-0.1-49.4,4.5-73.9
				c4.1-22.1,9.8-43.8,17.2-65c9.7-27.8,22.1-54.2,36.7-79.8c14.9-26.1,31.9-50.6,50.9-73.8c0.3-0.3,0.3-0.9,0.6-1.9
				c-8.8-4.5-14.6-11.2-15.2-21.8c-0.4-7.9,1.5-14.9,7.1-20.5c9.3-9.4,27.9-9,36.6,0.5c6.3,6.8,7.7,15.1,6.2,23.7
				c-1.5,8.9-7.5,14.9-16,18.5c7.4,9.8,14.9,18.8,21.3,28.5c11.5,17.2,23.1,34.4,33.2,52.3c9.4,16.7,16.8,34.6,25.3,51.8
				c1.7,3.4,0.9,5.3-1.5,7.7c-20,19.8-39.9,39.8-59.8,59.7c-1.3,1.3-2.7,2.5-3.4,3.1c3,4,5.8,7.7,8.7,11.6
				c21.5-21.3,41.6-41.8,62.1-61.9c0.6,0.3,1.2,0.5,1.9,0.8c1.4,3.9,3.2,7.8,4.2,11.8c5.5,22.4,11.4,44.7,16,67.3
				c3.8,18.6,4.8,37.6,3.1,56.5c-2.6,29.3-10.7,57.4-23.1,84.2c-1.5,3.1-2.8,6.4-4.4,10.1c1.5,0.1,2.8,0.3,4,0.3
				c13.5,0,27,0.5,40.5-0.1C448.8,487.5,462.1,499.3,461.6,515z"/>
			<path id="XMLID_284_" class="st16" d="M436.1,488c-13.5,0.6-27,0.1-40.5,0.1c-1.2,0-2.4-0.2-4-0.3c1.6-3.7,2.9-6.9,4.4-10.1
				c12.3-26.8,20.4-54.8,23.1-84.2c1.7-18.8,0.6-37.9-3.1-56.5c-4.6-22.6-10.5-44.9-16-67.3c-1-4-2.8-7.9-4.2-11.8
				c-0.6-0.3-1.2-0.5-1.9-0.8c-20.5,20.1-40.6,40.6-62.1,61.9c-2.9-3.9-5.7-7.5-8.7-11.6c0.7-0.7,2.2-1.8,3.4-3.1
				c19.9-19.9,39.8-39.8,59.8-59.7c2.4-2.4,3.3-4.2,1.5-7.7c-8.6-17.2-15.9-35-25.3-51.8c-10.1-18-21.7-35.2-33.2-52.3
				c-6.5-9.7-14-18.7-21.3-28.5c8.5-3.6,14.4-9.6,16-18.5c1.5-8.6,0.1-16.9-6.2-23.7c-8.7-9.5-27.3-9.8-36.6-0.5
				c-5.5,5.6-7.5,12.5-7.1,20.5c0.6,10.6,6.4,17.2,15.2,21.8c-0.3,1-0.3,1.6-0.6,1.9c-19.1,23.2-36,47.7-50.9,73.8
				c-14.6,25.5-27.1,52-36.7,79.8c-7.4,21.2-13.1,42.9-17.2,65c-4.6,24.5-8,49.1-4.5,73.9c2.2,15.5,5.4,30.9,9.7,45.9
				c4.3,14.7,10.5,28.8,16.1,43.8c-14.5,0-29.2,0.4-43.8-0.1c-13.4-0.5-25,12-25.4,25.1c-0.5,16,12.9,27.2,25.3,27.2
				c91.6-0.3,183.3-0.3,274.9,0c13.2,0,24.9-12,25.3-25.2C462.1,499.3,448.8,487.5,436.1,488z M299.2,72.1c3.6,0,8.1,4.4,8.1,8
				c0,3.7-4.2,8-7.9,8.1c-4.3,0.1-7.9-3.3-8.2-7.7C291,76.2,294.8,72.2,299.2,72.1z M201.2,422.4c-4.8-14.2-7-28.9-6.5-43.6
				c0.5-16.1,3.1-32.1,5.5-48.1c1.5-10,3.6-19.9,6.4-29.7c3.4-12.2,7.5-24.2,11.8-36.1c4.7-13.1,9.2-26.3,15.2-38.8
				c8.8-18,18-35.9,28.6-52.9c10.5-16.9,22.7-32.6,34.2-48.9c0.6-0.9,1.6-1.5,2.8-2.6c28.1,35.4,51.3,73.3,69.5,114.6
				c-24,24-48,48-72.1,72.1c10.1,9.3,19.2,17.8,28.3,26.2c9.7,9,7,10.2,17.4-0.1c13.7-13.7,27.3-27.3,41-41c1.2-1.2,2.4-2.3,4.3-4
				c1.1,3.8,2.3,6.9,3,10.1c3.4,16.9,7.3,33.8,9.9,50.9c1.8,11.7,2.9,23.9,1.9,35.6c-1.4,15.3-4.6,30.6-8.2,45.6
				c-4.4,18-11.8,35-20.1,51.6c-1.4,2.8-3,3.7-6.1,3.7c-46.2-0.1-92.3-0.1-138.4,0c-3.2,0-4.6-0.9-5.8-3.8
				c-2.9-6.8-6.8-13.2-9.2-20.1C209.4,449.9,205.8,436,201.2,422.4z M439,522.9c-2.6,0.9-5.5,1.2-8.3,1.2c-44.1,0.1-88.3,0-132.4,0
				c-44.3,0-88.6,0.1-132.9-0.1c-3.3,0-7.4-1.3-9.9-3.4c-5.7-4.8-3.2-13.5,4.1-15.5c2.2-0.6,4.5-1,6.8-1c87.9,0,175.8,0,263.8,0
				c2.9,0,6,0.2,8.8,1.2c3.5,1.2,5.4,3.9,5.4,8C444.5,517.9,443.3,521.4,439,522.9z"/>
			<path id="XMLID_283_" class="st15" d="M296.4,308.7c10.1,9.3,19.2,17.8,28.3,26.2c9.7,9.1,7,10.2,17.4-0.1
				c13.7-13.7,27.3-27.3,41-41c1.2-1.2,2.4-2.3,4.3-4c1.1,3.8,2.3,6.9,2.9,10.1c3.4,16.9,7.3,33.8,9.9,50.9
				c1.7,11.7,2.9,23.9,1.9,35.6c-1.4,15.3-4.6,30.6-8.2,45.6c-4.3,18-11.8,35-20.1,51.6c-1.4,2.8-3,3.7-6.1,3.7
				c-46.1-0.1-92.3-0.1-138.4,0c-3.2,0-4.6-0.9-5.8-3.8c-2.9-6.8-6.8-13.2-9.2-20.1c-4.7-13.5-8.3-27.4-12.9-41
				c-4.8-14.2-7-28.9-6.5-43.6c0.5-16.1,3.1-32.1,5.5-48.1c1.5-10,3.6-19.9,6.4-29.6c3.4-12.2,7.5-24.2,11.8-36.1
				c4.7-13.1,9.1-26.3,15.2-38.8c8.8-18,18-35.9,28.6-52.9c10.5-16.9,22.7-32.6,34.2-48.9c0.6-0.9,1.6-1.5,2.8-2.6
				c28.1,35.4,51.3,73.3,69.5,114.6C344.5,260.6,320.5,284.5,296.4,308.7z"/>
			<path id="XMLID_282_" class="st15" d="M298.3,524.1c-44.3,0-88.6,0.1-132.9-0.1c-3.3,0-7.4-1.3-9.9-3.4
				c-5.6-4.8-3.1-13.5,4.1-15.5c2.2-0.6,4.5-1,6.8-1c87.9,0,175.8-0.1,263.8,0c2.9,0,6,0.2,8.8,1.2c3.5,1.2,5.3,3.9,5.4,8
				c0.1,4.5-1.2,8-5.5,9.5c-2.6,0.9-5.5,1.2-8.3,1.2C386.6,524.1,342.5,524.1,298.3,524.1z"/>
			<path id="XMLID_281_" class="st15" d="M299.5,88.2c-4.3,0.1-7.9-3.3-8.2-7.7c-0.3-4.3,3.6-8.4,7.9-8.4c3.6,0,8.1,4.4,8.1,8
				C307.4,83.8,303.2,88.1,299.5,88.2z"/>
		</g>
	</g>
</g>
<g id="wN" class="st0">
	<g id="XMLID_34_" class="st1">
		<g id="XMLID_131_">
			<path id="XMLID_152_" class="st10" d="M450.8,480.4c-7.7-3.4-15.7-2.4-23.6-2.4c-3.1,0-4.6-0.9-5.8-4
				c-8.9-23.8-11.8-48.5-12.7-73.6c-1.1-29.7,0.7-59.4,4.9-88.8c2.5-17.2,5.2-34.3,7.8-51.4c1.7-11.4,4.5-22.8,5-34.3
				c0.7-15.6,0-31.3-0.9-46.8c-1.1-19.8-5.9-38.8-16.9-55.5c-6.5-9.8-14.5-18.3-26-23.2c-7.6-3.3-15.6-7.5-21.1-13.5
				c-7.4-8.1-12.5-18.3-18.9-27.4c-3.1-4.4-6.2-9.5-10.5-12.3c-9.3-5.9-18.9-1.3-23.2,10.6c-3.4,9.2-5.9,18.6-9.4,27.8
				c-2.4,6.4-6,11.9-13.7,12.9c-15.8,2.1-26.7,12.1-35.2,24.1c-13.9,19.6-29.5,37.5-46.5,54.5c-11.2,11.2-22.4,22.4-33.6,33.6
				c-12.1,12-18.9,25.6-18.3,43.5c0.4,11.8,12.1,26.2,21.1,29c20.1,6.3,38.8,3.7,55.6-9.1c11.3-8.6,23.3-15.2,36.9-19.1
				c7.9-2.2,15.9-4.1,25.3-6.4c-1.1,2.8-1.3,4.2-2,5.2c-6.8,9-13.2,18.3-20.7,26.7c-6.2,6.9-13.8,12.5-20.5,18.8
				c-15.4,14.6-28.2,31.2-39,49.5c-10.5,17.8-18,36.6-23.7,56.3c-6.6,22.6-8.9,45.8-9.7,69.1c-0.1,3.1-1.2,4.1-4.2,3.9
				c-4.3-0.2-8.7-0.2-13,0c-7.3,0.4-13.7,2.9-19.4,7.8c-9.4,8.1-12.6,18.2-12.8,30.5c-0.2,17,16.9,33.9,33.8,33.8
				c92-0.3,183.9-0.4,275.9,0.1c15,0.1,31.3-11.5,34.3-25.1c1.1-5,1.1-10.2,1.2-15.3C471.8,497.1,460.8,484.8,450.8,480.4z
				 M461.5,519.5c-2,11.5-12.5,20.4-24.1,20.4c-92.1,0-184.3,0-276.4,0c-13.7,0-23.8-10.9-24.5-24.7c-0.7-13.9,8.7-24.5,19.1-26.7
				c1.6-0.3,3.3-0.5,4.9-0.5c8.3-0.1,16.6,0,24.3,0c1.3-15.8,2.5-31.1,3.8-46.4c1.6-17.9,6.2-35.1,12.3-51.9
				c8.3-22.7,19.7-43.9,35.3-62.3c10-11.8,21.6-22.4,32.8-33.1c16.7-16,30.3-34.2,39.6-55.4c0.7-1.5,1.3-3,2-4.6
				c0.6-1.5,1.1-3,1.8-5.1c-6.5,2.7-12.4,5.7-18.6,7.6c-9.8,3-19.7,5.4-29.6,8c-17,4.4-31.4,13.7-45.5,23.7
				c-11.6,8.3-24.9,9.3-38.5,6.2c-10-2.3-17.5-13-17.8-23c-0.4-14.2,6.3-24.5,15.2-33.8c11.2-11.8,23-23.2,34.6-34.7
				c17.3-17.2,33.6-35.2,47.4-55.4c6.6-9.7,15.5-17.2,27.9-19.1c13.3-2,19.3-11.7,23.2-23.2c2.8-8,5.2-16,7.9-24
				c3.3-9.6,8.2-7.8,12.6-1.2c4.4,6.6,8.3,13.5,12.7,20.1c6.6,9.8,13.6,19.3,24.5,24.8c5.5,2.8,11.5,4.5,16.5,7.9
				c12.3,8.1,19.1,20.4,23.8,33.9c5.3,15.3,7.8,31,7.9,47.2c0.1,6.8,0.5,13.7-0.1,20.5c-1.1,13-2.5,26-4.2,38.9
				c-2.3,16.5-5.3,32.8-7.6,49.3c-2,14-4,28.1-4.9,42.2c-1,16.9-1.2,33.9-1.1,50.8c0.2,28.4,3.6,56.3,13.8,83.2
				c3.4,8.9,3.1,8.8,12.7,9c6.9,0.2,14.1,0,20.6,1.8C457.3,492.9,463.8,506.2,461.5,519.5z"/>
			<path id="XMLID_148_" class="st17" d="M445.8,489.7c-6.6-1.8-13.7-1.6-20.6-1.8c-9.6-0.3-9.3-0.2-12.7-9
				c-10.2-26.8-13.5-54.8-13.8-83.2c-0.1-16.9,0-33.9,1.1-50.8c0.9-14.1,2.9-28.2,4.9-42.2c2.3-16.5,5.3-32.8,7.6-49.3
				c1.8-12.9,3.2-25.9,4.2-38.9c0.6-6.8,0.1-13.6,0.1-20.5c-0.1-16.1-2.6-31.9-7.9-47.2c-4.8-13.5-11.5-25.9-23.8-33.9
				c-5-3.3-11.1-5.1-16.5-7.9c-10.9-5.5-18-15-24.5-24.8c-4.4-6.6-8.3-13.6-12.7-20.1c-4.4-6.6-9.4-8.3-12.6,1.2
				c-2.7,8-5.1,16-7.9,24c-4,11.5-9.9,21.1-23.2,23.2c-12.4,1.9-21.3,9.4-27.9,19.1c-13.9,20.2-30.2,38.2-47.4,55.4
				c-11.6,11.5-23.3,22.9-34.6,34.7c-8.9,9.4-15.6,19.6-15.2,33.8c0.3,10,7.8,20.8,17.8,23c13.6,3.1,26.9,2.1,38.5-6.2
				c14.1-10,28.5-19.3,45.5-23.7c9.9-2.5,19.9-4.9,29.6-8c6.2-1.9,12.1-4.9,18.6-7.6c-0.7,2-1.2,3.6-1.8,5.1c-0.6,1.5-1.3,3-2,4.6
				c-9.3,21.2-22.9,39.4-39.6,55.4c-11.2,10.7-22.8,21.3-32.8,33.1c-15.6,18.5-27,39.6-35.3,62.3c-6.1,16.8-10.8,34-12.3,51.9
				c-1.3,15.3-2.5,30.6-3.8,46.4c-7.7,0-16,0-24.3,0c-1.6,0-3.3,0.2-4.9,0.5c-10.4,2.2-19.8,12.8-19.1,26.7
				c0.7,13.8,10.9,24.7,24.5,24.7c92.1,0,184.3,0,276.4,0c11.6,0,22.2-8.9,24.1-20.4C463.8,506.2,457.3,492.9,445.8,489.7z
				 M203.8,463c1.4-13.4,3.1-27,5.9-40.2c7.1-32.5,21.4-62,43-87.3c11.2-13.1,24.2-24.7,36.5-36.8c18.8-18.5,31.6-40.7,40.5-65.3
				c4.4-12.1,8.6-24.3,12.9-36.5c0.6-1.8,0.8-3.7,1.4-7.2c-5.7,3.1-10.2,5.5-14.6,8c-9.8,5.6-19.4,11.4-29.2,16.9
				c-12,6.7-25.5,8.8-38.6,12.3c-17.3,4.6-33.4,11.6-47.4,22.9c-8,6.4-16.8,10.5-27.5,8.1c-5.3-1.2-8.7-5.6-6.7-10.6
				c2-5,4.3-10.3,7.9-14.1c18.3-19.3,37.5-37.8,55.7-57.3c9.5-10.2,17.7-21.8,26.2-32.9c4.7-6,8.9-12.5,16.3-15.5
				c3.8-1.5,7.7-2.6,11.6-3.7c12.9-3.8,20.8-13,26.5-24.6c1.5-3.1,2.5-6.5,3.7-9.7c4.3,5.3,8.7,10.6,13,16
				c6.3,8,14.3,14.3,23.7,17.4c14.8,4.9,22.2,15.8,27.1,29.3c4.2,11.7,6.8,23.8,7,36.3c0.2,13.1,0.7,26.2-0.2,39.2
				c-0.7,10.6-3.5,21.1-5.1,31.7c-2.3,14.8-4.6,29.7-6.6,44.5c-1.9,14.4-4.1,28.8-4.8,43.3c-0.9,18.4-0.6,36.8-0.3,55.2
				c0.2,10.3,1.2,20.5,2,30.7c1.4,17.6,6,34.4,11.8,51c0.2,0.6,0.4,1.3,0.6,2c-0.5,0.2-0.9,0.5-1.4,0.5c-9.3,0.4-9.5,0.4-12.2-8.6
				c-4.6-15.2-8.4-30.6-9-46.5c-0.8-22.2-2.1-44.5-1.8-66.7c0.2-15.3,2.7-30.6,4.6-45.8c1.8-14.6,4.1-29.1,6.2-43.6
				c2.2-15.5,5-31,6.6-46.5c1-10.3,0.7-20.8,0.2-31.1c-0.3-5.3-2-5.4-7-3.4c-7.1,2.8-10.6,5.9-10.2,15.1c0.5,13.4-2.3,26.9-4.1,40.3
				c-1.6,12.4-3.6,24.8-5.4,37.2c-1.8,12.4-3.6,24.8-5.3,37.2c-0.9,6.5-2.3,13.1-2.5,19.6c-0.6,19.3-1.3,38.6-1,57.8
				c0.2,14.7,1.2,29.5,3,44.1c1.5,11.9,4.9,23.8,7.5,35.5c0.4,1.6,0.8,3.5,1.4,5.5H203.6C203.6,479,202.9,470.9,203.8,463z
				 M439.4,522.5c-2.6,0.9-5.5,1.3-8.3,1.3c-44,0.1-88,0-132,0s-88,0-132,0c-2.6,0-5.3-0.4-7.8-1.1c-4.5-1.3-6.3-5.1-6.2-9.2
				c0-3.8,2-7.2,6-8.3c2.5-0.7,5.2-1.2,7.8-1.2c87.8-0.1,175.6-0.1,263.4,0c2.6,0,5.3,0.5,7.9,1c4.7,0.9,6.8,4.6,7,8.7
				C445.5,517.4,443.5,521.1,439.4,522.5z"/>
			<path id="XMLID_134_" class="st12" d="M386.7,304.1c2-14.9,4.3-29.7,6.6-44.5c1.6-10.6,4.4-21.1,5.1-31.7
				c0.9-13,0.4-26.2,0.2-39.2c-0.2-12.5-2.7-24.6-7-36.3c-4.9-13.6-12.3-24.4-27.1-29.3c-9.4-3.1-17.4-9.3-23.7-17.4
				c-4.2-5.4-8.6-10.7-13-16c-1.2,3.3-2.2,6.6-3.7,9.7c-5.6,11.6-13.5,20.8-26.5,24.6c-3.9,1.1-7.9,2.2-11.6,3.7
				c-7.4,3-11.6,9.5-16.3,15.5c-8.6,11.1-16.7,22.6-26.2,32.9c-18.2,19.5-37.4,38-55.7,57.3c-3.6,3.8-6,9.1-7.9,14.1
				c-2,5,1.4,9.5,6.7,10.6c10.7,2.3,19.5-1.7,27.5-8.1c14.1-11.3,30.2-18.3,47.4-22.9c13.1-3.5,26.6-5.6,38.6-12.3
				c9.8-5.5,19.4-11.3,29.2-16.9c4.4-2.5,8.8-4.8,14.6-8c-0.7,3.5-0.8,5.4-1.4,7.2c-4.2,12.2-8.5,24.4-12.9,36.5
				c-8.9,24.6-21.7,46.8-40.5,65.3c-12.3,12.1-25.3,23.7-36.5,36.8c-21.6,25.3-35.9,54.7-43,87.2c-2.9,13.2-4.5,26.9-5.9,40.4
				c-0.8,7.8-0.2,16-0.2,24h162.2c-0.5-2-1-3.9-1.4-5.5c-2.6-11.8-6-23.5-7.5-35.4c-1.9-14.6-2.8-29.4-3-44.1
				c-0.3-19.3,0.3-38.6,1-57.9c0.2-6.6,1.6-13.1,2.5-19.6c1.8-12.4,3.5-24.8,5.3-37.2c1.8-12.4,3.8-24.8,5.4-37.2
				c1.7-13.4,4.6-27,4.1-40.3c-0.4-9.2,3.2-12.4,10.2-15.2c5-2,6.7-1.9,7,3.4c0.5,10.4,0.8,20.8-0.2,31.1c-1.6,15.6-4.4,31-6.6,46.5
				c-2.1,14.5-4.4,29-6.2,43.6c-1.9,15.2-4.3,30.5-4.6,45.8c-0.3,22.2,1,44.5,1.8,66.7c0.5,16,4.4,31.3,9,46.5c2.8,9,2.9,9,12.2,8.6
				c0.4,0,0.8-0.3,1.4-0.5c-0.2-0.8-0.4-1.4-0.6-2c-5.9-16.5-10.4-33.4-11.8-51c-0.8-10.2-1.9-20.5-2-30.7
				c-0.3-18.4-0.6-36.8,0.3-55.2C382.6,333,384.8,318.5,386.7,304.1z M285.2,149.9c-4.5-0.2-7.7-3.6-7.6-8.1c0.1-4.7,3.6-8,8.4-7.8
				c4.5,0.2,7.7,3.6,7.6,8.1C293.5,146.7,290,150.1,285.2,149.9z"/>
			<path id="XMLID_133_" class="st12" d="M299.1,523.8c-44,0-88,0-132,0c-2.6,0-5.3-0.4-7.8-1.1c-4.5-1.3-6.3-5.1-6.2-9.2
				c0-3.7,2-7.2,6-8.3c2.5-0.7,5.2-1.2,7.8-1.2c87.8-0.1,175.6-0.1,263.4,0c2.6,0,5.3,0.5,7.9,1c4.7,0.9,6.8,4.6,7,8.7
				c0.2,3.9-1.8,7.6-5.9,9c-2.6,0.9-5.5,1.3-8.3,1.3C387.1,523.9,343.1,523.8,299.1,523.8z"/>
			<path id="XMLID_132_" class="st18" d="M286,133.9c4.5,0.2,7.7,3.6,7.6,8.1c-0.1,4.7-3.6,8-8.4,7.8c-4.5-0.2-7.7-3.6-7.6-8.1
				C277.7,137,281.3,133.7,286,133.9z"/>
		</g>
	</g>
</g>
<g id="bN" class="st0">
	<g id="XMLID_33_" class="st1">
		<g id="XMLID_77_">
			<path id="XMLID_150_" d="M450.8,480.4c-7.7-3.4-15.7-2.4-23.6-2.4c-3.1,0-4.6-0.9-5.8-4c-8.9-23.8-11.8-48.5-12.7-73.6
				c-1.1-29.7,0.7-59.4,4.9-88.8c2.5-17.2,5.2-34.3,7.8-51.4c1.7-11.4,4.5-22.8,5-34.3c0.7-15.6,0-31.3-0.9-46.8
				c-1.1-19.8-5.9-38.8-16.9-55.5c-6.5-9.8-14.5-18.3-26-23.2c-7.6-3.3-15.6-7.5-21.1-13.5c-7.4-8.1-12.5-18.3-18.9-27.4
				c-3.1-4.4-6.2-9.5-10.5-12.3c-9.3-5.9-18.9-1.3-23.2,10.6c-3.4,9.2-5.9,18.6-9.4,27.8c-2.4,6.4-6,11.9-13.7,12.9
				c-15.8,2.1-26.7,12.1-35.2,24.1c-13.9,19.6-29.5,37.5-46.5,54.5c-11.2,11.2-22.4,22.4-33.6,33.6c-12.1,12-18.9,25.6-18.3,43.5
				c0.4,11.8,12.1,26.2,21.1,29c20.1,6.3,38.8,3.7,55.6-9.1c11.3-8.6,23.3-15.2,36.9-19.1c7.9-2.2,15.9-4.1,25.3-6.4
				c-1.1,2.8-1.3,4.2-2,5.2c-6.8,9-13.2,18.3-20.7,26.7c-6.2,6.9-13.8,12.5-20.5,18.8c-15.4,14.6-28.2,31.2-39,49.5
				c-10.5,17.8-18,36.6-23.7,56.3c-6.6,22.6-8.9,45.8-9.7,69.1c-0.1,3.1-1.2,4.1-4.2,3.9c-4.3-0.2-8.7-0.2-13,0
				c-7.3,0.4-13.7,2.9-19.4,7.8c-9.4,8.1-12.6,18.2-12.8,30.5c-0.2,17,16.9,33.9,33.8,33.8c92-0.3,183.9-0.4,275.9,0.1
				c15,0.1,31.3-11.5,34.3-25.1c1.1-5,1.1-10.2,1.2-15.3C471.8,497.1,460.8,484.8,450.8,480.4z M461.5,519.5
				c-2,11.5-12.5,20.4-24.1,20.4c-92.1,0-184.3,0-276.4,0c-13.7,0-23.8-10.9-24.5-24.7c-0.7-13.9,8.7-24.5,19.1-26.7
				c1.6-0.3,3.3-0.5,4.9-0.5c8.3-0.1,16.6,0,24.3,0c1.3-15.8,2.5-31.1,3.8-46.4c1.6-17.9,6.2-35.1,12.3-51.9
				c8.3-22.7,19.7-43.9,35.3-62.3c10-11.8,21.6-22.4,32.8-33.1c16.7-16,30.3-34.2,39.6-55.4c0.7-1.5,1.3-3,2-4.6
				c0.6-1.5,1.1-3,1.8-5.1c-6.5,2.7-12.4,5.7-18.6,7.6c-9.8,3-19.7,5.4-29.6,8c-17,4.4-31.4,13.7-45.5,23.7
				c-11.6,8.3-24.9,9.3-38.5,6.2c-10-2.3-17.5-13-17.8-23c-0.4-14.2,6.3-24.5,15.2-33.8c11.2-11.8,23-23.2,34.6-34.7
				c17.3-17.2,33.6-35.2,47.4-55.4c6.6-9.7,15.5-17.2,27.9-19.1c13.3-2,19.3-11.7,23.2-23.2c2.8-8,5.2-16,7.9-24
				c3.3-9.6,8.2-7.8,12.6-1.2c4.4,6.6,8.3,13.5,12.7,20.1c6.6,9.8,13.6,19.3,24.5,24.8c5.5,2.8,11.5,4.5,16.5,7.9
				c12.3,8.1,19.1,20.4,23.8,33.9c5.3,15.3,7.8,31,7.9,47.2c0.1,6.8,0.5,13.7-0.1,20.5c-1.1,13-2.5,26-4.2,38.9
				c-2.3,16.5-5.3,32.8-7.6,49.3c-2,14-4,28.1-4.9,42.2c-1,16.9-1.2,33.9-1.1,50.8c0.2,28.4,3.6,56.3,13.8,83.2
				c3.4,8.9,3.1,8.8,12.7,9c6.9,0.2,14.1,0,20.6,1.8C457.3,492.9,463.8,506.2,461.5,519.5z"/>
			<path id="XMLID_84_" class="st4" d="M445.8,489.7c-6.6-1.8-13.7-1.6-20.6-1.8c-9.6-0.3-9.3-0.2-12.7-9
				c-10.2-26.8-13.5-54.8-13.8-83.2c-0.1-16.9,0-33.9,1.1-50.8c0.9-14.1,2.9-28.2,4.9-42.2c2.3-16.5,5.3-32.8,7.6-49.3
				c1.8-12.9,3.2-25.9,4.2-38.9c0.6-6.8,0.1-13.6,0.1-20.5c-0.1-16.1-2.6-31.9-7.9-47.2c-4.8-13.5-11.5-25.9-23.8-33.9
				c-5-3.3-11.1-5.1-16.5-7.9c-10.9-5.5-18-15-24.5-24.8c-4.4-6.6-8.3-13.6-12.7-20.1c-4.4-6.6-9.4-8.3-12.6,1.2
				c-2.7,8-5.1,16-7.9,24c-4,11.5-9.9,21.1-23.2,23.2c-12.4,1.9-21.3,9.4-27.9,19.1c-13.9,20.2-30.2,38.2-47.4,55.4
				c-11.6,11.5-23.3,22.9-34.6,34.7c-8.9,9.4-15.6,19.6-15.2,33.8c0.3,10,7.8,20.8,17.8,23c13.6,3.1,26.9,2.1,38.5-6.2
				c14.1-10,28.5-19.3,45.5-23.7c9.9-2.5,19.9-4.9,29.6-8c6.2-1.9,12.1-4.9,18.6-7.6c-0.7,2-1.2,3.6-1.8,5.1c-0.6,1.5-1.3,3-2,4.6
				c-9.3,21.2-22.9,39.4-39.6,55.4c-11.2,10.7-22.8,21.3-32.8,33.1c-15.6,18.5-27,39.6-35.3,62.3c-6.1,16.8-10.8,34-12.3,51.9
				c-1.3,15.3-2.5,30.6-3.8,46.4c-7.7,0-16,0-24.3,0c-1.6,0-3.3,0.2-4.9,0.5c-10.4,2.2-19.8,12.8-19.1,26.7
				c0.7,13.8,10.9,24.7,24.5,24.7c92.1,0,184.3,0,276.4,0c11.6,0,22.2-8.9,24.1-20.4C463.8,506.2,457.3,492.9,445.8,489.7z
				 M203.8,463c1.4-13.4,3.1-27,5.9-40.2c7.1-32.5,21.4-62,43-87.3c11.2-13.1,24.2-24.7,36.5-36.8c18.8-18.5,31.6-40.7,40.5-65.3
				c4.4-12.1,8.6-24.3,12.9-36.5c0.6-1.8,0.8-3.7,1.4-7.2c-5.7,3.1-10.2,5.5-14.6,8c-9.8,5.6-19.4,11.4-29.2,16.9
				c-12,6.7-25.5,8.8-38.6,12.3c-17.3,4.6-33.4,11.6-47.4,22.9c-8,6.4-16.8,10.5-27.5,8.1c-5.3-1.2-8.7-5.6-6.7-10.6
				c2-5,4.3-10.3,7.9-14.1c18.3-19.3,37.5-37.8,55.7-57.3c9.5-10.2,17.7-21.8,26.2-32.9c4.7-6,8.9-12.5,16.3-15.5
				c3.8-1.5,7.7-2.6,11.6-3.7c12.9-3.8,20.8-13,26.5-24.6c1.5-3.1,2.5-6.5,3.7-9.7c4.3,5.3,8.7,10.6,13,16
				c6.3,8,14.3,14.3,23.7,17.4c14.8,4.9,22.2,15.8,27.1,29.3c4.2,11.7,6.8,23.8,7,36.3c0.2,13.1,0.7,26.2-0.2,39.2
				c-0.7,10.6-3.5,21.1-5.1,31.7c-2.3,14.8-4.6,29.7-6.6,44.5c-1.9,14.4-4.1,28.8-4.8,43.3c-0.9,18.4-0.6,36.8-0.3,55.2
				c0.2,10.3,1.2,20.5,2,30.7c1.4,17.6,6,34.4,11.8,51c0.2,0.6,0.4,1.3,0.6,2c-0.5,0.2-0.9,0.5-1.4,0.5c-9.3,0.4-9.5,0.4-12.2-8.6
				c-4.6-15.2-8.4-30.6-9-46.5c-0.8-22.2-2.1-44.5-1.8-66.7c0.2-15.3,2.7-30.6,4.6-45.8c1.8-14.6,4.1-29.1,6.2-43.6
				c2.2-15.5,5-31,6.6-46.5c1-10.3,0.7-20.8,0.2-31.1c-0.3-5.3-2-5.4-7-3.4c-7.1,2.8-10.6,5.9-10.2,15.1c0.5,13.4-2.3,26.9-4.1,40.3
				c-1.6,12.4-3.6,24.8-5.4,37.2c-1.8,12.4-3.6,24.8-5.3,37.2c-0.9,6.5-2.3,13.1-2.5,19.6c-0.6,19.3-1.3,38.6-1,57.8
				c0.2,14.7,1.2,29.5,3,44.1c1.5,11.9,4.9,23.8,7.5,35.5c0.4,1.6,0.8,3.5,1.4,5.5H203.6C203.6,479,202.9,470.9,203.8,463z
				 M439.4,522.5c-2.6,0.9-5.5,1.3-8.3,1.3c-44,0.1-88,0-132,0s-88,0-132,0c-2.6,0-5.3-0.4-7.8-1.1c-4.5-1.3-6.3-5.1-6.2-9.2
				c0-3.8,2-7.2,6-8.3c2.5-0.7,5.2-1.2,7.8-1.2c87.8-0.1,175.6-0.1,263.4,0c2.6,0,5.3,0.5,7.9,1c4.7,0.9,6.8,4.6,7,8.7
				C445.5,517.4,443.5,521.1,439.4,522.5z"/>
			<path id="XMLID_80_" class="st6" d="M386.7,304.1c2-14.9,4.3-29.7,6.6-44.5c1.6-10.6,4.4-21.1,5.1-31.7c0.9-13,0.4-26.2,0.2-39.2
				c-0.2-12.5-2.7-24.6-7-36.3c-4.9-13.6-12.3-24.4-27.1-29.3c-9.4-3.1-17.4-9.3-23.7-17.4c-4.2-5.4-8.6-10.7-13-16
				c-1.2,3.3-2.2,6.6-3.7,9.7c-5.6,11.6-13.5,20.8-26.5,24.6c-3.9,1.1-7.9,2.2-11.6,3.7c-7.4,3-11.6,9.5-16.3,15.5
				c-8.6,11.1-16.7,22.6-26.2,32.9c-18.2,19.5-37.4,38-55.7,57.3c-3.6,3.8-6,9.1-7.9,14.1c-2,5,1.4,9.5,6.7,10.6
				c10.7,2.3,19.5-1.7,27.5-8.1c14.1-11.3,30.2-18.3,47.4-22.9c13.1-3.5,26.6-5.6,38.6-12.3c9.8-5.5,19.4-11.3,29.2-16.9
				c4.4-2.5,8.8-4.8,14.6-8c-0.7,3.5-0.8,5.4-1.4,7.2c-4.2,12.2-8.5,24.4-12.9,36.5c-8.9,24.6-21.7,46.8-40.5,65.3
				c-12.3,12.1-25.3,23.7-36.5,36.8c-21.6,25.3-35.9,54.7-43,87.2c-2.9,13.2-4.5,26.9-5.9,40.4c-0.8,7.8-0.2,16-0.2,24h162.2
				c-0.5-2-1-3.9-1.4-5.5c-2.6-11.8-6-23.5-7.5-35.4c-1.9-14.6-2.8-29.4-3-44.1c-0.3-19.3,0.3-38.6,1-57.9
				c0.2-6.6,1.6-13.1,2.5-19.6c1.8-12.4,3.5-24.8,5.3-37.2c1.8-12.4,3.8-24.8,5.4-37.2c1.7-13.4,4.6-27,4.1-40.3
				c-0.4-9.2,3.2-12.4,10.2-15.2c5-2,6.7-1.9,7,3.4c0.5,10.4,0.8,20.8-0.2,31.1c-1.6,15.6-4.4,31-6.6,46.5
				c-2.1,14.5-4.4,29-6.2,43.6c-1.9,15.2-4.3,30.5-4.6,45.8c-0.3,22.2,1,44.5,1.8,66.7c0.5,16,4.4,31.3,9,46.5c2.8,9,2.9,9,12.2,8.6
				c0.4,0,0.8-0.3,1.4-0.5c-0.2-0.8-0.4-1.4-0.6-2c-5.9-16.5-10.4-33.4-11.8-51c-0.8-10.2-1.9-20.5-2-30.7
				c-0.3-18.4-0.6-36.8,0.3-55.2C382.6,333,384.8,318.5,386.7,304.1z M285.2,149.9c-4.5-0.2-7.7-3.6-7.6-8.1c0.1-4.7,3.6-8,8.4-7.8
				c4.5,0.2,7.7,3.6,7.6,8.1C293.5,146.7,290,150.1,285.2,149.9z"/>
			<path id="XMLID_79_" class="st6" d="M299.1,523.8c-44,0-88,0-132,0c-2.6,0-5.3-0.4-7.8-1.1c-4.5-1.3-6.3-5.1-6.2-9.2
				c0-3.7,2-7.2,6-8.3c2.5-0.7,5.2-1.2,7.8-1.2c87.8-0.1,175.6-0.1,263.4,0c2.6,0,5.3,0.5,7.9,1c4.7,0.9,6.8,4.6,7,8.7
				c0.2,3.9-1.8,7.6-5.9,9c-2.6,0.9-5.5,1.3-8.3,1.3C387.1,523.9,343.1,523.8,299.1,523.8z"/>
			<path id="XMLID_78_" class="st4" d="M286,133.9c4.5,0.2,7.7,3.6,7.6,8.1c-0.1,4.7-3.6,8-8.4,7.8c-4.5-0.2-7.7-3.6-7.6-8.1
				C277.7,137,281.3,133.7,286,133.9z"/>
		</g>
	</g>
</g>
<g id="wR">
	<g id="XMLID_156_">
		<g id="XMLID_302_">
			<path id="XMLID_317_" class="st10" d="M427.7,476.6c8.9,1.5,16.4,1.8,23.4,4.1c10.3,3.3,21.2,16.5,21,29
				c-0.1,5.3-0.3,10.7-1.3,15.8c-2.8,13.1-19.1,24.7-34,24.6c-92.1-0.5-184.3-0.1-276.4-0.1c-17.6,0-32.8-15.6-33.3-33
				c-0.4-12.4,2.9-22.7,12.5-31c5.7-4.9,12.1-7.4,19.4-7.9c3.5-0.2,7,0,11.1,0c35.6-89.8,54.4-182.8,57.3-280
				c-7.2,0-13.7-0.2-20.1,0.1c-5.1,0.2-9.3-1.2-12.8-5.2c-7.7-8.7-15.8-17-23.5-25.8c-1.7-1.9-2.7-5.1-2.7-7.7
				c-0.2-34.2-0.1-68.3-0.1-102.5c0-7.5,4.3-11.8,11.7-11.9c18.5-0.1,37-0.1,55.5,0c7.5,0,11.6,4.3,11.8,11.8c0.1,5.2,0,10.3,0,15.5
				c0,1.3,0.3,2.7,0.4,4c0.4,0,0.9,0,1.3,0c0.1-1.5,0.2-3,0.3-4.5c0-5.2-0.1-10.3,0-15.5c0.2-6.7,4.3-11.2,10.8-11.3
				c26.2-0.1,52.3-0.2,78.5,0c6.5,0,10.6,4.6,10.7,11.4c0.1,6.6,0,13.2,1.2,20c0.3-0.9,0.8-1.8,0.8-2.7c0.1-5.7,0-11.3,0.1-17
				c0.1-7.5,4.3-11.7,11.8-11.8c18.5-0.1,37-0.1,55.5,0c7.2,0,11.6,4.3,11.6,11.5c0.1,34.3,0.1,68.6-0.1,103c0,3-1.8,6.4-3.7,8.8
				c-7.1,8.6-14.7,16.7-21.9,25.1c-2.8,3.3-6.2,4.8-10.5,4.7c-7.3-0.1-14.6,0-22.9,0C373.7,294.9,392.6,387.9,427.7,476.6z
				 M178.4,160.5c8.3,9.2,16.7,18.4,25.1,27.7c11.2,0,22.1,0,33.9,0c-1.1,104.1-21.7,203.6-60.4,299.8c-5.7,0-10.8-0.1-15.9,0
				c-1.8,0-3.6,0.2-5.3,0.8c-12.8,3.8-18.6,12.2-18.6,26.9c0,13.4,10.9,24.3,24.3,24.3c92.1,0,184.3,0,276.4,0
				c1.8,0,3.6-0.2,5.4-0.6c10.7-2.2,18.9-13.5,19.2-25.2c0.3-14.2-12.1-27.6-26.7-26.2c-4.6,0.4-9.3,0.1-14.4,0.1
				c-38.7-96.2-59.3-195.7-60.4-299.7c11.9,0,23,0,34,0c8.5-9.5,16.8-18.7,24.8-27.7c0-35.3,0-70.2,0-105.2c-19.6,0-38.8,0-58.8,0
				c0,10.7,0,21,0,31.3c-7.6,0-14.6,0-22,0c0-10.7,0-20.9,0-31.3c-26.8,0-53,0-80,0c0,10.7,0,21,0,31.3c-7.6,0-14.6,0-22,0
				c0-10.6,0-20.9,0-31.3c-19.8,0-39,0-58.5,0C178.4,90.6,178.4,125.5,178.4,160.5z"/>
			<path id="XMLID_311_" d="M178.4,160.5c0-35,0-69.9,0-105.2c19.5,0,38.7,0,58.5,0c0,10.4,0,20.6,0,31.3c7.4,0,14.4,0,22,0
				c0-10.2,0-20.6,0-31.3c27,0,53.2,0,80,0c0,10.4,0,20.6,0,31.3c7.4,0,14.4,0,22,0c0-10.2,0-20.6,0-31.3c20,0,39.2,0,58.8,0
				c0,35,0,69.9,0,105.2c-8,9-16.3,18.2-24.8,27.7c-11,0-22.1,0-34,0c1.1,104,21.7,203.6,60.4,299.7c5.2,0,9.8,0.4,14.4-0.1
				c14.7-1.4,27,12,26.7,26.2c-0.2,11.7-8.4,23-19.2,25.2c-1.8,0.4-3.6,0.6-5.4,0.6c-92.1,0-184.3,0-276.4,0
				c-13.4,0-24.3-10.9-24.3-24.3c0-14.7,5.7-23.1,18.6-26.9c1.7-0.5,3.6-0.7,5.3-0.8c5.1-0.1,10.3,0,15.9,0
				c38.7-96.2,59.3-195.7,60.4-299.8c-11.8,0-22.7,0-33.9,0C195.1,178.9,186.7,169.7,178.4,160.5z M377.1,103.8c-18,0-36,0-54,0
				c-0.3-0.3-0.5-0.5-0.8-0.8c0-10.2,0-20.4,0-30.7c-15.9,0-30.9,0-46.4,0c0,10.5,0,20.6,0,30.7c-0.3,0.3-0.5,0.5-0.8,0.8
				c-18,0-36,0-54,0c-0.3-0.3-0.5-0.5-0.8-0.8c0-10.2,0-20.5,0-30.7c-8.9,0-16.8,0-24.9,0c0,23.3,0,46.4,0,69.4
				c69.4,0,138.3,0,207.3,0c0-23.4,0-46.4,0-69.4c-8.4,0-16.3,0-24.8,0c0,10.5,0,20.6,0,30.7C377.6,103.3,377.4,103.5,377.1,103.8z
				 M254,189.1c-3.1,102.5-21.3,201.7-58.4,297.5c69.3,0,137.8,0,207,0c-37.6-96-57.1-195-58.5-297.5
				C313.9,189.1,284.4,189.1,254,189.1z M298.6,524c44,0,88,0,132,0c1.3,0,2.7,0.1,4,0c6.4-0.5,10.1-3.5,10.5-8.5
				c0.6-6.7-1.2-9-8.6-10.8c-1.9-0.5-3.9-0.7-5.9-0.7c-29,0-58,0-87,0c-58.6,0-117.3,0-175.9,0.1c-3.4,0-7.1,0.5-9.9,2.1
				c-3.5,2-5.5,5.6-4,10.2c1.8,5.3,5,7.6,10.9,7.6C209.3,524,253.9,524,298.6,524z M397.5,160.2c-66,0-130.8,0-197.3,0
				c4.1,4.4,7.3,7.7,10.1,10.7c59.6,0,118.4,0,177.7,0C390.8,167.7,393.8,164.3,397.5,160.2z"/>
			<path id="XMLID_310_" class="st10" d="M254,189.1c30.4,0,59.9,0,90.2,0c1.4,102.5,20.8,201.5,58.5,297.5c-69.3,0-137.7,0-207,0
				C232.7,390.8,250.9,291.6,254,189.1z"/>
			<path id="XMLID_309_" class="st10" d="M275.9,103c0-10.1,0-20.2,0-30.7c15.5,0,30.5,0,46.4,0c0,10.2,0,20.5,0,30.7
				c0.3,0.3,0.5,0.5,0.8,0.8c18,0,36,0,54,0c0.3-0.3,0.5-0.5,0.8-0.8c0-10.1,0-20.2,0-30.7c8.5,0,16.4,0,24.8,0c0,23,0,46,0,69.4
				c-68.9,0-137.9,0-207.3,0c0-23.1,0-46.1,0-69.4c8.1,0,16,0,24.9,0c0,10.3,0,20.5,0,30.7c0.3,0.3,0.5,0.5,0.8,0.8c18,0,36,0,54,0
				C275.4,103.5,275.6,103.3,275.9,103z"/>
			<path id="XMLID_308_" class="st10" d="M298.6,524c-44.7,0-89.3,0-134,0c-5.8,0-9.1-2.3-10.9-7.6c-1.6-4.5,0.4-8.2,4-10.2
				c2.8-1.6,6.6-2.1,9.9-2.1c58.6-0.1,117.3-0.1,175.9-0.1c29,0,58,0,87,0c2,0,4,0.3,5.9,0.7c7.4,1.8,9.2,4.1,8.6,10.8
				c-0.4,5-4.2,8-10.5,8.5c-1.3,0.1-2.7,0-4,0C386.6,524,342.6,524,298.6,524z"/>
			<path id="XMLID_307_" class="st10" d="M397.5,160.2c-3.7,4.1-6.7,7.5-9.6,10.7c-59.3,0-118.1,0-177.7,0c-2.8-3-6-6.4-10.1-10.7
				C266.7,160.2,331.5,160.2,397.5,160.2z"/>
			<path id="XMLID_306_" class="st19" d="M221.1,103.8c-0.3-0.3-0.5-0.5-0.8-0.8C220.6,103.3,220.9,103.5,221.1,103.8z"/>
			<path id="XMLID_305_" class="st19" d="M275.9,103c-0.3,0.3-0.5,0.5-0.8,0.8C275.4,103.5,275.6,103.3,275.9,103z"/>
			<path id="XMLID_304_" class="st19" d="M323.1,103.8c-0.3-0.3-0.5-0.5-0.8-0.8C322.6,103.3,322.8,103.5,323.1,103.8z"/>
			<path id="XMLID_303_" class="st19" d="M377.9,103c-0.3,0.3-0.5,0.5-0.8,0.8C377.4,103.5,377.6,103.3,377.9,103z"/>
		</g>
	</g>
</g>
<g id="bR" class="st0">
	<g id="XMLID_157_" class="st1">
		<g id="XMLID_201_">
			<path id="XMLID_248_" d="M427.7,476.6c8.9,1.5,16.4,1.8,23.4,4.1c10.3,3.3,21.2,16.5,21,29c-0.1,5.3-0.3,10.7-1.3,15.8
				c-2.8,13.1-19.1,24.7-34,24.6c-92.1-0.5-184.3-0.1-276.4-0.1c-17.6,0-32.8-15.6-33.3-33c-0.4-12.4,2.9-22.7,12.5-31
				c5.7-4.9,12.1-7.4,19.4-7.9c3.5-0.2,7,0,11.1,0c35.6-89.8,54.4-182.8,57.3-280c-7.2,0-13.7-0.2-20.1,0.1
				c-5.1,0.2-9.3-1.2-12.8-5.2c-7.7-8.7-15.8-17-23.5-25.8c-1.7-1.9-2.7-5.1-2.7-7.7c-0.2-34.2-0.1-68.3-0.1-102.5
				c0-7.5,4.3-11.8,11.7-11.9c18.5-0.1,37-0.1,55.5,0c7.5,0,11.6,4.3,11.8,11.8c0.1,5.2,0,10.3,0,15.5c0,1.3,0.3,2.7,0.4,4
				c0.4,0,0.9,0,1.3,0c0.1-1.5,0.2-3,0.3-4.5c0-5.2-0.1-10.3,0-15.5c0.2-6.7,4.3-11.2,10.8-11.3c26.2-0.1,52.3-0.2,78.5,0
				c6.5,0,10.6,4.6,10.7,11.4c0.1,6.6,0,13.2,1.2,20c0.3-0.9,0.8-1.8,0.8-2.7c0.1-5.7,0-11.3,0.1-17c0.1-7.5,4.3-11.7,11.8-11.8
				c18.5-0.1,37-0.1,55.5,0c7.2,0,11.6,4.3,11.6,11.5c0.1,34.3,0.1,68.6-0.1,103c0,3-1.8,6.4-3.7,8.8c-7.1,8.6-14.7,16.7-21.9,25.1
				c-2.8,3.3-6.2,4.8-10.5,4.7c-7.3-0.1-14.6,0-22.9,0C373.7,294.9,392.6,387.9,427.7,476.6z M178.4,160.5
				c8.3,9.2,16.7,18.4,25.1,27.7c11.2,0,22.1,0,33.9,0c-1.1,104.1-21.7,203.6-60.4,299.8c-5.7,0-10.8-0.1-15.9,0
				c-1.8,0-3.6,0.2-5.3,0.8c-12.8,3.8-18.6,12.2-18.6,26.9c0,13.4,10.9,24.3,24.3,24.3c92.1,0,184.3,0,276.4,0
				c1.8,0,3.6-0.2,5.4-0.6c10.7-2.2,18.9-13.5,19.2-25.2c0.3-14.2-12.1-27.6-26.7-26.2c-4.6,0.4-9.3,0.1-14.4,0.1
				c-38.7-96.2-59.3-195.7-60.4-299.7c11.9,0,23,0,34,0c8.5-9.5,16.8-18.7,24.8-27.7c0-35.3,0-70.2,0-105.2c-19.6,0-38.8,0-58.8,0
				c0,10.7,0,21,0,31.3c-7.6,0-14.6,0-22,0c0-10.7,0-20.9,0-31.3c-26.8,0-53,0-80,0c0,10.7,0,21,0,31.3c-7.6,0-14.6,0-22,0
				c0-10.6,0-20.9,0-31.3c-19.8,0-39,0-58.5,0C178.4,90.6,178.4,125.5,178.4,160.5z"/>
			<path id="XMLID_234_" class="st10" d="M178.4,160.5c0-35,0-69.9,0-105.2c19.5,0,38.7,0,58.5,0c0,10.4,0,20.6,0,31.3
				c7.4,0,14.4,0,22,0c0-10.2,0-20.6,0-31.3c27,0,53.2,0,80,0c0,10.4,0,20.6,0,31.3c7.4,0,14.4,0,22,0c0-10.2,0-20.6,0-31.3
				c20,0,39.2,0,58.8,0c0,35,0,69.9,0,105.2c-8,9-16.3,18.2-24.8,27.7c-11,0-22.1,0-34,0c1.1,104,21.7,203.6,60.4,299.7
				c5.2,0,9.8,0.4,14.4-0.1c14.7-1.4,27,12,26.7,26.2c-0.2,11.7-8.4,23-19.2,25.2c-1.8,0.4-3.6,0.6-5.4,0.6c-92.1,0-184.3,0-276.4,0
				c-13.4,0-24.3-10.9-24.3-24.3c0-14.7,5.7-23.1,18.6-26.9c1.7-0.5,3.6-0.7,5.3-0.8c5.1-0.1,10.3,0,15.9,0
				c38.7-96.2,59.3-195.7,60.4-299.8c-11.8,0-22.7,0-33.9,0C195.1,178.9,186.7,169.7,178.4,160.5z M377.1,103.8c-18,0-36,0-54,0
				c-0.3-0.3-0.5-0.5-0.8-0.8c0-10.2,0-20.4,0-30.7c-15.9,0-30.9,0-46.4,0c0,10.5,0,20.6,0,30.7c-0.3,0.3-0.5,0.5-0.8,0.8
				c-18,0-36,0-54,0c-0.3-0.3-0.5-0.5-0.8-0.8c0-10.2,0-20.5,0-30.7c-8.9,0-16.8,0-24.9,0c0,23.3,0,46.4,0,69.4
				c69.4,0,138.3,0,207.3,0c0-23.4,0-46.4,0-69.4c-8.4,0-16.3,0-24.8,0c0,10.5,0,20.6,0,30.7C377.6,103.3,377.4,103.5,377.1,103.8z
				 M254,189.1c-3.1,102.5-21.3,201.7-58.4,297.5c69.3,0,137.8,0,207,0c-37.6-96-57.1-195-58.5-297.5
				C313.9,189.1,284.4,189.1,254,189.1z M298.6,524c44,0,88,0,132,0c1.3,0,2.7,0.1,4,0c6.4-0.5,10.1-3.5,10.5-8.5
				c0.6-6.7-1.2-9-8.6-10.8c-1.9-0.5-3.9-0.7-5.9-0.7c-29,0-58,0-87,0c-58.6,0-117.3,0-175.9,0.1c-3.4,0-7.1,0.5-9.9,2.1
				c-3.5,2-5.5,5.6-4,10.2c1.8,5.3,5,7.6,10.9,7.6C209.3,524,253.9,524,298.6,524z M397.5,160.2c-66,0-130.8,0-197.3,0
				c4.1,4.4,7.3,7.7,10.1,10.7c59.6,0,118.4,0,177.7,0C390.8,167.7,393.8,164.3,397.5,160.2z"/>
			<path id="XMLID_233_" d="M254,189.1c30.4,0,59.9,0,90.2,0c1.4,102.5,20.8,201.5,58.5,297.5c-69.3,0-137.7,0-207,0
				C232.7,390.8,250.9,291.6,254,189.1z"/>
			<path id="XMLID_232_" d="M275.9,103c0-10.1,0-20.2,0-30.7c15.5,0,30.5,0,46.4,0c0,10.2,0,20.5,0,30.7c0.3,0.3,0.5,0.5,0.8,0.8
				c18,0,36,0,54,0c0.3-0.3,0.5-0.5,0.8-0.8c0-10.1,0-20.2,0-30.7c8.5,0,16.4,0,24.8,0c0,23,0,46,0,69.4c-68.9,0-137.9,0-207.3,0
				c0-23.1,0-46.1,0-69.4c8.1,0,16,0,24.9,0c0,10.3,0,20.5,0,30.7c0.3,0.3,0.5,0.5,0.8,0.8c18,0,36,0,54,0
				C275.4,103.5,275.6,103.3,275.9,103z"/>
			<path id="XMLID_231_" d="M298.6,524c-44.7,0-89.3,0-134,0c-5.8,0-9.1-2.3-10.9-7.6c-1.6-4.5,0.4-8.2,4-10.2
				c2.8-1.6,6.6-2.1,9.9-2.1c58.6-0.1,117.3-0.1,175.9-0.1c29,0,58,0,87,0c2,0,4,0.3,5.9,0.7c7.4,1.8,9.2,4.1,8.6,10.8
				c-0.4,5-4.2,8-10.5,8.5c-1.3,0.1-2.7,0-4,0C386.6,524,342.6,524,298.6,524z"/>
			<path id="XMLID_230_" d="M397.5,160.2c-3.7,4.1-6.7,7.5-9.6,10.7c-59.3,0-118.1,0-177.7,0c-2.8-3-6-6.4-10.1-10.7
				C266.7,160.2,331.5,160.2,397.5,160.2z"/>
			<path id="XMLID_228_" class="st19" d="M221.1,103.8c-0.3-0.3-0.5-0.5-0.8-0.8C220.6,103.3,220.9,103.5,221.1,103.8z"/>
			<path id="XMLID_204_" class="st19" d="M275.9,103c-0.3,0.3-0.5,0.5-0.8,0.8C275.4,103.5,275.6,103.3,275.9,103z"/>
			<path id="XMLID_203_" class="st19" d="M323.1,103.8c-0.3-0.3-0.5-0.5-0.8-0.8C322.6,103.3,322.8,103.5,323.1,103.8z"/>
			<path id="XMLID_202_" class="st19" d="M377.9,103c-0.3,0.3-0.5,0.5-0.8,0.8C377.4,103.5,377.6,103.3,377.9,103z"/>
		</g>
	</g>
</g>
<g id="wP" class="st0">
	<g id="XMLID_268_" class="st1">
		<g id="XMLID_372_">
			<path id="XMLID_383_" class="st10" d="M204.3,478.2c30-53.6,48.7-110.6,56.3-172.2c-3.4,0-6.8-0.3-10.2,0
				c-11.9,1.1-23.7-9.3-26.3-20.8c-2.8-12.5,1.6-23.9,12.1-31.4c0.5-0.4,1-0.9,1.7-1.5c-10-16.9-11.2-35.2-7.6-53.8
				c3.2-16.4,13.2-28.9,25.9-39c24.9-20,65.5-16.8,86.9,1.1c31,25.9,31.3,65.5,16.8,91.7c1.2,0.9,2.4,1.9,3.7,2.9
				c7.4,6.1,10.6,13.8,10.5,23.6c-0.1,10.8-4.7,18.5-13.5,23.8c-3.2,2-7.4,2.7-11.2,3.3c-3.9,0.5-7.9,0.1-11.9,0.1
				c5.7,55.3,35.3,145.4,56.4,171.9c6.4,0,13-0.3,19.3,2.7c8.2,3.9,14.6,9.8,18,18.2c4.2,10.1,4.1,20.4-0.1,30.5
				c-3.5,8.2-9.7,14.1-17.7,17.9c-4.9,2.3-10.1,2.9-15.5,2.8c-67-0.1-134-0.1-201-0.1c-8.3,0-15.3-2.9-21.5-8.8
				c-5.3-5.1-9.7-10.6-10.8-17.9c-1.8-12.3-1.2-23.8,8.1-33.8C181.3,480.1,191.5,476.9,204.3,478.2z M387.1,488
				c-17.1-29.7-30.8-60.6-41.1-93c-10.1-32.1-17.2-64.9-20.1-99c7.7,0,14.7,0.2,21.6-0.1c2.7-0.1,5.5-0.9,7.9-2.2
				c7.1-3.7,8.5-10.2,8.5-17.6c0-8.1-8.1-16.6-16.2-16.1c-2.1,0.1-4.2,0-6.7,0c28-28.6,20.4-70.7-2.8-90.3
				c-20.6-17.4-55.4-19.4-77.8-0.8c-11.7,9.8-19.6,22.3-21.4,37.5c-2.3,20,1.9,38.5,18.4,53.7c-4.5,0-7.8-0.6-10.7,0.1
				c-6.6,1.5-11.4,5.9-12.6,12.6c-1.4,7.4-0.7,14.7,6,19.8c3.1,2.3,6.6,3.6,10.6,3.4c6.9-0.2,13.9-0.1,21-0.1
				c-3.2,35.1-10.5,68.7-21,101.5c-10.2,31.5-23.7,61.6-40.2,90.5c-4.6,0-9-0.4-13.2,0.1c-3.8,0.5-7.9,1.3-11.2,3.2
				c-9.2,5.3-12.5,13.6-12.5,24.2c0,12.8,11.8,24.5,24.2,24.5c67.3-0.2,134.6-0.1,202-0.1c1.9,0,4-0.3,5.8-0.9
				c11.8-3.6,17.5-12.3,18.3-24.7c0.9-14.4-12-28-26.8-26.5C393.9,488.3,390.5,488,387.1,488z"/>
			<path id="XMLID_377_" d="M387.1,488c3.5,0,6.8,0.3,10.1-0.1c14.9-1.6,27.7,12,26.8,26.5c-0.8,12.4-6.5,21.1-18.3,24.7
				c-1.9,0.6-3.9,0.9-5.8,0.9c-67.3,0-134.6,0-202,0.1c-12.4,0-24.3-11.7-24.2-24.5c0-10.6,3.3-18.9,12.5-24.2
				c3.3-1.9,7.4-2.8,11.2-3.2c4.3-0.5,8.6-0.1,13.2-0.1c16.5-28.9,30-59,40.2-90.5c10.6-32.8,17.8-66.3,21-101.5
				c-7.2,0-14.1-0.2-21,0.1c-4,0.1-7.5-1.1-10.6-3.4c-6.7-5.1-7.4-12.4-6-19.8c1.2-6.7,6-11,12.6-12.6c3-0.7,6.2-0.1,10.7-0.1
				c-16.5-15.2-20.7-33.7-18.4-53.7c1.7-15.2,9.7-27.7,21.4-37.5c22.4-18.7,57.3-16.6,77.8,0.8c23.2,19.6,30.7,61.7,2.8,90.3
				c2.5,0,4.6,0.1,6.7,0c8.1-0.5,16.2,8.1,16.2,16.1c0,7.5-1.4,13.9-8.5,17.6c-2.4,1.2-5.2,2-7.9,2.2c-7,0.3-14,0.1-21.6,0.1
				c2.9,34.1,10,66.9,20.1,99C356.3,427.4,370,458.3,387.1,488z M367.4,487.7c-32.6-60.2-51.9-123.9-58.6-191.5
				c-6.8,0-13.1,0-19.7,0c-0.8,2.7-2.2,5.3-2.1,8c0.2,11.3-2.1,22.3-4,33.3c-3.6,20.6-8.5,40.8-14.8,60.8c-7.8,24.7-17.2,48.8-29,72
				c-2.9,5.8-5.8,11.7-8.8,17.5C276,487.7,321.2,487.7,367.4,487.7z M298.1,172c-25.7,2.1-42.6,17.6-43.1,44.3
				c-0.4,22.5,18.7,44.3,43.3,43.5c27.2-0.9,43.9-17,44.1-43.7C342.6,189.6,325,173.3,298.1,172z M406.7,513.8
				c-2.5-6.8-5.6-8.8-12.8-8.8c-63.4,0-126.9,0-190.3-0.1c-3.8,0-7.2,0.8-10.2,3.2c-0.9,1.9-1.8,3.8-2.8,5.9c1,2.2,2,4.3,3.3,7
				c2.7,0.6,5.6,1.9,8.6,1.9c63.9,0.1,127.9,0.1,191.8,0.1C401.3,523,404.3,520.8,406.7,513.8z M345.5,278.6c0-0.3,0-0.7,0.1-1
				c-0.4-0.2-0.8-0.6-1.2-0.6c-30,0-59.9-0.1-89.9-0.1c-0.6,0-1.3,0.3-1.9,0.4c-0.1,0-0.2,0.2-0.3,0.3c0,0.2,0,0.3,0,0.9
				C283.3,278.6,314.4,278.6,345.5,278.6z"/>
			<path id="XMLID_376_" class="st10" d="M367.4,487.7c-46.2,0-91.5,0-137,0c2.9-5.8,5.8-11.7,8.8-17.5c11.7-23.2,21.2-47.2,29-72
				c6.3-19.9,11.2-40.2,14.8-60.8c1.9-11,4.2-22,4-33.3c0-2.6,1.4-5.3,2.1-8c6.6,0,12.9,0,19.7,0
				C315.6,363.8,334.8,427.5,367.4,487.7z"/>
			<path id="XMLID_375_" class="st10" d="M298.1,172c26.9,1.3,44.4,17.6,44.3,44.1c-0.2,26.7-16.9,42.9-44.1,43.7
				c-24.6,0.8-43.7-21-43.3-43.5C255.5,189.6,272.5,174.1,298.1,172z"/>
			<path id="XMLID_374_" class="st10" d="M406.7,513.8c-2.4,7-5.4,9.1-12.4,9.1c-63.9,0-127.9,0-191.8-0.1c-3,0-6-1.3-8.6-1.9
				c-1.3-2.8-2.3-4.8-3.3-7c1-2.1,1.9-4,2.8-5.9c3.1-2.4,6.4-3.2,10.2-3.2C267,505,330.4,505,393.9,505
				C401.1,505,404.2,507,406.7,513.8z"/>
			<path id="XMLID_373_" class="st10" d="M345.5,278.6c-31.1,0-62.2,0-93.2,0c0-0.6,0-0.7,0-0.9c0-0.1,0.2-0.3,0.3-0.3
				c0.6-0.2,1.3-0.4,1.9-0.4c30,0,59.9,0,89.9,0.1c0.4,0,0.8,0.4,1.2,0.6C345.5,278,345.5,278.3,345.5,278.6z"/>
		</g>
	</g>
</g>
<g id="bP" class="st0">
	<g id="XMLID_269_" class="st1">
		<g id="XMLID_334_">
			<path id="XMLID_345_" d="M204.3,478.2c30-53.6,48.7-110.6,56.3-172.2c-3.4,0-6.8-0.3-10.2,0c-11.9,1.1-23.7-9.3-26.3-20.8
				c-2.8-12.5,1.6-23.9,12.1-31.4c0.5-0.4,1-0.9,1.7-1.5c-10-16.9-11.2-35.2-7.6-53.8c3.2-16.4,13.2-28.9,25.9-39
				c24.9-20,65.5-16.8,86.9,1.1c31,25.9,31.3,65.5,16.8,91.7c1.2,0.9,2.4,1.9,3.7,2.9c7.4,6.1,10.6,13.8,10.5,23.6
				c-0.1,10.8-4.7,18.5-13.5,23.8c-3.2,2-7.4,2.7-11.2,3.3c-3.9,0.5-7.9,0.1-11.9,0.1c5.7,55.3,35.3,145.4,56.4,171.9
				c6.4,0,13-0.3,19.3,2.7c8.2,3.9,14.6,9.8,18,18.2c4.2,10.1,4.1,20.4-0.1,30.5c-3.5,8.2-9.7,14.1-17.7,17.9
				c-4.9,2.3-10.1,2.9-15.5,2.8c-67-0.1-134-0.1-201-0.1c-8.3,0-15.3-2.9-21.5-8.8c-5.3-5.1-9.7-10.6-10.8-17.9
				c-1.8-12.3-1.2-23.8,8.1-33.8C181.3,480.1,191.5,476.9,204.3,478.2z M387.1,488c-17.1-29.7-30.8-60.6-41.1-93
				c-10.1-32.1-17.2-64.9-20.1-99c7.7,0,14.7,0.2,21.6-0.1c2.7-0.1,5.5-0.9,7.9-2.2c7.1-3.7,8.5-10.2,8.5-17.6
				c0-8.1-8.1-16.6-16.2-16.1c-2.1,0.1-4.2,0-6.7,0c28-28.6,20.4-70.7-2.8-90.3c-20.6-17.4-55.4-19.4-77.8-0.8
				c-11.7,9.8-19.6,22.3-21.4,37.5c-2.3,20,1.9,38.5,18.4,53.7c-4.5,0-7.8-0.6-10.7,0.1c-6.6,1.5-11.4,5.9-12.6,12.6
				c-1.4,7.4-0.7,14.7,6,19.8c3.1,2.3,6.6,3.6,10.6,3.4c6.9-0.2,13.9-0.1,21-0.1c-3.2,35.1-10.5,68.7-21,101.5
				c-10.2,31.5-23.7,61.6-40.2,90.5c-4.6,0-9-0.4-13.2,0.1c-3.8,0.5-7.9,1.3-11.2,3.2c-9.2,5.3-12.5,13.6-12.5,24.2
				c0,12.8,11.8,24.5,24.2,24.5c67.3-0.2,134.6-0.1,202-0.1c1.9,0,4-0.3,5.8-0.9c11.8-3.6,17.5-12.3,18.3-24.7
				c0.9-14.4-12-28-26.8-26.5C393.9,488.3,390.5,488,387.1,488z"/>
			<path id="XMLID_339_" class="st10" d="M387.1,488c3.5,0,6.8,0.3,10.1-0.1c14.9-1.6,27.7,12,26.8,26.5
				c-0.8,12.4-6.5,21.1-18.3,24.7c-1.9,0.6-3.9,0.9-5.8,0.9c-67.3,0-134.6,0-202,0.1c-12.4,0-24.3-11.7-24.2-24.5
				c0-10.6,3.3-18.9,12.5-24.2c3.3-1.9,7.4-2.8,11.2-3.2c4.3-0.5,8.6-0.1,13.2-0.1c16.5-28.9,30-59,40.2-90.5
				c10.6-32.8,17.8-66.3,21-101.5c-7.2,0-14.1-0.2-21,0.1c-4,0.1-7.5-1.1-10.6-3.4c-6.7-5.1-7.4-12.4-6-19.8c1.2-6.7,6-11,12.6-12.6
				c3-0.7,6.2-0.1,10.7-0.1c-16.5-15.2-20.7-33.7-18.4-53.7c1.7-15.2,9.7-27.7,21.4-37.5c22.4-18.7,57.3-16.6,77.8,0.8
				c23.2,19.6,30.7,61.7,2.8,90.3c2.5,0,4.6,0.1,6.7,0c8.1-0.5,16.2,8.1,16.2,16.1c0,7.5-1.4,13.9-8.5,17.6c-2.4,1.2-5.2,2-7.9,2.2
				c-7,0.3-14,0.1-21.6,0.1c2.9,34.1,10,66.9,20.1,99C356.3,427.4,370,458.3,387.1,488z M367.4,487.7
				c-32.6-60.2-51.9-123.9-58.6-191.5c-6.8,0-13.1,0-19.7,0c-0.8,2.7-2.2,5.3-2.1,8c0.2,11.3-2.1,22.3-4,33.3
				c-3.6,20.6-8.5,40.8-14.8,60.8c-7.8,24.7-17.2,48.8-29,72c-2.9,5.8-5.8,11.7-8.8,17.5C276,487.7,321.2,487.7,367.4,487.7z
				 M298.1,172c-25.7,2.1-42.6,17.6-43.1,44.3c-0.4,22.5,18.7,44.3,43.3,43.5c27.2-0.9,43.9-17,44.1-43.7
				C342.6,189.6,325,173.3,298.1,172z M406.7,513.8c-2.5-6.8-5.6-8.8-12.8-8.8c-63.4,0-126.9,0-190.3-0.1c-3.8,0-7.2,0.8-10.2,3.2
				c-0.9,1.9-1.8,3.8-2.8,5.9c1,2.2,2,4.3,3.3,7c2.7,0.6,5.6,1.9,8.6,1.9c63.9,0.1,127.9,0.1,191.8,0.1
				C401.3,523,404.3,520.8,406.7,513.8z M345.5,278.6c0-0.3,0-0.7,0.1-1c-0.4-0.2-0.8-0.6-1.2-0.6c-30,0-59.9-0.1-89.9-0.1
				c-0.6,0-1.3,0.3-1.9,0.4c-0.1,0-0.2,0.2-0.3,0.3c0,0.2,0,0.3,0,0.9C283.3,278.6,314.4,278.6,345.5,278.6z"/>
			<path id="XMLID_338_" d="M367.4,487.7c-46.2,0-91.5,0-137,0c2.9-5.8,5.8-11.7,8.8-17.5c11.7-23.2,21.2-47.2,29-72
				c6.3-19.9,11.2-40.2,14.8-60.8c1.9-11,4.2-22,4-33.3c0-2.6,1.4-5.3,2.1-8c6.6,0,12.9,0,19.7,0
				C315.6,363.8,334.8,427.5,367.4,487.7z"/>
			<path id="XMLID_337_" d="M298.1,172c26.9,1.3,44.4,17.6,44.3,44.1c-0.2,26.7-16.9,42.9-44.1,43.7c-24.6,0.8-43.7-21-43.3-43.5
				C255.5,189.6,272.5,174.1,298.1,172z"/>
			<path id="XMLID_336_" d="M406.7,513.8c-2.4,7-5.4,9.1-12.4,9.1c-63.9,0-127.9,0-191.8-0.1c-3,0-6-1.3-8.6-1.9
				c-1.3-2.8-2.3-4.8-3.3-7c1-2.1,1.9-4,2.8-5.9c3.1-2.4,6.4-3.2,10.2-3.2C267,505,330.4,505,393.9,505
				C401.1,505,404.2,507,406.7,513.8z"/>
			<path id="XMLID_335_" d="M345.5,278.6c-31.1,0-62.2,0-93.2,0c0-0.6,0-0.7,0-0.9c0-0.1,0.2-0.3,0.3-0.3c0.6-0.2,1.3-0.4,1.9-0.4
				c30,0,59.9,0,89.9,0.1c0.4,0,0.8,0.4,1.2,0.6C345.5,278,345.5,278.3,345.5,278.6z"/>
		</g>
	</g>
</g>
</svg>
